# 3ds Max Wavefront OBJ Exporter v0.97b - (c)2007 guruware
# File Created: 13.11.2016 19:20:08

#
# object SmolCheese
#

v  -2.6450 -0.1830 4.6090
v  -5.3440 0.0000 -5.5000
v  5.3440 0.0000 -5.5000
v  2.6450 -0.1830 4.6090
v  -2.6450 0.1717 4.6090
v  2.6450 0.1717 4.6090
v  5.3440 6.1457 -5.5000
v  -5.3440 6.1457 -5.5000
v  2.7154 -0.1689 4.6090
v  2.7576 -0.1267 4.6090
v  2.7716 -0.0564 4.6090
v  2.7716 0.0451 4.6090
v  2.7576 0.1154 4.6090
v  2.7154 0.1576 4.6090
v  -2.7154 0.1576 4.6090
v  -2.7576 0.1154 4.6090
v  -2.7716 0.0451 4.6090
v  -2.7154 -0.1689 4.6090
v  -2.7576 -0.1267 4.6090
v  -2.7716 -0.0564 4.6090
v  5.5000 0.1560 -5.5000
v  5.5000 5.9897 -5.5000
v  -5.4307 0.0173 -5.5000
v  -5.4827 0.0693 -5.5000
v  -5.5000 0.1560 -5.5000
v  -5.5000 5.9897 -5.5000
v  -5.4827 6.0764 -5.5000
v  -5.4307 6.1284 -5.5000
v  5.4307 6.1284 -5.5000
v  5.4827 6.0764 -5.5000
v  5.4307 0.0173 -5.5000
v  5.4827 0.0693 -5.5000
# 32 vertices

vn -0.0822 -0.9966 0.0039
vn -0.1148 -0.9933 0.0127
vn 0.1148 -0.9933 0.0127
vn 0.0822 -0.9966 0.0039
vn -0.0743 0.8497 0.5220
vn 0.0743 0.8497 0.5220
vn 0.0927 0.8462 0.5248
vn -0.0927 0.8462 0.5248
vn 0.0000 0.0000 1.0000
vn 0.9613 -0.0981 0.2574
vn 0.9618 -0.0925 0.2576
vn 0.9381 0.1212 0.3245
vn 0.9533 0.0642 0.2950
vn 0.0000 0.0000 -1.0000
vn -0.9618 -0.0925 0.2576
vn -0.9613 -0.0981 0.2574
vn -0.9533 0.0642 0.2950
vn -0.9381 0.1212 0.3245
vn -0.1960 -0.9800 0.0346
vn 0.1960 -0.9800 0.0346
vn 0.1658 0.8290 0.5342
vn -0.1658 0.8290 0.5342
vn -0.6963 -0.6963 0.1742
vn -0.9489 -0.1898 0.2521
vn 0.6963 -0.6963 0.1742
vn 0.9489 -0.1898 0.2521
vn 0.6043 0.6043 0.5193
vn 0.9166 0.1833 0.3552
vn -0.6043 0.6043 0.5193
vn -0.9166 0.1833 0.3552
# 30 vertex normals

vt 0.5428 0.0188 0.0000
vt 0.6353 0.3653 0.0000
vt 0.2690 0.3653 0.0000
vt 0.3615 0.0188 0.0000
vt 0.5400 0.9658 0.0000
vt 0.3644 0.9658 0.0000
vt 0.2719 0.5759 0.0000
vt 0.6325 0.5759 0.0000
vt 0.5400 0.9773 0.0000
vt 0.3643 0.9773 0.0000
vt 0.3620 0.9768 0.0000
vt 0.3606 0.9754 0.0000
vt 0.3593 0.9725 0.0000
vt 0.3603 0.9696 0.0000
vt 0.3609 0.9675 0.0000
vt 0.3622 0.9662 0.0000
vt 0.5421 0.9662 0.0000
vt 0.5434 0.9675 0.0000
vt 0.5441 0.9696 0.0000
vt 0.5424 0.9768 0.0000
vt 0.5438 0.9754 0.0000
vt 0.5451 0.9725 0.0000
vt 0.1265 0.7134 0.0000
vt 0.2677 0.5806 0.0000
vt 0.6383 0.3659 0.0000
vt 0.6401 0.3676 0.0000
vt 0.6407 0.3706 0.0000
vt 0.6407 0.5706 0.0000
vt 0.6401 0.5735 0.0000
vt 0.6383 0.5753 0.0000
vt 0.2660 0.5753 0.0000
vt 0.2643 0.5735 0.0000
vt 0.2637 0.5706 0.0000
vt 0.2660 0.3659 0.0000
vt 0.2643 0.3676 0.0000
vt 0.2637 0.3706 0.0000
vt 0.7779 0.7134 0.0000
vt 0.6366 0.5806 0.0000
vt 0.6383 0.3653 0.0000
vt 0.5452 0.0188 0.0000
vt 0.3591 0.0188 0.0000
vt 0.2660 0.3653 0.0000
vt 0.2719 0.5765 0.0000
vt 0.6325 0.5765 0.0000
vt 0.6408 0.3651 0.0000
vt 0.5473 0.0187 0.0000
vt 0.7798 0.7157 0.0000
vt 0.5469 0.9741 0.0000
vt 0.3571 0.0187 0.0000
vt 0.2635 0.3651 0.0000
vt 0.3575 0.9741 0.0000
vt 0.1246 0.7157 0.0000
vt 0.2698 0.5780 0.0000
vt 0.6345 0.5780 0.0000
# 54 texture coords

g SmolCheese
s 1
f 1/1/1 2/2/2 3/3/3 4/4/4 
f 5/5/5 6/6/6 7/7/7 8/8/8 
s 2
f 1/9/9 4/10/9 9/11/9 10/12/9 
f 1/9/9 10/12/9 11/13/9 6/6/9 
f 11/13/9 12/14/9 13/15/9 14/16/9 
f 11/13/9 14/16/9 6/6/9 
f 6/6/9 5/5/9 15/17/9 16/18/9 
f 6/6/9 16/18/9 17/19/9 1/9/9 
f 18/20/9 1/9/9 17/19/9 19/21/9 
f 20/22/9 19/21/9 17/19/9 
s 1
f 11/13/10 21/23/11 22/24/12 12/14/13 
s 2
f 3/3/14 2/2/14 23/25/14 24/26/14 
f 3/3/14 24/26/14 25/27/14 8/8/14 
f 25/27/14 26/28/14 27/29/14 28/30/14 
f 25/27/14 28/30/14 8/8/14 
f 8/8/14 7/7/14 29/31/14 30/32/14 
f 8/8/14 30/32/14 22/33/14 3/3/14 
f 31/34/14 3/3/14 22/33/14 32/35/14 
f 21/36/14 32/35/14 22/33/14 
s 1
f 25/37/15 20/22/16 17/19/17 26/38/18 
f 23/39/19 2/2/2 1/1/1 18/40/19 
f 9/41/20 4/4/4 3/3/3 31/42/20 
f 29/43/21 7/7/7 6/6/6 14/16/21 
f 15/17/22 5/5/5 8/8/8 28/44/22 
s 4
f 24/45/23 23/39/23 18/40/23 19/46/23 
s 1
f 25/37/15 24/47/24 19/48/24 20/22/16 
s 4
f 10/49/25 9/41/25 31/42/25 32/50/25 
s 1
f 11/13/10 10/51/26 32/52/26 21/23/11 
s 4
f 30/53/27 29/43/27 14/16/27 13/15/27 
s 1
f 22/24/12 30/53/28 13/15/28 12/14/13 
s 4
f 16/18/29 15/17/29 28/44/29 27/54/29 
s 1
f 17/19/17 16/18/30 27/54/30 26/38/18 
# 28 polygons - 4 triangles

