# 3ds Max Wavefront OBJ Exporter v0.97b - (c)2007 guruware
# File Created: 25.11.2016 15:49:00

mtllib ChiliPepper_Txt.mtl

#
# object Cylinder001
#

v  2.2620 2.7992 1.1762
v  0.9615 0.1263 1.0194
v  0.8877 0.1281 0.8168
v  2.0006 2.9644 0.4027
v  0.7009 0.1307 0.7089
v  1.3143 3.2109 -0.0000
v  0.4885 0.1330 0.7463
v  0.5242 3.4235 0.1566
v  0.3498 0.1339 0.9116
v  0.0000 3.5026 0.7991
v  0.3498 0.1329 1.1273
v  -0.0130 3.4112 1.6271
v  0.4885 0.1305 1.2925
v  0.4912 3.1921 2.2530
v  0.7009 0.1279 1.3300
v  1.2768 2.9478 2.3839
v  0.8877 0.1263 1.2221
v  1.9761 2.7927 1.9587
v  3.7721 4.9942 1.5807
v  3.4976 5.4266 0.5359
v  2.6741 6.0720 0.0267
v  1.6870 6.6285 0.2913
v  0.9981 6.8355 1.2060
v  0.9299 6.5963 2.3427
v  1.5141 6.0229 3.1696
v  2.4775 5.3833 3.2997
v  3.3693 4.9771 2.6723
v  5.5189 6.7732 2.1983
v  5.3710 7.4337 1.1047
v  4.6929 8.4196 0.6333
v  3.8019 9.2696 1.0046
v  3.1151 9.5859 2.0448
v  2.9536 9.2206 3.2674
v  3.3931 8.3445 4.1001
v  4.2279 7.3677 4.1534
v  5.0675 6.7471 3.4022
v  7.5896 7.9949 2.9776
v  7.6418 8.8209 1.9122
v  7.2402 10.0539 1.5396
v  6.5725 11.1168 2.0342
v  5.9512 11.5123 3.1647
v  5.6671 11.0554 4.4019
v  5.8531 9.9599 5.1671
v  6.4220 8.7383 5.1021
v  7.1078 7.9622 4.2374
v  9.6492 8.7540 3.8594
v  9.8942 9.5608 2.9684
v  9.8238 10.7652 2.7458
v  9.4708 11.8034 3.2956
v  9.0005 12.1898 4.3608
v  8.6329 11.7436 5.4427
v  8.5400 10.6734 6.0353
v  8.7653 9.4801 5.8611
v  9.2034 8.7221 5.0018
v  0.6792 0.0000 1.2111
v  0.5479 0.0000 1.1880
v  0.4622 0.0000 1.0858
v  0.8403 0.0000 1.0191
v  0.4622 0.0000 0.9524
v  0.5479 0.0000 0.8503
v  0.6792 0.0000 0.8271
v  0.7947 0.0000 0.8938
v  0.7947 0.0000 1.1444
v  14.9661 9.0900 6.3447
v  15.0007 9.2457 6.4734
v  14.9569 9.3036 6.6650
v  14.7558 8.7885 6.4594
v  14.8553 9.2367 6.8299
v  14.7434 9.0762 6.8909
v  14.6736 8.8973 6.8195
v  14.6784 8.7837 6.6491
v  14.8694 8.9094 6.3392
v  9.8378 9.2389 4.1557
v  9.8356 8.9533 4.0132
v  10.1690 9.6613 3.2046
v  10.4097 9.8510 3.6252
v  10.0163 10.7631 3.0342
v  9.8846 10.7180 3.3648
v  9.8478 11.7424 3.5348
v  10.2165 11.5034 3.9108
v  9.4081 12.0901 4.5202
v  9.4882 11.7842 4.6692
v  9.0644 11.6785 5.5092
v  9.5276 11.4555 5.4531
v  8.9040 10.6915 6.0409
v  9.0501 10.6672 5.8669
v  9.1174 9.5908 5.8667
v  9.5172 9.7883 5.7171
v  9.5041 8.8830 5.0741
v  9.8602 9.2330 5.0967
v  9.9035 9.6963 4.3708
v  10.2680 10.0811 4.0231
v  9.8965 10.6354 3.8754
v  10.1479 11.1290 4.2052
v  9.5773 11.3079 4.6908
v  9.7218 11.0993 5.1874
v  9.2851 10.5993 5.4488
v  9.7095 10.0418 5.3526
v  9.9187 9.6891 4.9559
v  9.9195 10.2363 4.2200
v  9.8316 10.0197 4.4536
v  9.8865 10.5595 4.1670
v  9.8370 10.8381 4.3195
v  9.7018 10.9418 4.6059
v  9.6125 10.8220 4.8923
v  9.5606 10.5348 5.0448
v  9.6170 10.2146 4.9919
v  9.7236 10.0112 4.7584
v  9.9964 10.0610 4.5294
v  10.0765 10.2627 4.3134
v  10.0642 10.5637 4.2660
v  10.0090 10.8232 4.4095
v  9.8748 10.9198 4.6766
v  9.7998 10.8082 4.9424
v  9.7400 10.5407 5.0826
v  9.7947 10.2425 5.0314
v  9.8908 10.0530 4.8130
v  10.5525 10.2388 4.8166
v  10.6039 10.3597 4.6900
v  10.6157 10.5401 4.6657
v  10.5825 10.6956 4.7550
v  10.5197 10.7535 4.9163
v  10.4568 10.6867 5.0739
v  10.4231 10.5263 5.1542
v  10.4345 10.3476 5.1196
v  10.4855 10.2341 4.9862
v  12.3072 10.0095 5.3798
v  12.2427 9.9013 5.4902
v  12.3435 10.1712 5.3673
v  12.3345 10.3105 5.4585
v  12.2846 10.3623 5.6109
v  12.2170 10.3024 5.7530
v  12.1634 10.1588 5.8185
v  12.1488 9.9987 5.7766
v  12.1802 9.8970 5.6470
v  14.6068 8.7816 6.3653
v  13.9330 9.2559 6.1639
v  14.0106 9.3516 6.0696
v  14.7522 8.9401 6.2082
v  14.0712 9.4944 6.0689
v  14.8746 9.1765 6.2141
v  14.0866 9.6175 6.1620
v  14.9167 9.3804 6.3802
v  14.0494 9.6633 6.3055
v  14.8588 9.4563 6.6289
v  13.9771 9.6104 6.4322
v  14.7280 9.3686 6.8437
v  13.9036 9.4835 6.4828
v  14.5855 9.1585 6.9241
v  13.8632 9.3420 6.4336
v  14.4979 8.9242 6.8326
v  13.8748 9.2522 6.3077
v  14.5063 8.7754 6.6119
# 153 vertices

vn 0.8642 -0.5004 -0.0526
vn 0.8312 -0.5559 -0.0086
vn 0.6398 -0.5181 -0.5676
vn 0.6431 -0.3535 -0.6793
vn 0.1277 -0.4583 -0.8796
vn 0.0885 -0.1382 -0.9864
vn -0.4723 -0.4054 -0.7827
vn -0.5293 0.0426 -0.8474
vn -0.8667 -0.3861 -0.3160
vn -0.9339 0.1095 -0.3404
vn -0.8635 -0.4093 0.2947
vn -0.9517 0.0335 0.3053
vn -0.4663 -0.4642 0.7530
vn -0.5679 -0.1544 0.8085
vn 0.1252 -0.5232 0.8430
vn 0.0562 -0.3681 0.9281
vn 0.6308 -0.5577 0.5394
vn 0.6303 -0.5063 0.5885
vn 0.7805 -0.6181 -0.0939
vn 0.6116 -0.3474 -0.7108
vn 0.1263 0.0426 -0.9911
vn -0.4362 0.3662 -0.8220
vn -0.8237 0.4834 -0.2965
vn -0.8695 0.3483 0.3503
vn -0.5488 0.0150 0.8358
vn 0.0082 -0.3738 0.9275
vn 0.5395 -0.6279 0.5610
vn 0.6435 -0.7504 -0.1511
vn 0.5574 -0.3808 -0.7378
vn 0.1913 0.1507 -0.9699
vn -0.2716 0.5912 -0.7594
vn -0.6232 0.7511 -0.2178
vn -0.7127 0.5656 0.4149
vn -0.4960 0.1115 0.8611
vn -0.0583 -0.4173 0.9069
vn 0.3960 -0.7651 0.5077
vn 0.4893 -0.8459 -0.2120
vn 0.5070 -0.4114 -0.7574
vn 0.2901 0.2155 -0.9324
vn -0.0497 0.7371 -0.6740
vn -0.3576 0.9269 -0.1136
vn -0.5005 0.7068 0.4999
vn -0.4121 0.1673 0.8956
vn -0.1228 -0.4560 0.8815
vn 0.2372 -0.8642 0.4437
vn 0.5814 -0.8010 -0.1430
vn 0.6027 -0.4116 -0.6837
vn 0.5952 0.2411 -0.7665
vn 0.2708 0.7841 -0.5585
vn -0.0043 0.9997 0.0254
vn -0.1869 0.7602 0.6223
vn -0.1911 0.1831 0.9643
vn -0.0120 -0.4561 0.8898
vn 0.2637 -0.8664 0.4241
vn 0.0786 -0.8850 0.4590
vn -0.2378 -0.8818 0.4073
vn -0.4481 -0.8792 0.1620
vn 0.4609 -0.8875 -0.0003
vn -0.4493 -0.8784 -0.1630
vn -0.2394 -0.8797 -0.4108
vn 0.0793 -0.8826 -0.4635
vn 0.3546 -0.8856 -0.2999
vn 0.3525 -0.8872 0.2976
vn 0.9336 -0.2658 -0.2404
vn 0.9992 0.0385 0.0043
vn 0.9141 0.1522 0.3759
vn 0.5371 -0.8434 -0.0133
vn 0.7182 0.0202 0.6955
vn 0.5060 -0.2928 0.8113
vn 0.3777 -0.6370 0.6720
vn 0.3905 -0.8526 0.3472
vn 0.7503 -0.6137 -0.2458
vn 0.9350 -0.2779 0.2202
vn 0.8613 -0.4989 0.0958
vn 0.8271 -0.3143 -0.4660
vn 0.9924 -0.0974 -0.0754
vn 0.9583 0.1991 -0.2049
vn 0.9893 0.1179 0.0865
vn 0.6205 0.6673 -0.4120
vn 0.9490 0.3137 -0.0311
vn 0.4698 0.8445 0.2571
vn 0.8034 0.3959 0.4447
vn 0.2196 0.6877 0.6920
vn 0.7090 0.4044 0.5778
vn 0.3456 0.1727 0.9223
vn 0.7559 0.1206 0.6435
vn 0.2851 -0.3570 0.8895
vn 0.6546 -0.0625 0.7534
vn 0.5041 -0.7521 0.4246
vn 0.8360 -0.4226 0.3500
vn 0.9476 -0.0419 0.3168
vn 0.8604 0.2311 0.4542
vn 0.9907 0.0781 0.1113
vn 0.9131 -0.1453 0.3809
vn 0.9182 0.2009 0.3413
vn 0.9707 0.0150 0.2397
vn 0.8316 0.0816 0.5493
vn 0.8715 0.3148 0.3761
vn 0.9754 0.1722 0.1377
vn 0.9992 -0.0053 0.0402
vn 0.8919 -0.4262 0.1513
vn 0.9068 0.1892 -0.3766
vn 0.9938 0.1108 0.0006
vn 0.6690 0.5622 0.4862
vn 0.8099 0.4443 0.3829
vn 0.5956 0.1227 0.7938
vn 0.8210 -0.0540 0.5684
vn 0.9172 -0.2439 0.3149
vn 0.3451 -0.9042 -0.2516
vn 0.5108 -0.4525 -0.7310
vn 0.4827 0.2086 -0.8506
vn 0.3440 0.7764 -0.5281
vn 0.0939 0.9926 0.0768
vn -0.1191 0.7487 0.6522
vn -0.2055 0.1577 0.9659
vn -0.1084 -0.5120 0.8521
vn 0.1071 -0.9199 0.3774
vn 0.1998 -0.9248 -0.3237
vn 0.3999 -0.8888 -0.2240
vn 0.5707 -0.4356 -0.6961
vn 0.4248 -0.4571 -0.7814
vn 0.5043 0.2182 -0.8355
vn 0.5794 0.2118 -0.7871
vn 0.4438 0.7670 -0.4634
vn 0.4134 0.7727 -0.4817
vn 0.1984 0.9745 0.1049
vn 0.2062 0.9712 0.1190
vn 0.0018 0.7368 0.6761
vn -0.0428 0.7412 0.6699
vn -0.2066 0.1680 0.9639
vn -0.0996 0.1604 0.9820
vn -0.0418 -0.4851 0.8735
vn -0.2160 -0.5027 0.8371
vn 0.1601 -0.9066 0.3904
vn -0.0561 -0.9438 0.3257
vn 0.2170 -0.4548 -0.8638
vn -0.0889 -0.8984 -0.4301
vn 0.4222 0.2083 -0.8823
vn 0.4277 0.7626 -0.4853
vn 0.2450 0.9616 0.1237
vn -0.0409 0.7313 0.6808
vn -0.3094 0.1584 0.9376
vn -0.4324 -0.4993 0.7508
vn -0.3449 -0.9157 0.2062
vn -0.0976 -0.8986 -0.4279
vn -0.2685 -0.8233 -0.5001
vn 0.0784 -0.4009 -0.9128
vn 0.2645 -0.4925 -0.8292
vn 0.3498 0.2251 -0.9094
vn 0.5637 0.1132 -0.8182
vn 0.4191 0.7600 -0.4968
vn 0.6604 0.6352 -0.4005
vn 0.2582 0.9574 0.1296
vn 0.5094 0.8297 0.2284
vn -0.0573 0.7287 0.6824
vn 0.1811 0.6060 0.7745
vn -0.3842 0.1770 0.9061
vn -0.1713 0.0685 0.9828
vn -0.5703 -0.4436 0.6914
vn -0.3825 -0.5323 0.7552
vn -0.5253 -0.8401 0.1354
vn -0.3532 -0.9144 0.1980
# 162 vertex normals

vt 0.4550 0.8499 1.0000
vt 0.3809 0.9826 1.0000
vt 0.3743 0.9832 1.0000
vt 0.4169 0.8345 1.0000
vt 0.3653 0.9863 1.0000
vt 0.3759 0.8275 1.0000
vt 0.1695 0.8178 1.0000
vt 0.0436 0.9014 1.0000
vt 0.0347 0.8954 1.0000
vt 0.1451 0.7904 1.0000
vt 0.0212 0.8887 1.0000
vt 0.1152 0.7680 1.0000
vt 0.0108 0.8771 1.0000
vt 0.0845 0.7451 1.0000
vt 0.0030 0.8696 1.0000
vt 0.0532 0.7272 1.0000
vt 0.3884 1.0024 1.0000
vt 0.3881 0.9928 1.0000
vt 0.5153 0.9052 1.0000
vt 0.5358 0.9418 1.0000
vt 0.3859 0.9861 1.0000
vt 0.4883 0.8742 1.0000
vt 0.5275 0.7305 1.0000
vt 0.4742 0.7011 1.0000
vt 0.4184 0.6804 1.0000
vt 0.2903 0.7186 1.0000
vt 0.2551 0.6805 1.0000
vt 0.2147 0.6492 1.0000
vt 0.1720 0.6195 1.0000
vt 0.1279 0.5883 1.0000
vt 0.6219 0.8080 1.0000
vt 0.6606 0.8527 1.0000
vt 0.5768 0.7670 1.0000
vt 0.5999 0.6172 1.0000
vt 0.5420 0.5767 1.0000
vt 0.4838 0.5420 1.0000
vt 0.4024 0.6049 1.0000
vt 0.3604 0.5635 1.0000
vt 0.3132 0.5284 1.0000
vt 0.2647 0.4943 1.0000
vt 0.2194 0.4555 1.0000
vt 0.7122 0.7002 1.0000
vt 0.7644 0.7418 1.0000
vt 0.6569 0.6591 1.0000
vt 0.6752 0.5095 1.0000
vt 0.6231 0.4601 1.0000
vt 0.5733 0.4096 1.0000
vt 0.5078 0.4835 1.0000
vt 0.4616 0.4423 1.0000
vt 0.4124 0.4067 1.0000
vt 0.3641 0.3713 1.0000
vt 0.3194 0.3297 1.0000
vt 0.8550 0.6186 1.0000
vt 0.7936 0.5879 1.0000
vt 0.7323 0.5532 1.0000
vt 0.7558 0.4202 1.0074
vt 0.7214 0.3716 1.0026
vt 0.6979 0.3159 0.9974
vt 0.5950 0.3604 0.9974
vt 0.5495 0.3257 0.9951
vt 0.5049 0.2933 0.9953
vt 0.4609 0.2606 0.9965
vt 0.4208 0.2232 0.9991
vt 0.9126 0.4833 0.9991
vt 0.8534 0.4756 1.0037
vt 0.7991 0.4574 1.0077
vt 0.6656 0.2680 0.0000
vt 0.6634 0.2741 0.0000
vt 0.6581 0.2777 0.0000
vt 0.6575 0.2586 0.0000
vt 0.6520 0.2765 0.0000
vt 0.6477 0.2715 0.0000
vt 0.6471 0.2651 0.0000
vt 0.6513 0.2601 0.0000
vt 0.6631 0.2620 0.0000
vt 0.6429 0.3166 0.2500
vt 0.6531 0.3188 0.2500
vt 0.6596 0.3270 0.2500
vt 0.6298 0.3313 0.2500
vt 0.6593 0.3374 0.2500
vt 0.6523 0.3452 0.2500
vt 0.6420 0.3467 0.2500
vt 0.6331 0.3412 0.2500
vt 0.6337 0.3216 0.2500
vt 0.7768 0.4019 0.9668
vt 0.7649 0.4104 0.9657
vt 0.7362 0.3645 0.9629
vt 0.7587 0.3607 0.9620
vt 0.7236 0.3098 0.9499
vt 0.7519 0.3100 0.9564
vt 0.6028 0.3000 0.9506
vt 0.6036 0.3300 0.9470
vt 0.5556 0.3102 0.9545
vt 0.5594 0.2881 0.9509
vt 0.5117 0.2815 0.9508
vt 0.5145 0.2687 0.9507
vt 0.4749 0.2474 0.9515
vt 0.4946 0.2377 0.9518
vt 0.4448 0.2056 0.9552
vt 0.4675 0.1993 0.9534
vt 0.9066 0.4369 0.9592
vt 0.9123 0.4560 0.9581
vt 0.8560 0.4585 0.9638
vt 0.8560 0.4350 0.9633
vt 0.8033 0.4451 0.9685
vt 0.8140 0.4252 0.9667
vt 0.7998 0.3838 0.9668
vt 0.7807 0.3577 0.9620
vt 0.7866 0.3243 0.9564
vt 0.5902 0.2648 0.9506
vt 0.5606 0.2687 0.9509
vt 0.5295 0.2511 0.9507
vt 0.5145 0.2305 0.9518
vt 0.5009 0.1990 0.9534
vt 0.8899 0.4081 0.9592
vt 0.8520 0.4093 0.9633
vt 0.8233 0.4035 0.9667
vt 0.8017 0.3532 0.9919
vt 0.8133 0.3703 0.9687
vt 0.7992 0.3353 0.9853
vt 0.5658 0.2502 0.9589
vt 0.5819 0.2513 0.9728
vt 0.5478 0.2414 0.9426
vt 0.5356 0.2268 0.9584
vt 0.5292 0.2093 0.9790
vt 0.8691 0.3864 0.9933
vt 0.8501 0.3881 0.9860
vt 0.8305 0.3817 0.9648
vt 0.8209 0.3630 0.8682
vt 0.8108 0.3504 0.9505
vt 0.8058 0.3358 0.9922
vt 0.5811 0.2438 0.9795
vt 0.5674 0.2408 0.9767
vt 0.5534 0.2341 0.9577
vt 0.5442 0.2221 0.9731
vt 0.5370 0.2095 0.9825
vt 0.8660 0.3799 0.9965
vt 0.8500 0.3783 0.9341
vt 0.8352 0.3716 0.8591
vt 0.8446 0.3374 0.5194
vt 0.8385 0.3322 0.7256
vt 0.8342 0.3262 0.8753
vt 0.5881 0.2154 0.8962
vt 0.5809 0.2123 0.9537
vt 0.5743 0.2079 0.9691
vt 0.5688 0.2020 0.9476
vt 0.5641 0.1953 0.8839
vt 0.8677 0.3487 0.8580
vt 0.8600 0.3462 0.7009
vt 0.8524 0.3417 0.4920
vt 0.8876 0.2518 0.7898
vt 0.8946 0.2560 0.5714
vt 0.8810 0.2470 0.9674
vt 0.6397 0.1448 1.0368
vt 0.6458 0.1495 0.9618
vt 0.6337 0.1402 1.0591
vt 0.6282 0.1350 1.0302
vt 0.6230 0.1294 0.9489
vt 0.9158 0.2688 0.9492
vt 0.9086 0.2648 0.7649
vt 0.9017 0.2602 0.5488
vt 0.9650 0.1321 0.8377
vt 0.9428 0.1695 0.5134
vt 0.9354 0.1651 0.6644
vt 0.9549 0.1255 0.8908
vt 0.9284 0.1609 0.7800
vt 0.9439 0.1187 0.9196
vt 0.7419 0.0594 0.9278
vt 0.7085 0.0826 0.8285
vt 0.7035 0.0774 0.8733
vt 0.7341 0.0505 0.9164
vt 0.6978 0.0724 0.8848
vt 0.7262 0.0426 0.9027
vt 0.6920 0.0675 0.8668
vt 0.7177 0.0355 0.9110
vt 0.6862 0.0628 0.8159
vt 0.7087 0.0281 0.9176
vt 0.9957 0.1526 0.9053
vt 0.9641 0.1823 0.7624
vt 0.9574 0.1783 0.6404
vt 0.9850 0.1454 0.8741
vt 0.9501 0.1740 0.4914
vt 0.9749 0.1387 0.8295
vt 0.9697 0.1246 0.7618
vt 0.9595 0.1185 0.7879
vt 0.9508 0.1123 0.7900
vt 0.7474 0.0515 0.8356
vt 0.7398 0.0440 0.8128
vt 0.7316 0.0362 0.7951
vt 0.7229 0.0296 0.8075
vt 0.7156 0.0231 0.8263
vt 0.9994 0.1432 0.7771
vt 0.9896 0.1375 0.7739
vt 0.9797 0.1312 0.7553
vt 0.6586 0.2501 0.0000
vt 0.6696 0.2561 0.0000
vt 0.6742 0.2675 0.0000
vt 0.6704 0.2794 0.0000
vt 0.6601 0.2862 0.0000
vt 0.6477 0.2844 0.0000
vt 0.6396 0.2750 0.0000
vt 0.6388 0.2627 0.0000
vt 0.6465 0.2528 0.0000
# 203 texture coords

g Cylinder001
usemtl 03___Default
s 1
f 1/1/1 2/2/2 3/3/3 4/4/4 
f 4/4/4 3/3/3 5/5/5 6/6/6 
f 6/7/6 5/8/5 7/9/7 8/10/8 
f 8/10/8 7/9/7 9/11/9 10/12/10 
f 9/11/9 11/13/11 12/14/12 10/12/10 
f 11/13/11 13/15/13 14/16/14 12/14/12 
f 13/17/13 15/18/15 16/19/16 14/20/14 
f 15/18/15 17/21/17 18/22/18 16/19/16 
f 18/22/18 17/21/17 2/2/2 1/1/1 
f 19/23/19 1/1/1 4/4/4 20/24/20 
f 20/24/20 4/4/4 6/6/6 21/25/21 
f 21/26/21 6/7/6 8/10/8 22/27/22 
f 22/27/22 8/10/8 10/12/10 23/28/23 
f 23/28/23 10/12/10 12/14/12 24/29/24 
f 25/30/25 24/29/24 12/14/12 14/16/14 
f 26/31/26 25/32/25 14/20/14 16/19/16 
f 27/33/27 26/31/26 16/19/16 18/22/18 
f 27/33/27 18/22/18 1/1/1 19/23/19 
f 28/34/28 19/23/19 20/24/20 29/35/29 
f 29/35/29 20/24/20 21/25/21 30/36/30 
f 30/37/30 21/26/21 22/27/22 31/38/31 
f 31/38/31 22/27/22 23/28/23 32/39/32 
f 32/39/32 23/28/23 24/29/24 33/40/33 
f 33/40/33 24/29/24 25/30/25 34/41/34 
f 35/42/35 34/43/34 25/32/25 26/31/26 
f 35/42/35 26/31/26 27/33/27 36/44/36 
f 36/44/36 27/33/27 19/23/19 28/34/28 
f 37/45/37 28/34/28 29/35/29 38/46/38 
f 38/46/38 29/35/29 30/36/30 39/47/39 
f 39/48/39 30/37/30 31/38/31 40/49/40 
f 40/49/40 31/38/31 32/39/32 41/50/41 
f 41/50/41 32/39/32 33/40/33 42/51/42 
f 42/51/42 33/40/33 34/41/34 43/52/43 
f 43/53/43 34/43/34 35/42/35 44/54/44 
f 44/54/44 35/42/35 36/44/36 45/55/45 
f 45/55/45 36/44/36 28/34/28 37/45/37 
f 46/56/46 37/45/37 38/46/38 47/57/47 
f 47/57/47 38/46/38 39/47/39 48/58/48 
f 48/59/48 39/48/39 40/49/40 49/60/49 
f 49/60/49 40/49/40 41/50/41 50/61/50 
f 50/61/50 41/50/41 42/51/42 51/62/51 
f 51/62/51 42/51/42 43/52/43 52/63/52 
f 52/64/52 43/53/43 44/54/44 53/65/53 
f 53/65/53 44/54/44 45/55/45 54/66/54 
f 54/66/54 45/55/45 37/45/37 46/56/46 
f 55/67/55 56/68/56 57/69/57 58/70/58 
f 59/71/59 60/72/60 61/73/61 57/69/57 
f 61/73/61 62/74/62 58/70/58 57/69/57 
f 55/67/55 58/70/58 63/75/63 
s 8
f 64/76/64 65/77/65 66/78/66 67/79/67 
f 68/80/68 69/81/69 70/82/70 66/78/66 
f 70/82/70 71/83/71 67/79/67 66/78/66 
f 64/76/64 67/79/67 72/84/72 
s 1
f 73/85/73 74/86/74 75/87/75 76/88/76 
f 75/87/75 77/89/77 78/90/78 76/88/76 
f 78/91/78 77/92/77 79/93/79 80/94/80 
f 80/94/80 79/93/79 81/95/81 82/96/82 
f 82/96/82 81/95/81 83/97/83 84/98/84 
f 83/97/83 85/99/85 86/100/86 84/98/84 
f 86/101/86 85/102/85 87/103/87 88/104/88 
f 88/104/88 87/103/87 89/105/89 90/106/90 
f 89/105/89 74/86/74 73/85/73 90/106/90 
f 91/107/91 73/85/73 76/88/76 92/108/92 
f 93/109/93 92/108/92 76/88/76 78/90/78 
f 93/110/93 78/91/78 80/94/80 94/111/94 
f 95/112/95 94/111/94 80/94/80 82/96/82 
f 95/112/95 82/96/82 84/98/84 96/113/96 
f 97/114/97 96/113/96 84/98/84 86/100/86 
f 97/115/97 86/101/86 88/104/88 98/116/98 
f 98/116/98 88/104/88 90/106/90 99/117/99 
f 91/107/91 99/117/99 90/106/90 73/85/73 
f 91/107/91 92/108/92 100/118/100 101/119/101 
f 100/118/100 92/108/92 93/109/93 102/120/102 
f 93/110/93 94/111/94 103/121/103 102/122/102 
f 94/111/94 95/112/95 104/123/104 103/121/103 
f 95/112/95 96/113/96 105/124/105 104/123/104 
f 96/113/96 97/114/97 106/125/106 105/124/105 
f 106/126/106 97/115/97 98/116/98 107/127/107 
f 98/116/98 99/117/99 108/128/108 107/127/107 
f 108/128/108 99/117/99 91/107/91 101/119/101 
f 47/57/47 75/87/75 74/86/74 46/56/46 
f 77/89/77 75/87/75 47/57/47 48/58/48 
f 49/60/49 79/93/79 77/92/77 48/59/48 
f 81/95/81 79/93/79 49/60/49 50/61/50 
f 83/97/83 81/95/81 50/61/50 51/62/51 
f 85/99/85 83/97/83 51/62/51 52/63/52 
f 87/103/87 85/102/85 52/64/52 53/65/53 
f 89/105/89 87/103/87 53/65/53 54/66/54 
f 74/86/74 89/105/89 54/66/54 46/56/46 
f 109/129/109 101/119/101 100/118/100 110/130/110 
f 111/131/111 110/130/110 100/118/100 102/120/102 
f 111/132/111 102/122/102 103/121/103 112/133/112 
f 113/134/113 112/133/112 103/121/103 104/123/104 
f 113/134/113 104/123/104 105/124/105 114/135/114 
f 115/136/115 114/135/114 105/124/105 106/125/106 
f 115/137/115 106/126/106 107/127/107 116/138/116 
f 116/138/116 107/127/107 108/128/108 117/139/117 
f 109/129/109 117/139/117 108/128/108 101/119/101 
s 8
f 118/140/118 109/129/119 110/130/120 119/141/121 
f 120/142/122 119/141/121 110/130/120 111/131/123 
f 120/143/122 111/132/123 112/133/124 121/144/125 
f 122/145/126 121/144/125 112/133/124 113/134/127 
f 122/145/126 113/134/127 114/135/128 123/146/129 
f 124/147/130 123/146/129 114/135/128 115/136/131 
f 124/148/130 115/137/131 116/138/132 125/149/133 
f 125/149/133 116/138/132 117/139/134 126/150/135 
f 118/140/118 126/150/135 117/139/134 109/129/119 
f 127/151/136 128/152/137 118/140/118 119/141/121 
f 129/153/138 127/151/136 119/141/121 120/142/122 
f 130/154/139 129/155/138 120/143/122 121/144/125 
f 131/156/140 130/154/139 121/144/125 122/145/126 
f 131/156/140 122/145/126 123/146/129 132/157/141 
f 132/157/141 123/146/129 124/147/130 133/158/142 
f 133/159/142 124/148/130 125/149/133 134/160/143 
f 134/160/143 125/149/133 126/150/135 135/161/144 
f 126/150/135 118/140/118 128/152/137 135/161/144 
f 136/162/145 137/163/146 138/164/147 139/165/148 
f 139/165/148 138/164/147 140/166/149 141/167/150 
f 141/168/150 140/169/149 142/170/151 143/171/152 
f 143/171/152 142/170/151 144/172/153 145/173/154 
f 145/173/154 144/172/153 146/174/155 147/175/156 
f 147/175/156 146/174/155 148/176/157 149/177/158 
f 149/178/158 148/179/157 150/180/159 151/181/160 
f 151/181/160 150/180/159 152/182/161 153/183/162 
f 153/183/162 152/182/161 137/163/146 136/162/145 
f 67/184/67 136/162/145 139/165/148 72/185/72 
f 72/185/72 139/165/148 141/167/150 64/186/64 
f 64/187/64 141/168/150 143/171/152 65/188/65 
f 65/188/65 143/171/152 145/173/154 66/189/66 
f 66/189/66 145/173/154 147/175/156 68/190/68 
f 68/190/68 147/175/156 149/177/158 69/191/69 
f 69/192/69 149/178/158 151/181/160 70/193/70 
f 70/193/70 151/181/160 153/183/162 71/194/71 
f 71/194/71 153/183/162 136/162/145 67/184/67 
s 1
f 58/70/58 2/195/2 17/196/17 63/75/63 
f 63/75/63 17/196/17 15/197/15 55/67/55 
f 55/67/55 15/197/15 13/198/13 56/68/56 
f 56/68/56 13/198/13 11/199/11 57/69/57 
f 57/69/57 11/199/11 9/200/9 59/71/59 
f 59/71/59 9/200/9 7/201/7 60/72/60 
f 60/72/60 7/201/7 5/202/5 61/73/61 
f 61/73/61 5/202/5 3/203/3 62/74/62 
f 62/74/62 3/203/3 2/195/2 58/70/58 
s 8
f 128/152/137 127/151/136 138/164/147 137/163/146 
f 127/151/136 129/153/138 140/166/149 138/164/147 
f 129/155/138 130/154/139 142/170/151 140/169/149 
f 131/156/140 144/172/153 142/170/151 130/154/139 
f 132/157/141 146/174/155 144/172/153 131/156/140 
f 133/158/142 148/176/157 146/174/155 132/157/141 
f 134/160/143 150/180/159 148/179/157 133/159/142 
f 135/161/144 152/182/161 150/180/159 134/160/143 
f 128/152/137 137/163/146 152/182/161 135/161/144 
# 150 polygons - 2 triangles

