# 3ds Max Wavefront OBJ Exporter v0.97b - (c)2007 guruware
# File Created: 26.11.2016 20:50:43

mtllib ChipBag_Txt.mtl

#
# object Box001
#

v  -13.0440 0.7242 0.5644
v  13.0344 0.7209 0.5618
v  9.4677 7.0571 5.5000
v  -9.5786 7.0571 5.5000
v  9.9257 14.1142 6.0853
v  -10.0378 14.1142 6.0853
v  9.9257 21.1713 6.0853
v  -10.0378 21.1713 6.0853
v  9.4677 28.2284 5.5000
v  -9.5786 28.2284 5.5000
v  13.0344 35.6197 0.5618
v  -13.0440 35.6164 0.5644
v  13.8289 1.7086 0.5513
v  12.5284 7.0571 0.9122
v  10.8775 7.0571 4.5878
v  13.8289 1.7086 -0.5513
v  10.8775 7.0571 -4.5878
v  12.5284 7.0571 -0.9122
v  13.1337 14.1142 1.0093
v  11.4033 14.1142 5.0760
v  11.4033 14.1142 -5.0760
v  13.1337 14.1142 -1.0093
v  13.1337 21.1713 1.0093
v  11.4033 21.1713 5.0760
v  11.4033 21.1713 -5.0760
v  13.1337 21.1713 -1.0093
v  12.5284 28.2284 0.9122
v  10.8775 28.2284 4.5878
v  10.8775 28.2284 -4.5878
v  12.5284 28.2284 -0.9122
v  13.8289 33.5769 0.5513
v  13.8289 33.5769 -0.5513
v  13.0344 0.7209 -0.5618
v  -13.0440 0.7242 -0.5644
v  -9.5786 7.0571 -5.5000
v  9.4677 7.0571 -5.5000
v  -10.0378 14.1142 -6.0853
v  9.9257 14.1142 -6.0853
v  -10.0378 21.1713 -6.0853
v  9.9257 21.1713 -6.0853
v  -9.5786 28.2284 -5.5000
v  9.4677 28.2284 -5.5000
v  -13.0440 35.6164 -0.5644
v  13.0344 35.6197 -0.5618
v  -13.8384 1.7122 -0.5532
v  -12.5439 7.0571 -0.9190
v  -10.9729 7.0571 -4.5810
v  -13.8384 1.7122 0.5532
v  -10.9729 7.0571 4.5810
v  -12.5439 7.0571 0.9190
v  -13.1458 14.1142 -1.0168
v  -11.4992 14.1142 -5.0685
v  -11.4992 14.1142 5.0685
v  -13.1458 14.1142 1.0168
v  -13.1458 21.1713 -1.0168
v  -11.4992 21.1713 -5.0685
v  -11.4992 21.1713 5.0685
v  -13.1458 21.1713 1.0168
v  -12.5439 28.2284 -0.9190
v  -10.9729 28.2284 -4.5810
v  -10.9729 28.2284 4.5810
v  -12.5439 28.2284 0.9190
v  -13.8384 33.5732 -0.5532
v  -13.8384 33.5732 0.5532
v  10.0688 7.0571 5.3986
v  13.5671 0.8305 0.5608
v  -13.5766 0.8338 0.5633
v  -10.1780 7.0571 5.3979
v  10.5557 14.1142 5.9732
v  -10.6660 14.1142 5.9724
v  10.5557 21.1713 5.9732
v  -10.6660 21.1713 5.9724
v  10.0688 28.2284 5.3986
v  -10.1780 28.2284 5.3979
v  13.5671 35.5101 0.5608
v  -13.5766 35.5067 0.5633
v  10.5387 7.0571 -5.0946
v  13.8319 1.1595 -0.5576
v  11.0483 14.1142 -5.6368
v  11.0483 21.1713 -5.6368
v  10.5387 28.2284 -5.0946
v  13.8319 35.1811 -0.5576
v  -10.1780 7.0571 -5.3979
v  -13.5766 0.8338 -0.5633
v  -10.6660 14.1142 -5.9724
v  -10.6660 21.1713 -5.9724
v  -10.1780 28.2284 -5.3979
v  -13.5766 35.5067 -0.5633
v  10.5387 7.0571 5.0946
v  13.8319 1.1595 0.5576
v  -13.8414 1.1629 0.5599
v  -10.6428 7.0571 5.0916
v  11.0483 14.1142 5.6368
v  -11.1531 14.1142 5.6334
v  11.0483 21.1713 5.6368
v  -11.1531 21.1713 5.6334
v  10.5387 28.2284 5.0946
v  -10.6428 28.2284 5.0916
v  13.8319 35.1811 0.5576
v  -13.8414 35.1776 0.5599
v  10.0688 7.0571 -5.3986
v  13.5671 0.8305 -0.5608
v  10.5557 14.1142 -5.9732
v  10.5557 21.1713 -5.9732
v  10.0688 28.2284 -5.3986
v  13.5671 35.5101 -0.5608
v  -10.6428 7.0571 -5.0916
v  -13.8414 1.1629 -0.5599
v  -11.1531 14.1142 -5.6334
v  -11.1531 21.1713 -5.6334
v  -10.6428 28.2284 -5.0916
v  -13.8414 35.1776 -0.5599
# 112 vertices

vn -0.0978 -0.8925 0.4403
vn 0.0980 -0.8921 0.4411
vn 0.0669 -0.3509 0.9340
vn -0.0675 -0.3510 0.9339
vn 0.0894 -0.0440 0.9950
vn -0.0902 -0.0439 0.9950
vn 0.0893 0.0438 0.9950
vn -0.0904 0.0441 0.9949
vn 0.0679 0.3176 0.9458
vn -0.0693 0.3178 0.9456
vn 0.0952 0.8781 0.4690
vn -0.0955 0.8778 0.4694
vn 0.9573 0.0903 0.2748
vn 0.9738 0.0672 0.2170
vn 0.8661 -0.0083 0.4998
vn 0.9577 0.0905 -0.2733
vn 0.8655 -0.0097 -0.5008
vn 0.9744 0.0651 -0.2153
vn 0.9786 -0.0449 0.2009
vn 0.8839 -0.0493 0.4651
vn 0.8834 -0.0470 -0.4663
vn 0.9790 -0.0430 -0.1994
vn 0.9790 0.0430 0.1994
vn 0.8834 0.0470 0.4663
vn 0.8839 0.0493 -0.4651
vn 0.9786 0.0449 -0.2009
vn 0.9744 -0.0651 0.2153
vn 0.8655 0.0097 0.5008
vn 0.8658 0.0107 -0.5003
vn 0.9738 -0.0672 -0.2170
vn 0.9571 -0.0869 0.2764
vn 0.9566 -0.0866 -0.2783
vn 0.0979 -0.8923 -0.4407
vn -0.0980 -0.8923 -0.4407
vn -0.0678 -0.3510 -0.9339
vn 0.0666 -0.3510 -0.9340
vn -0.0904 -0.0441 -0.9949
vn 0.0893 -0.0438 -0.9950
vn -0.0902 0.0439 -0.9950
vn 0.0894 0.0440 -0.9950
vn -0.0688 0.3177 -0.9457
vn 0.0684 0.3177 -0.9457
vn -0.0951 0.8782 -0.4687
vn 0.0955 0.8777 -0.4696
vn -0.9591 0.0900 -0.2684
vn -0.9757 0.0673 -0.2083
vn -0.8740 -0.0073 -0.4859
vn -0.9595 0.0903 0.2668
vn -0.8734 -0.0086 0.4869
vn -0.9762 0.0653 0.2067
vn -0.9802 -0.0447 -0.1930
vn -0.8910 -0.0491 -0.4513
vn -0.8906 -0.0469 0.4524
vn -0.9806 -0.0428 0.1915
vn -0.9806 0.0428 -0.1915
vn -0.8906 0.0469 -0.4524
vn -0.8910 0.0491 0.4513
vn -0.9802 0.0447 0.1930
vn -0.9762 -0.0653 -0.2067
vn -0.8734 0.0086 -0.4869
vn -0.8737 0.0098 0.4864
vn -0.9757 -0.0673 0.2083
vn -0.9589 -0.0866 -0.2701
vn -0.9584 -0.0863 0.2720
vn 0.3141 -0.3000 0.9007
vn 0.4703 -0.7694 0.4323
vn -0.4704 -0.7705 0.4302
vn -0.3182 -0.3001 0.8993
vn 0.3795 -0.0504 0.9238
vn -0.3841 -0.0499 0.9219
vn 0.3793 0.0498 0.9239
vn -0.3843 0.0505 0.9218
vn 0.3186 0.2687 0.9090
vn -0.3235 0.2697 0.9070
vn 0.4631 0.7625 0.4518
vn -0.4632 0.7622 0.4522
vn 0.6596 -0.1698 -0.7322
vn 0.8580 -0.3318 -0.3921
vn 0.7179 -0.0516 -0.6942
vn 0.7179 0.0526 -0.6942
vn 0.6646 0.1510 -0.7318
vn 0.8489 0.3332 -0.4104
vn -0.3186 -0.3003 -0.8991
vn -0.4704 -0.7700 -0.4311
vn -0.3843 -0.0505 -0.9218
vn -0.3841 0.0499 -0.9219
vn -0.3231 0.2690 -0.9074
vn -0.4631 0.7631 -0.4508
vn 0.6594 -0.1707 0.7321
vn 0.8575 -0.3316 0.3935
vn -0.8590 -0.3326 0.3892
vn -0.6680 -0.1696 0.7246
vn 0.7179 -0.0526 0.6942
vn -0.7260 -0.0516 0.6858
vn 0.7179 0.0516 0.6942
vn -0.7259 0.0525 0.6858
vn 0.6646 0.1492 0.7322
vn -0.6730 0.1509 0.7241
vn 0.8498 0.3335 0.4081
vn -0.8497 0.3340 0.4080
vn 0.3137 -0.2999 -0.9009
vn 0.4703 -0.7699 -0.4314
vn 0.3793 -0.0498 -0.9239
vn 0.3795 0.0504 -0.9238
vn 0.3190 0.2694 -0.9087
vn 0.4631 0.7617 -0.4531
vn -0.6678 -0.1706 -0.7245
vn -0.8584 -0.3324 -0.3907
vn -0.7259 -0.0525 -0.6858
vn -0.7260 0.0516 -0.6858
vn -0.6730 0.1490 -0.7245
vn -0.8507 0.3343 -0.4056
# 112 vertex normals

vt 0.2256 0.5227 0.0000
vt 0.2255 0.1494 0.0000
vt 0.3347 0.2034 0.0000
vt 0.3340 0.4678 0.0000
vt 0.4321 0.1967 0.0000
vt 0.4318 0.4721 0.0000
vt 0.5295 0.1972 0.0000
vt 0.5297 0.4725 0.0000
vt 0.6269 0.2049 0.0000
vt 0.6279 0.4697 0.0000
vt 0.7482 0.1512 0.0000
vt 0.7479 0.5265 0.0000
vt 0.2523 0.1220 0.0000
vt 0.3315 0.1237 0.0000
vt 0.3344 0.1806 0.0000
vt 0.2539 0.1072 0.0000
vt 0.3323 0.0403 0.0000
vt 0.3318 0.0970 0.0000
vt 0.4319 0.1187 0.0000
vt 0.4323 0.1780 0.0000
vt 0.4326 0.0318 0.0000
vt 0.4324 0.0925 0.0000
vt 0.5316 0.1195 0.0000
vt 0.5297 0.1786 0.0000
vt 0.5337 0.0329 0.0000
vt 0.5321 0.0935 0.0000
vt 0.6319 0.1267 0.0000
vt 0.6274 0.1832 0.0000
vt 0.6340 0.0439 0.0000
vt 0.6326 0.1002 0.0000
vt 0.7107 0.1266 0.0000
vt 0.7107 0.1124 0.0000
vt 0.2198 0.9479 0.0000
vt 0.2238 0.5802 0.0000
vt 0.3308 0.6364 0.0000
vt 0.3309 0.9002 0.0000
vt 0.4284 0.6332 0.0000
vt 0.4284 0.9095 0.0000
vt 0.5259 0.6329 0.0000
vt 0.5258 0.9093 0.0000
vt 0.6237 0.6348 0.0000
vt 0.6231 0.8989 0.0000
vt 0.7424 0.5754 0.0000
vt 0.7476 0.9415 0.0000
vt 0.2475 0.5603 0.0000
vt 0.3270 0.5654 0.0000
vt 0.3292 0.6196 0.0000
vt 0.2482 0.5459 0.0000
vt 0.3304 0.4863 0.0000
vt 0.3274 0.5404 0.0000
vt 0.4281 0.5644 0.0000
vt 0.4283 0.6205 0.0000
vt 0.4300 0.4849 0.0000
vt 0.4286 0.5411 0.0000
vt 0.5284 0.5647 0.0000
vt 0.5270 0.6207 0.0000
vt 0.5294 0.4852 0.0000
vt 0.5289 0.5414 0.0000
vt 0.6293 0.5666 0.0000
vt 0.6259 0.6204 0.0000
vt 0.6289 0.4880 0.0000
vt 0.6299 0.5420 0.0000
vt 0.7084 0.5624 0.0000
vt 0.7090 0.5491 0.0000
vt 0.3344 0.1963 0.0000
vt 0.2317 0.1345 0.0000
vt 0.2312 0.5405 0.0000
vt 0.3326 0.4744 0.0000
vt 0.4322 0.1904 0.0000
vt 0.4314 0.4766 0.0000
vt 0.5294 0.1908 0.0000
vt 0.5297 0.4767 0.0000
vt 0.6270 0.1978 0.0000
vt 0.6290 0.4767 0.0000
vt 0.7422 0.1354 0.0000
vt 0.7431 0.5482 0.0000
vt 0.3326 0.0320 0.0000
vt 0.2458 0.1072 0.0000
vt 0.4328 0.0227 0.0000
vt 0.5338 0.0237 0.0000
vt 0.6341 0.0358 0.0000
vt 0.7344 0.1144 0.0000
vt 0.3301 0.6309 0.0000
vt 0.2283 0.5668 0.0000
vt 0.4284 0.6287 0.0000
vt 0.5261 0.6287 0.0000
vt 0.6242 0.6303 0.0000
vt 0.7378 0.5667 0.0000
vt 0.3343 0.1891 0.0000
vt 0.2420 0.1240 0.0000
vt 0.2384 0.5451 0.0000
vt 0.3315 0.4801 0.0000
vt 0.4322 0.1847 0.0000
vt 0.4308 0.4803 0.0000
vt 0.5295 0.1851 0.0000
vt 0.5295 0.4805 0.0000
vt 0.6272 0.1912 0.0000
vt 0.6290 0.4821 0.0000
vt 0.7347 0.1305 0.0000
vt 0.7339 0.5488 0.0000
vt 0.3300 0.9084 0.0000
vt 0.3285 0.9164 0.0000
vt 0.2235 0.9607 0.0000
vt 0.2197 0.9563 0.0000
vt 0.4281 0.9176 0.0000
vt 0.4277 0.9255 0.0000
vt 0.5261 0.9175 0.0000
vt 0.5264 0.9254 0.0000
vt 0.6240 0.9081 0.0000
vt 0.6256 0.9162 0.0000
vt 0.7487 0.9490 0.0000
vt 0.7450 0.9536 0.0000
vt 0.3296 0.6257 0.0000
vt 0.2370 0.5614 0.0000
vt 0.4284 0.6251 0.0000
vt 0.5264 0.6252 0.0000
vt 0.6250 0.6259 0.0000
vt 0.7322 0.5641 0.0000
vt 0.2045 0.9457 0.0000
vt 0.2092 0.5794 0.0000
vt 0.7546 0.5674 0.0000
vt 0.7630 0.9377 0.0000
vt 0.2101 0.5701 0.0000
vt 0.2036 0.9536 0.0000
vt 0.2364 0.1219 0.0000
vt 0.2399 0.1066 0.0000
vt 0.7644 0.9454 0.0000
vt 0.7416 0.1165 0.0000
# 128 texture coords

g Box001
usemtl 02___Default
s 1
f 1/1/1 2/2/2 3/3/3 4/4/4 
f 4/4/4 3/3/3 5/5/5 6/6/6 
f 6/6/6 5/5/5 7/7/7 8/8/8 
f 8/8/8 7/7/7 9/9/9 10/10/10 
f 10/10/10 9/9/9 11/11/11 12/12/12 
f 13/13/13 14/14/14 15/15/15 
f 16/16/16 17/17/17 18/18/18 
f 15/15/15 14/14/14 19/19/19 20/20/20 
f 18/18/18 17/17/17 21/21/21 22/22/22 
f 20/20/20 19/19/19 23/23/23 24/24/24 
f 22/22/22 21/21/21 25/25/25 26/26/26 
f 24/24/24 23/23/23 27/27/27 28/28/28 
f 26/26/26 25/25/25 29/29/29 30/30/30 
f 28/28/28 27/27/27 31/31/31 
f 30/30/30 29/29/29 32/32/32 
f 33/33/33 34/34/34 35/35/35 36/36/36 
f 36/36/36 35/35/35 37/37/37 38/38/38 
f 38/38/38 37/37/37 39/39/39 40/40/40 
f 40/40/40 39/39/39 41/41/41 42/42/42 
f 42/42/42 41/41/41 43/43/43 44/44/44 
f 45/45/45 46/46/46 47/47/47 
f 48/48/48 49/49/49 50/50/50 
f 47/47/47 46/46/46 51/51/51 52/52/52 
f 50/50/50 49/49/49 53/53/53 54/54/54 
f 52/52/52 51/51/51 55/55/55 56/56/56 
f 54/54/54 53/53/53 57/57/57 58/58/58 
f 56/56/56 55/55/55 59/59/59 60/60/60 
f 58/58/58 57/57/57 61/61/61 62/62/62 
f 60/60/60 59/59/59 63/63/63 
f 62/62/62 61/61/61 64/64/64 
f 65/65/65 3/3/3 2/2/2 66/66/66 
f 67/67/67 1/1/1 4/4/4 68/68/68 
f 69/69/69 5/5/5 3/3/3 65/65/65 
f 68/68/68 4/4/4 6/6/6 70/70/70 
f 71/71/71 7/7/7 5/5/5 69/69/69 
f 70/70/70 6/6/6 8/8/8 72/72/72 
f 73/73/73 9/9/9 7/7/7 71/71/71 
f 72/72/72 8/8/8 10/10/10 74/74/74 
f 75/75/75 11/11/11 9/9/9 73/73/73 
f 74/74/74 10/10/10 12/12/12 76/76/76 
f 77/77/77 17/17/17 16/16/16 78/78/78 
f 79/79/79 21/21/21 17/17/17 77/77/77 
f 80/80/80 25/25/25 21/21/21 79/79/79 
f 81/81/81 29/29/29 25/25/25 80/80/80 
f 82/82/82 32/32/32 29/29/29 81/81/81 
f 83/83/83 35/35/35 34/34/34 84/84/84 
f 85/85/85 37/37/37 35/35/35 83/83/83 
f 86/86/86 39/39/39 37/37/37 85/85/85 
f 87/87/87 41/41/41 39/39/39 86/86/86 
f 88/88/88 43/43/43 41/41/41 87/87/87 
f 89/89/89 65/65/65 66/66/66 90/90/90 
f 15/15/15 89/89/89 90/90/90 13/13/13 
f 91/91/91 67/67/67 68/68/68 92/92/92 
f 48/48/48 91/91/91 92/92/92 49/49/49 
f 93/93/93 69/69/69 65/65/65 89/89/89 
f 20/20/20 93/93/93 89/89/89 15/15/15 
f 92/92/92 68/68/68 70/70/70 94/94/94 
f 49/49/49 92/92/92 94/94/94 53/53/53 
f 95/95/95 71/71/71 69/69/69 93/93/93 
f 24/24/24 95/95/95 93/93/93 20/20/20 
f 94/94/94 70/70/70 72/72/72 96/96/96 
f 53/53/53 94/94/94 96/96/96 57/57/57 
f 97/97/97 73/73/73 71/71/71 95/95/95 
f 28/28/28 97/97/97 95/95/95 24/24/24 
f 96/96/96 72/72/72 74/74/74 98/98/98 
f 57/57/57 96/96/96 98/98/98 61/61/61 
f 99/99/99 75/75/75 73/73/73 97/97/97 
f 31/31/31 99/99/99 97/97/97 28/28/28 
f 98/98/98 74/74/74 76/76/76 100/100/100 
f 61/61/61 98/98/98 100/100/100 64/64/64 
f 101/101/101 77/102/77 78/103/78 102/104/102 
f 36/36/36 101/101/101 102/104/102 33/33/33 
f 103/105/103 79/106/79 77/102/77 101/101/101 
f 38/38/38 103/105/103 101/101/101 36/36/36 
f 104/107/104 80/108/80 79/106/79 103/105/103 
f 40/40/40 104/107/104 103/105/103 38/38/38 
f 105/109/105 81/110/81 80/108/80 104/107/104 
f 42/42/42 105/109/105 104/107/104 40/40/40 
f 106/111/106 82/112/82 81/110/81 105/109/105 
f 44/44/44 106/111/106 105/109/105 42/42/42 
f 107/113/107 83/83/83 84/84/84 108/114/108 
f 47/47/47 107/113/107 108/114/108 45/45/45 
f 109/115/109 85/85/85 83/83/83 107/113/107 
f 52/52/52 109/115/109 107/113/107 47/47/47 
f 110/116/110 86/86/86 85/85/85 109/115/109 
f 56/56/56 110/116/110 109/115/109 52/52/52 
f 111/117/111 87/87/87 86/86/86 110/116/110 
f 60/60/60 111/117/111 110/116/110 56/56/56 
f 112/118/112 88/88/88 87/87/87 111/117/111 
f 63/63/63 112/118/112 111/117/111 60/60/60 
f 33/33/33 2/119/2 1/120/1 34/34/34 
f 43/43/43 12/121/12 11/122/11 44/44/44 
f 13/13/13 16/16/16 18/18/18 14/14/14 
f 14/14/14 18/18/18 22/22/22 19/19/19 
f 19/19/19 22/22/22 26/26/26 23/23/23 
f 23/23/23 26/26/26 30/30/30 27/27/27 
f 27/27/27 30/30/30 32/32/32 31/31/31 
f 45/45/45 48/48/48 50/50/50 46/46/46 
f 46/46/46 50/50/50 54/54/54 51/51/51 
f 51/51/51 54/54/54 58/58/58 55/55/55 
f 55/55/55 58/58/58 62/62/62 59/59/59 
f 59/59/59 62/62/62 64/64/64 63/63/63 
f 48/48/48 45/45/45 108/114/108 91/91/91 
f 16/16/16 13/13/13 90/90/90 78/78/78 
f 31/31/31 32/32/32 82/82/82 99/99/99 
f 63/63/63 64/64/64 100/100/100 112/118/112 
f 67/123/67 84/84/84 34/34/34 1/120/1 
f 91/91/91 108/114/108 84/84/84 67/67/67 
f 102/104/102 66/124/66 2/119/2 33/33/33 
f 78/78/78 90/90/90 66/125/66 102/126/102 
f 75/127/75 106/111/106 44/44/44 11/122/11 
f 99/99/99 82/82/82 106/128/106 75/75/75 
f 88/88/88 76/76/76 12/121/12 43/43/43 
f 112/118/112 100/100/100 76/76/76 88/88/88 
# 106 polygons - 8 triangles

