# 3ds Max Wavefront OBJ Exporter v0.97b - (c)2007 guruware
# File Created: 26.11.2016 16:12:58

mtllib Flour_Txt.mtl

#
# object Box001
#

v  -11.6286 1.3610 -3.8838
v  -14.8479 1.3592 -3.4522
v  -14.6422 1.3592 -7.4245
v  -11.5188 1.3666 -7.4690
v  -15.3018 1.3592 5.4877
v  -12.1408 1.3719 7.0962
v  -14.5928 1.3644 7.6613
v  -11.4011 1.3592 8.9904
v  -5.3665 1.3604 -4.7556
v  -5.3505 1.3722 -8.7199
v  -5.6668 1.3663 6.6503
v  -5.9355 1.3725 10.2782
v  -2.3545 1.3874 -5.1016
v  -2.1798 1.3755 -8.9980
v  -2.6107 1.3809 6.4421
v  -2.7361 1.3826 9.9688
v  4.0500 1.3768 -5.8155
v  4.2230 1.3819 -9.7403
v  3.6875 1.3819 5.7485
v  3.6283 1.3919 9.3998
v  7.2868 1.3788 -6.4341
v  7.4053 1.3866 -9.9957
v  6.8409 1.3754 5.0677
v  6.7723 1.3777 8.5936
v  13.5742 1.3592 -7.3620
v  13.7002 1.3605 -11.0974
v  13.1858 1.3709 3.7593
v  13.0273 1.3680 7.1831
v  14.9768 1.3609 -9.7002
v  16.8271 1.3592 -7.4753
v  16.3298 1.3592 3.3486
v  15.0096 1.3592 6.6135
v  -12.5381 53.1196 -4.1472
v  -12.1734 52.4459 -7.6510
v  -14.5512 53.0538 -6.6440
v  -15.7733 52.9003 -3.8641
v  -13.4057 52.5801 6.8357
v  -16.3593 51.8064 7.1266
v  -15.5177 51.2298 9.0124
v  -13.6978 50.9875 9.7592
v  -6.0974 53.3979 -4.6774
v  -5.8056 51.5452 -7.9411
v  -7.1412 53.0762 6.8155
v  -7.3224 50.9938 9.8717
v  -2.9886 52.6564 -4.6979
v  -2.7055 50.8049 -7.7563
v  -3.9949 52.8938 6.0575
v  -4.2194 50.8046 8.6485
v  3.1633 51.7789 -5.0437
v  3.5204 50.5133 -8.3605
v  2.4042 53.0735 5.8417
v  2.1655 51.2060 8.7160
v  6.2794 52.3434 -5.3711
v  6.7656 50.0636 -8.0620
v  5.5884 53.1352 5.2676
v  5.3728 51.4959 8.5186
v  12.4619 52.6223 -6.6195
v  12.7311 51.1167 -9.5795
v  11.9914 53.0516 4.3177
v  11.7330 52.3735 7.8523
v  14.4797 51.4679 -9.4417
v  15.5036 52.0809 -7.1690
v  15.2258 53.0438 4.3079
v  13.6536 52.9219 6.6928
v  -14.5269 5.2445 -7.0786
v  -15.5537 4.8535 -3.0960
v  -16.3678 4.6175 5.5071
v  -15.4890 4.2727 7.9878
v  -17.6783 18.0881 -4.8732
v  -15.3941 18.5019 -7.4106
v  -18.2192 17.1072 4.8693
v  -15.7392 16.8803 7.1206
v  -15.2577 28.7273 -5.3789
v  -18.1083 28.7419 -4.2085
v  -18.3727 27.6444 5.3884
v  -15.8458 27.3755 7.4019
v  -17.4775 39.4531 -4.0619
v  -15.4794 39.5209 -6.7493
v  -18.2480 38.4628 6.1253
v  -15.9344 38.0135 8.2088
v  -11.0559 4.7514 9.2719
v  -5.7121 5.3725 10.8741
v  -2.5064 5.2677 10.9319
v  3.9074 5.1559 10.2425
v  7.1026 5.1735 9.5058
v  12.2859 5.2763 7.7048
v  14.9911 5.3785 7.5585
v  -12.7905 16.8604 6.1618
v  -6.3779 16.7476 5.6342
v  -3.1546 16.7622 6.1234
v  3.2770 17.0279 7.5139
v  6.4610 17.2821 8.0325
v  12.7105 17.9165 8.5743
v  15.5798 18.5684 9.0295
v  -12.7382 27.4957 7.0665
v  -6.4078 27.6177 7.8177
v  -3.2466 27.4971 7.7410
v  3.1120 27.5265 8.5132
v  6.0106 28.0193 9.9602
v  11.8811 28.7645 8.6614
v  15.0072 29.0215 8.5021
v  -13.0822 37.8607 9.9076
v  -6.7283 37.7461 10.9846
v  -3.5171 37.8358 11.2161
v  2.8726 38.1802 11.2901
v  6.0330 38.4323 10.9106
v  11.8623 39.3629 8.0702
v  14.7374 39.7393 7.0804
v  17.5634 5.2046 3.2358
v  18.6342 4.7531 -5.9960
v  15.3979 4.0378 -8.3614
v  17.5896 18.3246 5.3419
v  16.8919 17.2571 -7.0280
v  14.9943 17.0404 -8.7749
v  17.2773 28.8503 5.4198
v  17.7948 27.7414 -7.1859
v  15.4181 27.4024 -9.8360
v  17.2087 39.6805 4.6579
v  17.0302 38.5584 -6.1526
v  15.0176 38.0773 -8.8327
v  12.8116 4.3883 -8.9384
v  6.9527 5.6853 -10.9880
v  3.7838 5.7322 -10.5546
v  -2.6364 5.4580 -10.4451
v  -5.8488 5.3833 -10.1625
v  -11.1738 5.4612 -8.6307
v  11.8605 16.9983 -9.6421
v  5.8675 16.8949 -8.1004
v  2.6639 16.8456 -8.5505
v  -3.7387 16.9600 -7.9149
v  -6.9592 17.1428 -7.1387
v  -12.6938 18.3731 -7.7751
v  12.2276 27.2086 -10.5141
v  5.8266 27.0884 -10.3205
v  2.6227 27.1119 -10.0929
v  -3.5584 27.5617 -10.7607
v  -6.3649 28.0388 -8.9218
v  -12.5940 28.5070 -7.1218
v  12.2976 37.9018 -10.8983
v  6.0283 37.8982 -12.0091
v  2.8229 37.9754 -11.8270
v  -3.5650 38.2610 -11.0729
v  -6.7286 38.4655 -10.3980
v  -12.3489 39.2761 -8.5101
# 144 vertices

vn 0.0005 -1.0000 -0.0003
vn 0.0006 -1.0000 0.0000
vn 0.0015 -1.0000 -0.0008
vn 0.0010 -1.0000 -0.0018
vn 0.0031 -1.0000 0.0011
vn 0.0009 -1.0000 -0.0027
vn 0.0028 -1.0000 -0.0010
vn 0.0001 -1.0000 -0.0048
vn 0.0043 -1.0000 -0.0013
vn 0.0025 -1.0000 -0.0010
vn 0.0024 -1.0000 0.0007
vn 0.0027 -1.0000 0.0019
vn 0.0030 -1.0000 0.0005
vn 0.0003 -1.0000 0.0023
vn 0.0029 -1.0000 0.0005
vn 0.0029 -1.0000 0.0010
vn -0.0002 -1.0000 -0.0002
vn 0.0009 -1.0000 -0.0015
vn -0.0012 -1.0000 0.0011
vn -0.0012 -1.0000 0.0023
vn -0.0011 -1.0000 -0.0009
vn -0.0014 -1.0000 -0.0019
vn -0.0014 -1.0000 0.0002
vn -0.0023 -1.0000 0.0013
vn -0.0019 -1.0000 -0.0002
vn -0.0025 -1.0000 -0.0004
vn -0.0026 -1.0000 -0.0004
vn -0.0025 -1.0000 -0.0007
vn 0.0004 -1.0000 -0.0005
vn -0.0000 -1.0000 -0.0003
vn -0.0033 -1.0000 -0.0001
vn -0.0044 -1.0000 -0.0013
vn -0.0297 0.9987 -0.0425
vn -0.1263 0.5962 -0.7928
vn -0.4732 0.6775 -0.5631
vn -0.7118 0.6870 -0.1462
vn -0.1194 0.9575 0.2625
vn -0.7427 0.6234 0.2442
vn -0.5304 0.4784 0.6998
vn -0.1649 0.4655 0.8696
vn 0.1088 0.9704 -0.2157
vn 0.0882 0.5607 -0.8233
vn 0.0492 0.9397 0.3386
vn 0.1363 0.4811 0.8660
vn 0.1611 0.9480 -0.2744
vn 0.0718 0.5945 -0.8009
vn 0.0547 0.9484 0.3123
vn 0.1362 0.5139 0.8470
vn -0.0503 0.9668 -0.2506
vn 0.0092 0.6291 -0.7773
vn 0.0010 0.9703 0.2418
vn -0.0076 0.5457 0.8379
vn -0.1000 0.9420 -0.3205
vn -0.0355 0.5225 -0.8519
vn -0.0164 0.9875 0.1567
vn 0.0539 0.5567 0.8290
vn -0.0403 0.9628 -0.2671
vn -0.1245 0.4954 -0.8597
vn -0.0137 0.9990 0.0414
vn 0.1851 0.5891 0.7865
vn 0.4115 0.5008 -0.7615
vn 0.7161 0.6502 -0.2540
vn 0.6762 0.7036 0.2183
vn 0.4243 0.6964 0.5788
vn -0.7302 -0.0944 -0.6767
vn -0.6798 0.0850 -0.7284
vn -0.9856 -0.1277 -0.1105
vn -0.9697 -0.1833 -0.1617
vn -0.9481 -0.2992 0.1073
vn -0.9732 -0.1873 0.1331
vn -0.6926 -0.0817 0.7167
vn -0.6801 -0.2854 0.6753
vn -0.9180 -0.0390 -0.3947
vn -0.4829 0.0367 -0.8749
vn -0.9314 -0.0768 0.3558
vn -0.2312 -0.0105 0.9728
vn -0.5002 0.0329 -0.8653
vn -0.8285 0.0226 -0.5595
vn -0.9118 -0.0339 0.4093
vn -0.2752 -0.0694 0.9589
vn -0.9300 0.0611 -0.3624
vn -0.6638 -0.0092 -0.7479
vn -0.9307 0.0360 0.3641
vn -0.5690 -0.0781 0.8186
vn -0.2738 -0.0872 0.9578
vn -0.2536 0.1071 0.9614
vn -0.0894 -0.1284 0.9877
vn -0.1426 0.1251 0.9818
vn 0.0650 -0.2165 0.9741
vn 0.0192 0.0450 0.9988
vn 0.1671 -0.2309 0.9585
vn 0.1694 -0.0031 0.9855
vn 0.2567 -0.2115 0.9431
vn 0.2623 -0.0389 0.9642
vn 0.1529 -0.0660 0.9860
vn 0.2057 -0.1439 0.9680
vn 0.5109 -0.1194 0.8513
vn 0.6488 -0.2181 0.7290
vn 0.1589 0.0573 0.9856
vn -0.0663 0.1078 0.9920
vn -0.1748 0.1267 0.9764
vn -0.1400 0.0631 0.9881
vn -0.1048 -0.0485 0.9933
vn -0.0792 -0.0795 0.9937
vn 0.4502 -0.0448 0.8918
vn -0.0141 -0.1563 0.9876
vn -0.0563 -0.2489 0.9669
vn -0.0670 -0.2348 0.9697
vn -0.2424 -0.1998 0.9494
vn -0.1018 -0.1424 0.9846
vn 0.1483 0.0144 0.9888
vn 0.4742 0.0809 0.8767
vn -0.3254 -0.1243 0.9374
vn -0.1007 -0.0903 0.9908
vn -0.0463 -0.0520 0.9976
vn 0.0280 0.0038 0.9996
vn 0.2502 0.0737 0.9654
vn 0.3330 0.0871 0.9389
vn 0.5447 0.0855 0.8343
vn 0.9560 -0.1209 0.2672
vn 0.9188 -0.3124 0.2413
vn 0.9381 -0.1193 -0.3251
vn 0.8483 -0.1135 -0.5172
vn 0.4757 0.1261 -0.8705
vn 0.5969 0.4168 -0.6855
vn 0.9682 -0.0254 0.2489
vn 0.9063 -0.0240 -0.4220
vn 0.4760 -0.0518 -0.8779
vn 0.9431 0.0573 0.3274
vn 0.9350 0.0157 -0.3544
vn 0.5148 -0.0300 -0.8568
vn 0.9260 0.0842 0.3679
vn 0.9512 0.0699 -0.3004
vn 0.6947 0.0683 -0.7160
vn 0.2261 0.1894 -0.9555
vn 0.2641 0.6101 -0.7470
vn 0.0481 -0.0767 -0.9959
vn 0.0485 -0.0270 -0.9985
vn -0.1064 -0.2064 -0.9727
vn -0.0810 -0.0059 -0.9967
vn -0.0623 -0.3103 -0.9486
vn -0.0562 -0.0762 -0.9955
vn -0.1537 -0.3298 -0.9315
vn -0.1854 -0.0747 -0.9798
vn -0.2981 -0.0752 -0.9516
vn -0.1984 -0.1488 -0.9688
vn 0.0662 -0.0355 -0.9972
vn -0.0604 -0.0008 -0.9982
vn 0.0130 0.0118 -0.9998
vn -0.1650 0.0235 -0.9860
vn -0.0834 0.0112 -0.9965
vn -0.0688 -0.0015 -0.9976
vn 0.1133 -0.0866 -0.9898
vn -0.0577 -0.1494 -0.9871
vn -0.0065 -0.1732 -0.9849
vn -0.2587 -0.1611 -0.9524
vn -0.3708 -0.1001 -0.9233
vn -0.4083 -0.0006 -0.9128
vn 0.3447 0.0915 -0.9342
vn 0.0402 0.0938 -0.9948
vn -0.0585 0.0871 -0.9945
vn -0.1748 0.0940 -0.9801
vn -0.2451 0.0426 -0.9686
vn -0.3861 0.0038 -0.9225
# 164 vertex normals

vt 0.2321 0.1015 0.0000
vt 0.1897 0.1015 0.0000
vt 0.1897 0.0505 0.0000
vt 0.2321 0.0505 0.0000
vt 0.1897 0.2353 0.0000
vt 0.2321 0.2353 0.0000
vt 0.1897 0.2666 0.0000
vt 0.2321 0.2666 0.0000
vt 0.2787 0.1015 0.0000
vt 0.2787 0.0505 0.0000
vt 0.2787 0.2353 0.0000
vt 0.2787 0.2666 0.0000
vt 0.3254 0.1015 0.0000
vt 0.3254 0.0505 0.0000
vt 0.3254 0.2353 0.0000
vt 0.3254 0.2666 0.0000
vt 0.3704 0.1015 0.0000
vt 0.3704 0.0505 0.0000
vt 0.3704 0.2353 0.0000
vt 0.3704 0.2666 0.0000
vt 0.4154 0.1015 0.0000
vt 0.4154 0.0505 0.0000
vt 0.4154 0.2353 0.0000
vt 0.4154 0.2666 0.0000
vt 0.4534 0.1015 0.0000
vt 0.4534 0.0505 0.0000
vt 0.4534 0.2353 0.0000
vt 0.4534 0.2666 0.0000
vt 0.4815 0.0505 0.0000
vt 0.4815 0.1015 0.0000
vt 0.4815 0.2353 0.0000
vt 0.4815 0.2666 0.0000
vt 0.2321 0.8891 0.0000
vt 0.2321 0.9173 0.0000
vt 0.1897 0.9173 0.0000
vt 0.1897 0.8891 0.0000
vt 0.2321 0.8249 0.0000
vt 0.1897 0.8249 0.0000
vt 0.1897 0.7932 0.0000
vt 0.2321 0.7932 0.0000
vt 0.2787 0.8891 0.0000
vt 0.2787 0.9173 0.0000
vt 0.2787 0.8249 0.0000
vt 0.2787 0.7932 0.0000
vt 0.3254 0.8891 0.0000
vt 0.3254 0.9173 0.0000
vt 0.3254 0.8249 0.0000
vt 0.3254 0.7932 0.0000
vt 0.3704 0.8891 0.0000
vt 0.3704 0.9173 0.0000
vt 0.3704 0.8249 0.0000
vt 0.3704 0.7932 0.0000
vt 0.4154 0.8891 0.0000
vt 0.4154 0.9173 0.0000
vt 0.4154 0.8249 0.0000
vt 0.4154 0.7932 0.0000
vt 0.4534 0.8891 0.0000
vt 0.4534 0.9173 0.0000
vt 0.4534 0.8249 0.0000
vt 0.4534 0.7932 0.0000
vt 0.4815 0.9173 0.0000
vt 0.4815 0.8891 0.0000
vt 0.4815 0.8249 0.0000
vt 0.4815 0.7932 0.0000
vt 0.0043 0.3218 0.0000
vt 0.0043 0.2666 0.0000
vt 0.0545 0.2666 0.0000
vt 0.0545 0.3218 0.0000
vt 0.1632 0.2666 0.0000
vt 0.1632 0.3218 0.0000
vt 0.1897 0.3218 0.0000
vt 0.0545 0.4585 0.0000
vt 0.0043 0.4585 0.0000
vt 0.1632 0.4585 0.0000
vt 0.1897 0.4585 0.0000
vt 0.0043 0.5585 0.0000
vt 0.0545 0.5585 0.0000
vt 0.1632 0.5585 0.0000
vt 0.1897 0.5585 0.0000
vt 0.0545 0.6605 0.0000
vt 0.0043 0.6605 0.0000
vt 0.1632 0.6605 0.0000
vt 0.1897 0.6605 0.0000
vt 0.0545 0.7932 0.0000
vt 0.0043 0.7932 0.0000
vt 0.1632 0.7932 0.0000
vt 0.2321 0.3218 0.0000
vt 0.2787 0.3218 0.0000
vt 0.3254 0.3218 0.0000
vt 0.3704 0.3218 0.0000
vt 0.4154 0.3218 0.0000
vt 0.4534 0.3218 0.0000
vt 0.4815 0.3218 0.0000
vt 0.2321 0.4585 0.0000
vt 0.2787 0.4585 0.0000
vt 0.3254 0.4585 0.0000
vt 0.3704 0.4585 0.0000
vt 0.4154 0.4585 0.0000
vt 0.4534 0.4585 0.0000
vt 0.4815 0.4585 0.0000
vt 0.2321 0.5585 0.0000
vt 0.2787 0.5585 0.0000
vt 0.3254 0.5585 0.0000
vt 0.3704 0.5585 0.0000
vt 0.4154 0.5585 0.0000
vt 0.4534 0.5585 0.0000
vt 0.4815 0.5585 0.0000
vt 0.2321 0.6605 0.0000
vt 0.2787 0.6605 0.0000
vt 0.3254 0.6605 0.0000
vt 0.3704 0.6605 0.0000
vt 0.4154 0.6605 0.0000
vt 0.4534 0.6605 0.0000
vt 0.4815 0.6605 0.0000
vt 0.5449 0.3218 0.0000
vt 0.5449 0.2666 0.0000
vt 0.6800 0.3218 0.0000
vt 0.6800 0.2666 0.0000
vt 0.7021 0.3218 0.0000
vt 0.7021 0.2666 0.0000
vt 0.5449 0.4585 0.0000
vt 0.6800 0.4585 0.0000
vt 0.7021 0.4585 0.0000
vt 0.5449 0.5585 0.0000
vt 0.6800 0.5585 0.0000
vt 0.7021 0.5585 0.0000
vt 0.5449 0.6605 0.0000
vt 0.6800 0.6605 0.0000
vt 0.7021 0.6605 0.0000
vt 0.5449 0.7932 0.0000
vt 0.6800 0.7932 0.0000
vt 0.7021 0.7932 0.0000
vt 0.7422 0.3218 0.0000
vt 0.7422 0.2666 0.0000
vt 0.7881 0.2666 0.0000
vt 0.7881 0.3218 0.0000
vt 0.8336 0.2666 0.0000
vt 0.8336 0.3218 0.0000
vt 0.8778 0.2666 0.0000
vt 0.8778 0.3218 0.0000
vt 0.9220 0.2666 0.0000
vt 0.9220 0.3218 0.0000
vt 0.9666 0.3218 0.0000
vt 0.9666 0.2666 0.0000
vt 0.9922 0.3218 0.0000
vt 0.9922 0.2666 0.0000
vt 0.7422 0.4585 0.0000
vt 0.7881 0.4585 0.0000
vt 0.8336 0.4585 0.0000
vt 0.8778 0.4585 0.0000
vt 0.9220 0.4585 0.0000
vt 0.9666 0.4585 0.0000
vt 0.9922 0.4585 0.0000
vt 0.7422 0.5585 0.0000
vt 0.7881 0.5585 0.0000
vt 0.8336 0.5585 0.0000
vt 0.8778 0.5585 0.0000
vt 0.9220 0.5585 0.0000
vt 0.9666 0.5585 0.0000
vt 0.9922 0.5585 0.0000
vt 0.7422 0.6605 0.0000
vt 0.7881 0.6605 0.0000
vt 0.8336 0.6605 0.0000
vt 0.8778 0.6605 0.0000
vt 0.9220 0.6605 0.0000
vt 0.9666 0.6605 0.0000
vt 0.9922 0.6605 0.0000
vt 0.7422 0.7932 0.0000
vt 0.7881 0.7932 0.0000
vt 0.8336 0.7932 0.0000
vt 0.8778 0.7932 0.0000
vt 0.9220 0.7932 0.0000
vt 0.9666 0.7932 0.0000
vt 0.9922 0.7932 0.0000
# 174 texture coords

g Box001
usemtl 02___Default
s 1
f 1/1/1 2/2/2 3/3/3 4/4/4 
f 5/5/5 2/2/2 1/1/1 6/6/6 
f 7/7/7 5/5/5 6/6/6 8/8/8 
f 9/9/9 1/1/1 4/4/4 10/10/10 
f 11/11/11 6/6/6 1/1/1 9/9/9 
f 8/8/8 6/6/6 11/11/11 12/12/12 
f 13/13/13 9/9/9 10/10/10 14/14/14 
f 15/15/15 11/11/11 9/9/9 13/13/13 
f 16/16/16 12/12/12 11/11/11 15/15/15 
f 17/17/17 13/13/13 14/14/14 18/18/18 
f 19/19/19 15/15/15 13/13/13 17/17/17 
f 20/20/20 16/16/16 15/15/15 19/19/19 
f 21/21/21 17/17/17 18/18/18 22/22/22 
f 23/23/23 19/19/19 17/17/17 21/21/21 
f 24/24/24 20/20/20 19/19/19 23/23/23 
f 25/25/25 21/21/21 22/22/22 26/26/26 
f 27/27/27 23/23/23 21/21/21 25/25/25 
f 28/28/28 24/24/24 23/23/23 27/27/27 
f 25/25/25 26/26/26 29/29/29 30/30/30 
f 31/31/31 27/27/27 25/25/25 30/30/30 
f 32/32/32 28/28/28 27/27/27 31/31/31 
s 2
f 33/33/33 34/34/34 35/35/35 36/36/36 
f 37/37/37 33/33/33 36/36/36 38/38/38 
f 37/37/37 38/38/38 39/39/39 40/40/40 
f 41/41/41 42/42/42 34/34/34 33/33/33 
f 43/43/43 41/41/41 33/33/33 37/37/37 
f 44/44/44 43/43/43 37/37/37 40/40/40 
f 45/45/45 46/46/46 42/42/42 41/41/41 
f 47/47/47 45/45/45 41/41/41 43/43/43 
f 48/48/48 47/47/47 43/43/43 44/44/44 
f 49/49/49 50/50/50 46/46/46 45/45/45 
f 51/51/51 49/49/49 45/45/45 47/47/47 
f 52/52/52 51/51/51 47/47/47 48/48/48 
f 53/53/53 54/54/54 50/50/50 49/49/49 
f 55/55/55 53/53/53 49/49/49 51/51/51 
f 56/56/56 55/55/55 51/51/51 52/52/52 
f 57/57/57 58/58/58 54/54/54 53/53/53 
f 59/59/59 57/57/57 53/53/53 55/55/55 
f 60/60/60 59/59/59 55/55/55 56/56/56 
f 61/61/61 58/58/58 57/57/57 62/62/62 
f 63/63/63 62/62/62 57/57/57 59/59/59 
f 64/64/64 63/63/63 59/59/59 60/60/60 
f 65/65/65 3/66/66 2/67/67 66/68/68 
f 66/68/68 2/67/67 5/69/69 67/70/70 
f 68/71/71 67/70/70 5/69/69 7/7/72 
f 69/72/73 70/73/74 65/65/65 66/68/68 
f 71/74/75 69/72/73 66/68/68 67/70/70 
f 72/75/76 71/74/75 67/70/70 68/71/71 
f 73/76/77 70/73/74 69/72/73 74/77/78 
f 75/78/79 74/77/78 69/72/73 71/74/75 
f 76/79/80 75/78/79 71/74/75 72/75/76 
f 77/80/81 78/81/82 73/76/77 74/77/78 
f 79/82/83 77/80/81 74/77/78 75/78/79 
f 80/83/84 79/82/83 75/78/79 76/79/80 
f 36/84/36 35/85/35 78/81/82 77/80/81 
f 38/86/38 36/84/36 77/80/81 79/82/83 
f 39/39/39 38/86/38 79/82/83 80/83/84 
f 68/71/71 7/7/72 8/8/85 81/87/86 
f 81/87/86 8/8/85 12/12/87 82/88/88 
f 82/88/88 12/12/87 16/16/89 83/89/90 
f 83/89/90 16/16/89 20/20/91 84/90/92 
f 84/90/92 20/20/91 24/24/93 85/91/94 
f 86/92/95 85/91/94 24/24/93 28/28/96 
f 87/93/97 86/92/95 28/28/96 32/32/98 
f 88/94/99 72/75/76 68/71/71 81/87/86 
f 89/95/100 88/94/99 81/87/86 82/88/88 
f 90/96/101 89/95/100 82/88/88 83/89/90 
f 91/97/102 90/96/101 83/89/90 84/90/92 
f 91/97/102 84/90/92 85/91/94 92/98/103 
f 92/98/103 85/91/94 86/92/95 93/99/104 
f 93/99/104 86/92/95 87/93/97 94/100/105 
f 76/79/80 72/75/76 88/94/99 95/101/106 
f 95/101/106 88/94/99 89/95/100 96/102/107 
f 97/103/108 96/102/107 89/95/100 90/96/101 
f 97/103/108 90/96/101 91/97/102 98/104/109 
f 98/104/109 91/97/102 92/98/103 99/105/110 
f 99/105/110 92/98/103 93/99/104 100/106/111 
f 100/106/111 93/99/104 94/100/105 101/107/112 
f 80/83/84 76/79/80 95/101/106 102/108/113 
f 102/108/113 95/101/106 96/102/107 103/109/114 
f 104/110/115 103/109/114 96/102/107 97/103/108 
f 104/110/115 97/103/108 98/104/109 105/111/116 
f 105/111/116 98/104/109 99/105/110 106/112/117 
f 106/112/117 99/105/110 100/106/111 107/113/118 
f 107/113/118 100/106/111 101/107/112 108/114/119 
f 40/40/40 39/39/39 80/83/84 102/108/113 
f 44/44/44 40/40/40 102/108/113 103/109/114 
f 48/48/48 44/44/44 103/109/114 104/110/115 
f 48/48/48 104/110/115 105/111/116 52/52/52 
f 52/52/52 105/111/116 106/112/117 56/56/56 
f 56/56/56 106/112/117 107/113/118 60/60/60 
f 60/60/60 107/113/118 108/114/119 64/64/64 
f 109/115/120 87/93/97 32/32/98 31/116/121 
f 110/117/122 109/115/120 31/116/121 30/118/123 
f 111/119/124 110/117/122 30/118/123 29/120/125 
f 112/121/126 94/100/105 87/93/97 109/115/120 
f 113/122/127 112/121/126 109/115/120 110/117/122 
f 114/123/128 113/122/127 110/117/122 111/119/124 
f 115/124/129 101/107/112 94/100/105 112/121/126 
f 116/125/130 115/124/129 112/121/126 113/122/127 
f 117/126/131 116/125/130 113/122/127 114/123/128 
f 108/114/119 101/107/112 115/124/129 118/127/132 
f 119/128/133 118/127/132 115/124/129 116/125/130 
f 120/129/134 119/128/133 116/125/130 117/126/131 
f 63/130/63 64/64/64 108/114/119 118/127/132 
f 62/131/62 63/130/63 118/127/132 119/128/133 
f 61/132/61 62/131/62 119/128/133 120/129/134 
f 121/133/135 111/119/124 29/120/125 26/134/136 
f 121/133/135 26/134/136 22/135/137 122/136/138 
f 122/136/138 22/135/137 18/137/139 123/138/140 
f 123/138/140 18/137/139 14/139/141 124/140/142 
f 124/140/142 14/139/141 10/141/143 125/142/144 
f 126/143/145 125/142/144 10/141/143 4/144/146 
f 65/145/65 126/143/145 4/144/146 3/146/66 
f 114/123/128 111/119/124 121/133/135 127/147/147 
f 127/147/147 121/133/135 122/136/138 128/148/148 
f 128/148/148 122/136/138 123/138/140 129/149/149 
f 129/149/149 123/138/140 124/140/142 130/150/150 
f 130/150/150 124/140/142 125/142/144 131/151/151 
f 131/151/151 125/142/144 126/143/145 132/152/152 
f 132/152/152 126/143/145 65/145/65 70/153/74 
f 133/154/153 117/126/131 114/123/128 127/147/147 
f 134/155/154 133/154/153 127/147/147 128/148/148 
f 134/155/154 128/148/148 129/149/149 135/156/155 
f 135/156/155 129/149/149 130/150/150 136/157/156 
f 137/158/157 136/157/156 130/150/150 131/151/151 
f 137/158/157 131/151/151 132/152/152 138/159/158 
f 138/159/158 132/152/152 70/153/74 73/160/77 
f 139/161/159 120/129/134 117/126/131 133/154/153 
f 140/162/160 139/161/159 133/154/153 134/155/154 
f 141/163/161 140/162/160 134/155/154 135/156/155 
f 141/163/161 135/156/155 136/157/156 142/164/162 
f 142/164/162 136/157/156 137/158/157 143/165/163 
f 143/165/163 137/158/157 138/159/158 144/166/164 
f 144/166/164 138/159/158 73/160/77 78/167/82 
f 58/168/58 61/132/61 120/129/134 139/161/159 
f 54/169/54 58/168/58 139/161/159 140/162/160 
f 54/169/54 140/162/160 141/163/161 50/170/50 
f 50/170/50 141/163/161 142/164/162 46/171/46 
f 46/171/46 142/164/162 143/165/163 42/172/42 
f 42/172/42 143/165/163 144/166/164 34/173/34 
f 34/173/34 144/166/164 78/167/82 35/174/35 
# 142 polygons

