# 3ds Max Wavefront OBJ Exporter v0.97b - (c)2007 guruware
# File Created: 21.02.2017 20:53:35

mtllib FrenchFries_txt.mtl

#
# object Box001
#

v  9.7873 4.7044 -8.5228
v  9.1314 4.7044 -8.5228
v  9.1314 4.7044 -1.1599
v  9.7873 4.7044 -1.1599
v  -0.0515 4.7044 -8.5228
v  -9.2345 4.7044 -8.5228
v  -9.2345 4.7044 -1.1599
v  -0.0515 4.7044 -1.1599
v  9.1314 4.7044 -0.3284
v  11.7530 28.6768 1.0942
v  12.5962 28.6768 1.0942
v  9.7873 4.7044 -0.3284
v  -9.8904 4.7044 -8.5228
v  -12.6992 28.6684 -8.5228
v  -12.6992 28.6841 0.2627
v  -9.8904 4.7044 -1.1599
v  -9.2345 4.7044 -9.3543
v  -11.8561 29.6078 -9.3543
v  -12.6992 28.6757 -9.3543
v  -9.8904 4.7044 -9.3543
v  12.5962 28.6841 0.2627
v  12.5962 28.6720 -8.5228
v  11.7530 28.6720 -8.5228
v  11.7530 29.6078 -8.5228
v  8.3803 32.6815 -8.5228
v  8.3803 28.6775 -8.5228
v  4.1644 28.6792 -8.5228
v  4.1644 33.6515 -8.5228
v  -0.0515 28.5443 -8.5228
v  -0.0515 34.1079 -8.5228
v  -4.2674 28.6792 -8.5228
v  -4.2674 33.6515 -8.5228
v  -8.4833 28.6775 -8.5228
v  -8.4833 32.6815 -8.5228
v  -11.8561 28.6720 -8.5228
v  -11.8561 29.6078 -8.5228
v  9.7873 4.7044 -9.3543
v  9.1314 4.7044 -9.3543
v  -0.0515 4.7044 -0.3284
v  -0.0515 4.7044 -9.3543
v  -9.2345 4.7044 -0.3284
v  -9.8904 4.7044 -0.3284
v  -12.6992 28.6768 1.0942
v  12.5962 28.6720 -9.3543
v  11.7530 28.6768 0.2627
v  8.3803 32.6815 -9.3543
v  11.7530 29.6078 -9.3543
v  8.3803 26.8319 1.0942
v  4.1644 25.2900 1.0942
v  4.1644 25.2900 0.2627
v  8.3803 26.8319 0.2627
v  4.1644 33.6515 -9.3543
v  -0.0515 24.7711 1.0942
v  -0.0515 24.7711 0.2627
v  -0.0515 34.1079 -9.3543
v  -4.2674 25.2900 1.0942
v  -4.2674 25.2900 0.2627
v  -4.2674 33.6515 -9.3543
v  -8.4833 26.8319 1.0942
v  -8.4833 26.8319 0.2627
v  -8.4833 32.6815 -9.3543
v  -11.8561 28.6768 1.0942
v  -11.8561 28.6768 0.2627
v  -0.0515 16.2574 -1.1609
v  -9.2345 16.2574 -1.1609
v  -9.2345 16.2527 -8.5238
v  -0.0515 16.2596 -8.5238
v  9.1314 16.2527 -8.5238
v  9.1314 16.2574 -1.1609
v  12.7262 32.5799 -5.4833
v  10.7092 33.3141 -5.4833
v  10.7092 33.3141 -7.6297
v  12.7262 32.5799 -7.6297
v  5.3848 12.4097 -5.4833
v  3.3678 13.1439 -5.4833
v  3.3678 13.1439 -7.6297
v  5.3848 12.4097 -7.6297
v  6.6580 33.8664 -5.1598
v  4.5115 33.8664 -5.1598
v  4.5115 33.8664 -7.3062
v  6.6580 33.8664 -7.3062
v  6.6580 12.4017 -5.1598
v  4.5115 12.4017 -5.1598
v  4.5115 12.4017 -7.3062
v  6.6580 12.4017 -7.3062
v  9.9028 34.4899 -3.8472
v  7.7564 34.4899 -3.8472
v  7.7564 34.4899 -5.9936
v  9.9028 34.4899 -5.9936
v  9.9028 13.0252 -3.8472
v  7.7564 13.0252 -3.8472
v  7.7564 13.0252 -5.9936
v  9.9028 13.0252 -5.9936
v  11.0876 32.2418 0.5236
v  9.0143 32.7973 0.5236
v  9.1581 33.3339 -1.5497
v  11.2314 32.7784 -1.5497
v  5.7214 12.2149 -5.0318
v  3.6481 12.7705 -5.0318
v  3.7919 13.3071 -7.1052
v  5.8652 12.7516 -7.1052
v  7.3543 32.5801 1.0101
v  5.2160 32.3930 1.0101
v  5.1675 32.9464 -1.0632
v  7.3058 33.1335 -1.0632
v  9.1613 11.9257 -4.5454
v  7.0230 11.7386 -4.5454
v  6.9746 12.2920 -6.6187
v  9.1129 12.4791 -6.6187
v  4.1125 32.5801 0.8471
v  1.9742 32.3930 0.8471
v  1.9258 32.9464 -1.2262
v  4.0641 33.1335 -1.2262
v  5.9196 11.9257 -4.7084
v  3.7813 11.7386 -4.7084
v  3.7328 12.2920 -6.7817
v  5.8711 12.4791 -6.7817
v  1.0333 32.2418 0.6866
v  -1.0400 32.7973 0.6866
v  -0.8962 33.3339 -1.3867
v  1.1771 32.7784 -1.3867
v  -4.3329 12.2149 -4.8689
v  -6.4062 12.7705 -4.8689
v  -6.2624 13.3071 -6.9422
v  -4.1891 12.7516 -6.9422
v  2.2303 34.2874 -3.5237
v  0.2133 33.5533 -3.5237
v  0.2133 33.5533 -5.6701
v  2.2303 34.2874 -5.6701
v  9.5717 14.1172 -3.5237
v  7.5546 13.3831 -3.5237
v  7.5546 13.3831 -5.6701
v  9.5717 14.1172 -5.6701
v  -0.1515 34.4899 -3.7158
v  -2.2979 34.4899 -3.7158
v  -2.2979 34.4899 -5.8622
v  -0.1515 34.4899 -5.8622
v  -0.1515 13.0252 -3.7158
v  -2.2979 13.0252 -3.7158
v  -2.2979 13.0252 -5.8622
v  -0.1515 13.0252 -5.8622
v  -3.3963 33.8664 -5.0284
v  -5.5428 33.8664 -5.0284
v  -5.5428 33.8664 -7.1749
v  -3.3963 33.8664 -7.1749
v  -3.3963 12.4017 -5.0284
v  -5.5428 12.4017 -5.0284
v  -5.5428 12.4017 -7.1749
v  -3.3963 12.4017 -7.1749
v  -1.8804 33.2066 0.3113
v  -4.0123 33.3695 0.5013
v  -4.1560 33.9061 -1.5721
v  -2.0242 33.7432 -1.7621
v  -3.9291 12.4874 -4.9092
v  -6.0609 12.6503 -4.7192
v  -6.2047 13.1869 -6.7925
v  -4.0729 13.0240 -6.9825
v  -6.2247 33.2943 0.3980
v  -8.3712 33.2942 0.3980
v  -8.3712 33.8498 -1.6754
v  -6.2247 33.8498 -1.6754
v  -6.2247 12.5610 -5.1575
v  -8.3712 12.5610 -5.1575
v  -8.3712 13.1165 -7.2308
v  -6.2247 13.1165 -7.2308
v  -7.8240 34.2874 -3.3923
v  -9.8410 33.5533 -3.3923
v  -9.8410 33.5533 -5.5387
v  -7.8240 34.2874 -5.5387
v  -0.4826 14.1172 -3.3923
v  -2.4997 13.3831 -3.3923
v  -2.4997 13.3831 -5.5387
v  -0.4826 14.1172 -5.5387
v  11.3823 32.5799 -7.1217
v  9.3653 33.3141 -7.1217
v  9.3653 33.3141 -9.2681
v  11.3823 32.5799 -9.2681
v  4.0410 12.4097 -7.1217
v  2.0239 13.1439 -7.1217
v  2.0239 13.1439 -9.2681
v  4.0410 12.4097 -9.2681
v  5.3141 33.8664 -6.7982
v  3.1676 33.8664 -6.7982
v  3.1676 33.8664 -8.9447
v  5.3141 33.8664 -8.9447
v  5.3141 12.4017 -6.7982
v  3.1676 12.4017 -6.7982
v  3.1676 12.4017 -8.9447
v  5.3141 12.4017 -8.9447
v  8.5589 34.4899 -5.4856
v  6.4125 34.4899 -5.4856
v  6.4125 34.4899 -7.6320
v  8.5589 34.4899 -7.6320
v  8.5589 13.0252 -5.4856
v  6.4125 13.0252 -5.4856
v  6.4125 13.0252 -7.6320
v  8.5589 13.0252 -7.6320
v  9.7437 32.2418 -1.1148
v  7.6704 32.7973 -1.1148
v  7.8142 33.3339 -3.1881
v  9.8875 32.7784 -3.1881
v  4.3775 12.2149 -6.6702
v  2.3042 12.7705 -6.6702
v  2.4480 13.3071 -8.7436
v  4.5213 12.7516 -8.7436
v  6.0104 32.5801 -0.6283
v  3.8721 32.3930 -0.6283
v  3.8237 32.9464 -2.7016
v  5.9620 33.1335 -2.7016
v  7.8174 11.9257 -6.1838
v  5.6791 11.7386 -6.1838
v  5.6307 12.2920 -8.2571
v  7.7690 12.4791 -8.2571
v  2.7686 32.5801 -0.7913
v  0.6303 32.3930 -0.7913
v  0.5819 32.9464 -2.8646
v  2.7202 33.1335 -2.8646
v  4.5757 11.9257 -6.3468
v  2.4374 11.7386 -6.3468
v  2.3889 12.2920 -8.4201
v  4.5272 12.4791 -8.4201
v  -0.3106 32.2418 -0.9518
v  -2.3839 32.7973 -0.9518
v  -2.2401 33.3339 -3.0251
v  -0.1668 32.7784 -3.0251
v  -5.6767 12.2149 -6.5073
v  -7.7501 12.7705 -6.5073
v  -7.6063 13.3071 -8.5806
v  -5.5330 12.7516 -8.5806
v  0.8864 34.2874 -5.1621
v  -1.1306 33.5533 -5.1621
v  -1.1306 33.5533 -7.3086
v  0.8864 34.2874 -7.3086
v  8.2278 14.1172 -5.1621
v  6.2107 13.3831 -5.1621
v  6.2107 13.3831 -7.3086
v  8.2278 14.1172 -7.3086
v  -1.4954 34.4899 -5.3542
v  -3.6418 34.4899 -5.3542
v  -3.6418 34.4899 -7.5006
v  -1.4954 34.4899 -7.5006
v  -1.4953 13.0252 -5.3542
v  -3.6418 13.0252 -5.3542
v  -3.6418 13.0252 -7.5006
v  -1.4953 13.0252 -7.5006
v  -4.7402 33.8664 -6.6668
v  -6.8867 33.8664 -6.6668
v  -6.8867 33.8664 -8.8133
v  -4.7402 33.8664 -8.8133
v  -4.7402 12.4017 -6.6668
v  -6.8867 12.4017 -6.6668
v  -6.8867 12.4017 -8.8133
v  -4.7402 12.4017 -8.8133
v  -3.2243 33.2066 -1.3272
v  -5.3562 33.3695 -1.1371
v  -5.4999 33.9061 -3.2105
v  -3.3681 33.7432 -3.4005
v  -5.2730 12.4874 -6.5476
v  -7.4048 12.6503 -6.3576
v  -7.5486 13.1869 -8.4309
v  -5.4168 13.0240 -8.6209
v  -7.5686 33.2943 -1.2405
v  -9.7151 33.2942 -1.2405
v  -9.7151 33.8498 -3.3138
v  -7.5686 33.8498 -3.3138
v  -7.5686 12.5610 -6.7959
v  -9.7151 12.5610 -6.7959
v  -9.7151 13.1165 -8.8693
v  -7.5686 13.1165 -8.8693
v  -9.1679 34.2874 -5.0307
v  -11.1849 33.5533 -5.0307
v  -11.1849 33.5533 -7.1772
v  -9.1679 34.2874 -7.1772
v  -1.8265 14.1172 -5.0307
v  -3.8435 13.3831 -5.0307
v  -3.8435 13.3831 -7.1772
v  -1.8265 14.1172 -7.1772
# 277 vertices

vn 0.0000 -1.0000 -0.0000
vn 0.0016 -0.0618 0.9981
vn 0.0125 -0.0606 0.9981
vn 0.0000 -0.0592 0.9982
vn -0.9932 -0.1164 0.0000
vn -0.9932 -0.1164 -0.0004
vn -0.9932 -0.1163 -0.0004
vn -0.9932 -0.1164 -0.0000
vn 0.0000 0.0000 -1.0000
vn 0.9932 -0.1164 0.0000
vn 0.9932 -0.1163 -0.0004
vn 0.9932 -0.1164 0.0001
vn 0.9932 -0.1164 -0.0000
vn 0.0000 0.0000 1.0000
vn 0.0000 -0.0000 1.0000
vn -0.0000 0.0000 1.0000
vn -0.0000 -0.0000 1.0000
vn -0.9932 -0.1164 -0.0010
vn -0.9932 -0.1163 -0.0010
vn 0.9932 -0.1163 -0.0000
vn 0.9932 -0.1163 -0.0010
vn -0.0044 1.0000 0.0044
vn -0.2477 0.9688 0.0000
vn -0.1688 0.9856 0.0013
vn -0.0084 1.0000 0.0041
vn 0.4641 0.8858 -0.0000
vn 0.7091 0.7051 -0.0000
vn -0.4129 0.9108 0.0000
vn -0.2343 0.9722 -0.0000
vn -0.4129 0.9108 -0.0000
vn 0.1662 0.9861 -0.0000
vn 0.0000 1.0000 -0.0000
vn 0.2343 0.9722 -0.0000
vn -0.1662 0.9861 -0.0000
vn 0.4129 0.9108 -0.0000
vn -0.4641 0.8858 -0.0000
vn -0.4641 0.8858 0.0000
vn 0.2477 0.9688 -0.0000
vn 0.1688 0.9856 0.0013
vn -0.7432 0.6690 0.0037
vn -0.7084 0.7058 0.0000
vn -0.7089 0.7053 0.0011
vn -0.7442 0.6680 0.0059
vn -0.0125 -0.0606 0.9981
vn -0.0016 -0.0618 0.9981
vn 0.0082 1.0000 0.0041
vn -0.0043 1.0000 -0.0018
vn -0.0035 1.0000 -0.0017
vn 0.0044 1.0000 0.0044
vn -0.0284 -0.0661 0.9974
vn 0.0000 -0.0661 0.9978
vn 0.7429 0.6694 -0.0000
vn -0.0005 1.0000 -0.0013
vn 0.0000 1.0000 -0.0014
vn -0.0537 0.1799 -0.9822
vn 0.0000 0.1649 -0.9863
vn -0.0036 0.1479 -0.9890
vn -0.1163 0.2230 -0.9679
vn 0.0537 0.1799 -0.9822
vn 0.0541 0.1393 -0.9888
vn 0.0701 0.1282 -0.9893
vn 0.0110 0.1327 -0.9911
vn 0.9784 0.2065 -0.0001
vn 0.9784 0.2066 -0.0001
vn -0.0000 -0.0001 1.0000
vn 0.0000 -0.0001 1.0000
vn -0.9784 0.2065 -0.0001
vn -0.9784 0.2066 -0.0001
vn -0.0466 0.1574 -0.9864
vn -0.0000 0.1139 -0.9935
vn 0.0204 -0.0731 0.9971
vn 0.0284 -0.0661 0.9974
vn 0.0000 -0.0707 0.9975
vn -0.0204 -0.0731 0.9971
vn 0.3420 0.9397 -0.0000
vn -0.9397 0.3420 -0.0000
vn 0.9397 -0.3420 -0.0000
vn -1.0000 -0.0000 -0.0000
vn 1.0000 0.0000 -0.0000
vn 0.2500 0.9330 0.2588
vn -0.0670 -0.2500 0.9659
vn -0.9659 0.2588 -0.0000
vn -0.9659 0.2588 0.0000
vn 0.0670 0.2500 -0.9659
vn 0.9659 -0.2588 -0.0000
vn -0.0842 0.9623 0.2588
vn 0.0226 -0.2578 0.9659
vn -0.9962 -0.0872 0.0000
vn -0.0226 0.2578 -0.9659
vn 0.9962 0.0872 0.0000
vn 0.9962 0.0872 -0.0000
vn -0.9962 -0.0872 -0.0000
vn -0.3420 0.9397 -0.0000
vn -0.9397 -0.3420 -0.0000
vn 0.9397 0.3420 -0.0000
vn 0.0954 0.9653 0.2432
vn 0.0670 -0.2500 0.9659
vn -0.9932 0.0759 0.0885
vn -0.0670 0.2500 -0.9659
vn 0.9932 -0.0759 -0.0885
vn -0.0000 0.9659 0.2588
vn 0.0000 -0.2588 0.9659
vn -1.0000 0.0000 -0.0000
vn -1.0000 -0.0000 0.0000
vn -0.0000 0.2588 -0.9659
vn 0.0000 0.2588 -0.9659
vn 1.0000 -0.0000 0.0000
vn 0.9659 -0.2588 0.0000
vn -0.0842 0.9622 0.2588
# 109 vertex normals

vt 0.2028 0.4865 0.0000
vt 0.2123 0.4866 0.0000
vt 0.2123 0.5928 0.0000
vt 0.2028 0.5927 0.0000
vt 0.3449 0.4867 0.0000
vt 0.4775 0.4866 0.0000
vt 0.4775 0.5929 0.0000
vt 0.3449 0.5930 0.0000
vt 0.2124 0.6047 0.0000
vt 0.1755 0.9520 0.0000
vt 0.1692 0.9494 0.0000
vt 0.2029 0.6041 0.0000
vt 0.6045 0.5893 0.0000
vt 0.6495 0.9349 0.0000
vt 0.5263 0.9517 0.0000
vt 0.4990 0.6027 0.0000
vt 0.4775 0.4746 0.0000
vt 0.5138 0.1145 0.0000
vt 0.5261 0.1281 0.0000
vt 0.4870 0.4746 0.0000
vt 0.1908 0.6026 0.0000
vt 0.1634 0.9516 0.0000
vt 0.0402 0.9347 0.0000
vt 0.0853 0.5892 0.0000
vt 0.6782 0.3091 0.0000
vt 0.6784 0.3023 0.0000
vt 0.6860 0.3023 0.0000
vt 0.7096 0.2735 0.0000
vt 0.6768 0.2752 0.0000
vt 0.6750 0.2410 0.0000
vt 0.7157 0.2390 0.0000
vt 0.6723 0.2067 0.0000
vt 0.7179 0.2047 0.0000
vt 0.6720 0.1723 0.0000
vt 0.7127 0.1707 0.0000
vt 0.6707 0.1379 0.0000
vt 0.7036 0.1368 0.0000
vt 0.6698 0.1104 0.0000
vt 0.6775 0.1101 0.0000
vt 0.2028 0.4745 0.0000
vt 0.2122 0.4746 0.0000
vt 0.3449 0.6054 0.0000
vt 0.3449 0.4751 0.0000
vt 0.4774 0.6047 0.0000
vt 0.4869 0.6042 0.0000
vt 0.4869 0.5928 0.0000
vt 0.6165 0.5879 0.0000
vt 0.6614 0.9341 0.0000
vt 0.5204 0.9495 0.0000
vt 0.0283 0.9338 0.0000
vt 0.0733 0.5878 0.0000
vt 0.1707 0.9624 0.0000
vt 0.2198 0.0608 0.0000
vt 0.2250 0.0709 0.0000
vt 0.1764 0.1144 0.0000
vt 0.1687 0.1048 0.0000
vt 0.2222 0.9263 0.0000
vt 0.2833 0.9038 0.0000
vt 0.2859 0.9155 0.0000
vt 0.2262 0.9380 0.0000
vt 0.2827 0.0451 0.0000
vt 0.2847 0.0570 0.0000
vt 0.3448 0.8963 0.0000
vt 0.3448 0.9081 0.0000
vt 0.3452 0.0388 0.0000
vt 0.3451 0.0507 0.0000
vt 0.4063 0.9039 0.0000
vt 0.4037 0.9155 0.0000
vt 0.4056 0.0570 0.0000
vt 0.4076 0.0452 0.0000
vt 0.4674 0.9264 0.0000
vt 0.4634 0.9381 0.0000
vt 0.4653 0.0710 0.0000
vt 0.4705 0.0609 0.0000
vt 0.5141 0.9520 0.0000
vt 0.5189 0.9625 0.0000
vt 0.6614 0.9526 0.0000
vt 0.6493 0.9526 0.0000
vt 0.4870 0.4866 0.0000
vt 0.6498 0.9474 0.0000
vt 0.5216 0.1050 0.0000
vt 0.1641 0.1280 0.0000
vt 0.0403 0.9524 0.0000
vt 0.0283 0.9524 0.0000
vt 0.0398 0.9473 0.0000
vt 0.6696 0.1035 0.0000
vt 0.6192 0.4170 0.0000
vt 0.6014 0.4466 0.0000
vt 0.5366 0.4179 0.0000
vt 0.6447 0.3907 0.0000
vt 0.5915 0.4797 0.0000
vt 0.5892 0.5163 0.0000
vt 0.5919 0.5476 0.0000
vt 0.5066 0.4870 0.0000
vt 0.6525 0.0405 0.0000
vt 0.5688 0.1357 0.0000
vt 0.5543 0.0770 0.0000
vt 0.5716 0.2114 0.0000
vt 0.5755 0.2876 0.0000
vt 0.6696 0.3726 0.0000
vt 0.5677 0.3486 0.0000
vt 0.9618 0.7501 0.0000
vt 0.9027 0.7501 0.0000
vt 0.9027 0.6910 0.0000
vt 0.9618 0.6910 0.0000
vt 0.7846 0.1005 0.0000
vt 0.8437 0.1005 0.0000
vt 0.8437 0.6910 0.0000
vt 0.7846 0.6910 0.0000
vt 0.9027 0.1005 0.0000
vt 0.9618 0.1005 0.0000
vt 0.7256 0.1005 0.0000
vt 0.7256 0.6910 0.0000
vt 0.9618 0.7500 0.0000
vt 0.9027 0.7500 0.0000
vt 0.9027 0.6909 0.0000
vt 0.9618 0.6909 0.0000
vt 0.7846 0.1004 0.0000
vt 0.8437 0.1004 0.0000
vt 0.8437 0.6909 0.0000
vt 0.7846 0.6909 0.0000
vt 0.9027 0.1004 0.0000
vt 0.9618 0.1004 0.0000
vt 0.7256 0.1004 0.0000
vt 0.7256 0.6909 0.0000
vt 0.9616 0.7501 0.0000
vt 0.9026 0.7501 0.0000
vt 0.9026 0.6910 0.0000
vt 0.9616 0.6911 0.0000
vt 0.7849 0.1004 0.0000
vt 0.8439 0.1005 0.0000
vt 0.8435 0.6910 0.0000
vt 0.7845 0.6909 0.0000
vt 0.9030 0.1005 0.0000
vt 0.9620 0.1006 0.0000
vt 0.7258 0.1004 0.0000
vt 0.7254 0.6909 0.0000
vt 0.7845 0.6910 0.0000
vt 0.7844 0.6909 0.0000
vt 0.9617 0.6911 0.0000
vt 0.7848 0.1004 0.0000
vt 0.9029 0.1005 0.0000
vt 0.9620 0.1005 0.0000
vt 0.9620 0.7500 0.0000
vt 0.9030 0.7500 0.0000
vt 0.9030 0.6909 0.0000
vt 0.9620 0.6909 0.0000
vt 0.8439 0.1004 0.0000
vt 0.8439 0.6909 0.0000
vt 0.7849 0.6909 0.0000
vt 0.9030 0.1004 0.0000
vt 0.9620 0.1004 0.0000
vt 0.7258 0.6909 0.0000
# 153 texture coords

g Box001
usemtl 02___Default
s 1
f 4/4/1 3/3/1 2/2/1 1/1/1 
f 8/8/1 7/7/1 6/6/1 5/5/1 
s 2
f 12/12/4 11/11/4 10/10/3 9/9/2 
s 4
f 16/16/8 15/15/7 14/14/6 13/13/5 
s 2
f 20/20/9 19/19/9 18/18/9 17/17/9 
s 4
f 1/24/13 22/23/12 21/22/11 4/21/10 
s 1
f 24/27/14 23/26/15 22/25/14 
f 28/31/14 27/30/15 26/29/15 25/28/16 
f 30/33/14 29/32/15 27/30/15 28/31/14 
f 30/33/14 32/35/16 31/34/17 29/32/15 
f 32/35/16 34/37/16 33/36/17 31/34/17 
f 34/37/16 36/39/17 35/38/17 33/36/17 
f 1/1/1 2/2/1 38/41/1 37/40/1 
f 3/3/1 9/9/1 39/42/1 8/8/1 
f 6/6/1 17/17/1 40/43/1 5/5/1 
f 7/7/1 8/8/1 39/42/1 41/44/1 
f 16/46/1 7/7/1 41/44/1 42/45/1 
s 4
f 13/13/5 14/14/6 19/48/18 20/47/8 
f 15/15/7 16/16/8 42/45/8 43/49/19 
f 4/21/10 21/22/11 11/11/21 12/12/20 
f 22/23/12 1/24/13 37/51/13 44/50/13 
s 8
f 21/22/25 45/52/24 10/10/23 11/11/22 
s 16
f 24/56/27 47/55/27 46/54/26 25/53/26 
s 8
f 51/60/30 50/59/29 49/58/29 48/57/28 
s 16
f 25/53/26 46/54/26 52/62/31 28/61/31 
s 8
f 50/59/29 54/64/32 53/63/32 49/58/29 
s 16
f 28/61/31 52/62/31 55/66/32 30/65/32 
s 8
f 54/64/32 57/68/33 56/67/33 53/63/32 
s 16
f 32/70/34 30/65/32 55/66/32 58/69/34 
s 8
f 57/68/33 60/72/35 59/71/35 56/67/33 
s 16
f 34/74/37 32/70/34 58/69/34 61/73/36 
s 8
f 60/72/35 63/76/39 62/75/38 59/71/35 
s 16
f 14/14/43 36/78/42 18/77/41 19/48/40 
s 1
f 6/6/1 7/7/1 16/46/1 13/79/1 
s 2
f 41/44/45 62/75/44 43/49/4 42/45/4 
f 18/18/9 61/73/9 40/43/9 17/17/9 
s 8
f 63/76/39 35/80/48 14/14/47 15/15/46 
s 1
f 17/17/1 6/6/1 13/79/1 20/20/1 
s 8
f 62/75/38 63/76/39 15/15/46 43/49/49 
s 16
f 36/81/42 34/74/37 61/73/36 18/18/41 
s 1
f 3/3/1 8/8/1 5/5/1 2/2/1 
s 2
f 39/42/51 59/71/50 62/75/44 41/44/45 
f 47/55/9 44/82/9 37/40/9 38/41/9 
s 1
f 2/2/1 5/5/1 40/43/1 38/41/1 
f 9/9/1 3/3/1 4/4/1 12/12/1 
s 8
f 10/10/23 45/52/24 51/60/30 48/57/28 
s 16
f 47/84/27 24/83/27 22/23/52 44/50/52 
s 1
f 23/26/15 24/27/14 25/28/16 26/29/15 
s 8
f 22/23/54 23/85/53 45/52/24 21/22/25 
s 1
f 35/38/17 36/39/17 14/86/15 
f 51/90/58 64/89/57 54/88/56 50/87/55 
f 54/88/56 64/89/57 60/92/60 57/91/59 
f 64/89/57 65/94/62 63/93/61 60/92/60 
s 2
f 65/97/64 66/96/63 35/38/63 63/95/63 
s 1
f 66/96/65 67/98/65 33/36/17 35/38/17 
f 33/36/17 67/98/65 29/32/15 31/34/17 
f 29/32/15 67/98/65 26/29/15 27/30/15 
f 67/98/65 68/99/66 23/26/15 26/29/15 
s 2
f 68/99/67 69/101/67 45/100/68 23/26/67 
s 1
f 69/101/70 64/89/57 51/90/58 45/100/69 
s 2
f 40/43/9 58/69/9 55/66/9 52/62/9 
f 40/43/9 61/73/9 58/69/9 
f 46/54/9 47/55/9 38/41/9 40/43/9 
f 40/43/9 52/62/9 46/54/9 
f 53/63/73 39/42/51 48/57/72 49/58/71 
f 59/71/50 39/42/51 53/63/73 56/67/74 
f 39/42/51 9/9/2 10/10/3 48/57/72 
s 1
f 73/105/75 72/104/75 71/103/75 70/102/75 
s 2
f 70/109/14 71/108/14 75/107/14 74/106/14 
s 4
f 71/108/76 72/104/76 76/110/76 75/107/76 
s 2
f 72/104/9 73/105/9 77/111/9 76/110/9 
s 4
f 73/113/77 70/109/77 74/106/77 77/112/77 
s 1
f 81/117/32 80/116/32 79/115/32 78/114/32 
s 2
f 78/121/14 79/120/14 83/119/14 82/118/14 
s 4
f 79/120/78 80/116/78 84/122/78 83/119/78 
s 2
f 80/116/9 81/117/9 85/123/9 84/122/9 
s 4
f 81/125/79 78/121/79 82/118/79 85/124/79 
s 1
f 89/105/32 88/104/32 87/103/32 86/102/32 
s 2
f 86/109/14 87/108/14 91/107/14 90/106/14 
s 4
f 87/108/78 88/104/78 92/110/78 91/107/78 
s 2
f 88/104/9 89/105/9 93/111/9 92/110/9 
s 4
f 89/113/79 86/109/79 90/106/79 93/112/79 
s 1
f 97/129/80 96/128/80 95/127/80 94/126/80 
s 2
f 94/133/81 95/132/81 99/131/81 98/130/81 
s 4
f 95/132/83 96/128/83 100/134/82 99/131/82 
s 2
f 96/128/84 97/129/84 101/135/84 100/134/84 
s 4
f 97/137/85 94/133/85 98/130/85 101/136/85 
s 1
f 105/129/86 104/128/86 103/127/86 102/126/86 
s 2
f 102/138/87 103/132/87 107/131/87 106/130/87 
s 4
f 103/132/88 104/128/88 108/134/88 107/131/88 
s 2
f 104/128/89 105/129/89 109/135/89 108/134/89 
s 4
f 105/137/91 102/138/91 106/130/90 109/136/90 
s 1
f 113/129/86 112/128/86 111/127/86 110/126/86 
s 2
f 110/139/87 111/132/87 115/131/87 114/130/87 
s 4
f 111/132/88 112/128/88 116/134/92 115/131/92 
s 2
f 112/128/89 113/129/89 117/135/89 116/134/89 
s 4
f 113/137/91 110/139/91 114/130/91 117/136/91 
s 1
f 121/129/80 120/128/80 119/127/80 118/126/80 
s 2
f 118/133/81 119/132/81 123/131/81 122/130/81 
s 4
f 119/132/83 120/128/83 124/134/83 123/131/83 
s 2
f 120/128/84 121/129/84 125/135/84 124/134/84 
s 4
f 121/137/85 118/133/85 122/130/85 125/136/85 
s 1
f 129/105/93 128/104/93 127/103/93 126/102/93 
s 2
f 126/109/14 127/108/14 131/107/14 130/106/14 
s 4
f 127/108/94 128/104/94 132/110/94 131/107/94 
s 2
f 128/104/9 129/105/9 133/111/9 132/110/9 
s 4
f 129/113/95 126/109/95 130/106/95 133/112/95 
s 1
f 137/105/32 136/104/32 135/103/32 134/102/32 
s 2
f 134/109/14 135/108/14 139/107/14 138/106/14 
s 4
f 135/108/78 136/104/78 140/110/78 139/107/78 
s 2
f 136/104/9 137/105/9 141/111/9 140/110/9 
s 4
f 137/113/79 134/109/79 138/106/79 141/112/79 
s 1
f 145/105/32 144/104/32 143/103/32 142/102/32 
s 2
f 142/109/14 143/108/14 147/107/14 146/106/14 
s 4
f 143/108/78 144/104/78 148/110/78 147/107/78 
s 2
f 144/104/9 145/105/9 149/111/9 148/110/9 
s 4
f 145/113/79 142/109/79 146/106/79 149/112/79 
s 1
f 153/140/96 152/128/96 151/127/96 150/126/96 
s 2
f 150/138/97 151/132/97 155/131/97 154/141/97 
s 4
f 151/132/98 152/128/98 156/142/98 155/131/98 
s 2
f 152/128/99 153/140/99 157/143/99 156/142/99 
s 4
f 153/137/100 150/138/100 154/141/100 157/136/100 
s 1
f 161/129/101 160/128/101 159/127/101 158/126/101 
s 2
f 158/133/102 159/132/102 163/131/102 162/130/102 
s 4
f 159/132/104 160/128/104 164/134/103 163/131/103 
s 2
f 160/128/105 161/129/105 165/135/106 164/134/105 
s 4
f 161/137/79 158/133/107 162/130/107 165/136/107 
s 1
f 169/105/93 168/104/93 167/103/93 166/102/93 
s 2
f 166/109/14 167/108/14 171/107/14 170/106/14 
s 4
f 167/108/94 168/104/94 172/110/94 171/107/94 
s 2
f 168/104/9 169/105/9 173/111/9 172/110/9 
s 4
f 169/113/95 166/109/95 170/106/95 173/112/95 
s 1
f 177/105/75 176/104/75 175/103/75 174/102/75 
s 2
f 174/109/14 175/108/14 179/107/14 178/106/14 
s 4
f 175/108/76 176/104/76 180/110/76 179/107/76 
s 2
f 176/104/9 177/105/9 181/111/9 180/110/9 
s 4
f 177/113/77 174/109/77 178/106/77 181/112/77 
s 1
f 185/147/32 184/146/32 183/145/32 182/144/32 
s 2
f 182/150/14 183/149/14 187/148/14 186/130/14 
s 4
f 183/149/78 184/146/78 188/151/78 187/148/78 
s 2
f 184/146/9 185/147/9 189/152/9 188/151/9 
s 4
f 185/153/79 182/150/79 186/130/79 189/136/79 
s 1
f 193/105/32 192/104/32 191/103/32 190/102/32 
s 2
f 190/109/14 191/108/14 195/107/14 194/106/14 
s 4
f 191/108/78 192/104/78 196/110/78 195/107/78 
s 2
f 192/104/9 193/105/9 197/111/9 196/110/9 
s 4
f 193/113/79 190/109/79 194/106/79 197/112/79 
s 1
f 201/129/80 200/128/80 199/127/80 198/126/80 
s 2
f 198/138/81 199/132/81 203/131/81 202/130/81 
s 4
f 199/132/83 200/128/83 204/134/82 203/131/82 
s 2
f 200/128/84 201/129/84 205/135/84 204/134/84 
s 4
f 201/137/108 198/138/108 202/130/108 205/136/108 
s 1
f 209/129/109 208/128/109 207/127/109 206/126/109 
s 2
f 206/138/87 207/132/87 211/131/87 210/130/87 
s 4
f 207/132/92 208/128/92 212/134/88 211/131/88 
s 2
f 208/128/89 209/129/89 213/135/89 212/134/89 
s 4
f 209/137/91 206/138/91 210/130/90 213/136/90 
s 1
f 217/129/109 216/128/109 215/127/109 214/126/109 
s 2
f 214/139/87 215/132/87 219/131/87 218/130/87 
s 4
f 215/132/88 216/128/88 220/134/88 219/131/88 
s 2
f 216/128/89 217/129/89 221/135/89 220/134/89 
s 4
f 217/137/90 214/139/90 218/130/91 221/136/91 
s 1
f 225/129/80 224/128/80 223/127/80 222/126/80 
s 2
f 222/139/81 223/132/81 227/131/81 226/130/81 
s 4
f 223/132/83 224/128/83 228/134/83 227/131/83 
s 2
f 224/128/84 225/129/84 229/135/84 228/134/84 
s 4
f 225/137/85 222/139/85 226/130/85 229/136/85 
s 1
f 233/105/93 232/104/93 231/103/93 230/102/93 
s 2
f 230/109/14 231/108/14 235/107/14 234/106/14 
s 4
f 231/108/94 232/104/94 236/110/94 235/107/94 
s 2
f 232/104/9 233/105/9 237/111/9 236/110/9 
s 4
f 233/113/95 230/109/95 234/106/95 237/112/95 
s 1
f 241/105/32 240/104/32 239/103/32 238/102/32 
s 2
f 238/109/14 239/108/14 243/107/14 242/106/14 
s 4
f 239/108/78 240/104/78 244/110/78 243/107/78 
s 2
f 240/104/9 241/105/9 245/111/9 244/110/9 
s 4
f 241/113/79 238/109/79 242/106/79 245/112/79 
s 1
f 249/105/32 248/104/32 247/103/32 246/102/32 
s 2
f 246/109/14 247/108/14 251/107/14 250/106/14 
s 4
f 247/108/78 248/104/78 252/110/78 251/107/78 
s 2
f 248/104/9 249/105/9 253/111/9 252/110/9 
s 4
f 249/113/79 246/109/79 250/106/79 253/112/79 
s 1
f 257/140/96 256/128/96 255/127/96 254/126/96 
s 2
f 254/138/97 255/132/97 259/131/97 258/141/97 
s 4
f 255/132/98 256/128/98 260/142/98 259/131/98 
s 2
f 256/128/99 257/140/99 261/143/99 260/142/99 
s 4
f 257/137/100 254/138/100 258/141/100 261/136/100 
s 1
f 265/129/101 264/128/101 263/127/101 262/126/101 
s 2
f 262/138/102 263/132/102 267/131/102 266/130/102 
s 4
f 263/132/104 264/128/104 268/134/103 267/131/103 
s 2
f 264/128/105 265/129/105 269/135/106 268/134/106 
s 4
f 265/137/79 262/138/79 266/130/79 269/136/79 
s 1
f 273/105/93 272/104/93 271/103/93 270/102/93 
s 2
f 270/109/14 271/108/14 275/107/14 274/106/14 
s 4
f 271/108/94 272/104/94 276/110/94 275/107/94 
s 2
f 272/104/9 273/105/9 277/111/9 276/110/9 
s 4
f 273/113/95 270/109/95 274/106/95 277/112/95 
# 193 polygons - 4 triangles

