# 3ds Max Wavefront OBJ Exporter v0.97b - (c)2007 guruware
# File Created: 27.11.2016 15:02:01

#
# object Object001
#

v  -1.4614 11.7121 5.7378
v  -0.5245 11.7121 5.7378
v  -0.5245 11.7121 0.0865
v  -1.4614 11.7121 0.0865
v  -0.5245 9.6410 0.0865
v  -1.4614 9.6410 0.0865
v  -1.4614 11.7616 0.0056
v  -1.4614 9.6410 0.0056
v  -2.0288 9.6410 0.0056
v  -2.0288 11.7616 0.0069
v  -2.0288 9.6410 0.0862
v  -3.9627 11.7616 0.0069
v  -3.9627 11.7616 0.0871
v  -1.4614 11.7616 0.0865
v  -2.0288 11.7616 0.0866
v  -0.5245 9.6410 5.7378
v  -0.5245 0.0523 5.7378
v  -0.5245 0.0523 0.0865
v  -1.4614 0.0523 0.0865
v  -2.0288 0.0415 0.0862
v  -3.9627 0.0523 0.0870
v  -1.4614 9.6410 5.7378
v  -2.0288 9.6410 5.8187
v  -1.4614 9.6410 5.8187
v  -1.4614 11.7616 5.8187
v  -2.0288 11.7616 5.8174
v  -3.9627 11.7616 5.7372
v  -2.0288 11.7616 5.7377
v  -2.0288 9.6410 5.7381
v  -3.9627 11.7616 5.8174
v  -1.4614 11.7616 5.7378
v  -3.9627 0.0523 5.7373
v  -1.4614 0.0523 5.7378
v  -2.0288 0.0415 5.7381
v  -0.3281 10.9837 1.5600
v  -0.2705 0.4530 4.6291
v  -0.4023 0.4434 4.5978
v  -0.4598 10.9626 1.5334
v  -0.2307 11.0414 1.6377
v  -0.1728 0.4794 4.7196
v  -0.1935 11.1202 1.7456
v  -0.1354 0.5154 4.8450
v  -0.2266 11.1991 1.8548
v  -0.1681 0.5514 4.9718
v  -0.3211 11.2568 1.9361
v  -0.2623 0.5778 5.0659
v  -0.4516 11.2779 1.9677
v  -0.3928 0.5875 5.1021
v  -0.5832 11.2568 1.9410
v  -0.5245 0.5778 5.0708
v  -0.4627 11.1022 1.3768
v  -0.3313 11.1356 1.3896
v  -0.2346 11.2268 1.4298
v  -0.1984 11.3514 1.4863
v  -0.2324 11.4761 1.5443
v  -0.3276 11.5673 1.5881
v  -0.4584 11.6007 1.6058
v  -0.5898 11.5673 1.5930
v  -0.4648 11.1176 1.2625
v  -0.3339 11.1538 1.2540
v  -0.2382 11.2529 1.2359
v  -0.2035 11.3882 1.2129
v  -0.2390 11.5235 1.1912
v  -0.3353 11.6225 1.1768
v  -0.4665 11.6588 1.1732
v  -0.5975 11.6225 1.1817
v  -0.3363 11.0884 1.1223
v  -0.4670 11.0609 1.1482
v  -0.2416 11.1637 1.0563
v  -0.2081 11.2666 0.9679
v  -0.2449 11.3694 0.8809
v  -0.3420 11.4447 0.8185
v  -0.4736 11.4723 0.7975
v  -0.6042 11.4447 0.8234
v  -0.4689 10.9181 1.0463
v  -0.3384 10.9321 1.0108
v  -0.2442 10.9704 0.9184
v  -0.2114 11.0227 0.7940
v  -0.2488 11.0750 0.6709
v  -0.3465 11.1133 0.5822
v  -0.4782 11.1273 0.5515
v  -0.6086 11.1133 0.5871
v  -0.4696 10.7017 1.0069
v  -0.3392 10.7004 0.9685
v  -0.2451 10.6971 0.8686
v  -0.2125 10.6926 0.7338
v  -0.2501 10.6881 0.6004
v  -0.3479 10.6847 0.5041
v  -0.4797 10.6835 0.4705
v  -0.6101 10.6847 0.5090
v  -0.4416 5.3247 2.4983
v  -0.3112 5.3152 2.4619
v  -0.2170 5.2894 2.3677
v  -0.1842 5.2542 2.2408
v  -0.2217 5.2190 2.1152
v  -0.3194 5.1932 2.0245
v  -0.4511 5.1837 1.9932
v  -0.5816 5.1932 2.0294
# 98 vertices

vn 0.0000 1.0000 -0.0000
vn 0.0000 0.0000 -1.0000
vn -0.0023 0.0000 -1.0000
vn -0.0004 0.0005 -1.0000
vn 0.0000 0.0006 -1.0000
vn -0.0019 0.0001 -1.0000
vn 1.0000 0.0000 -0.0000
vn 0.0000 -1.0000 -0.0000
vn -0.7389 -0.6738 -0.0000
vn 0.0006 0.0000 -1.0000
vn -0.0005 0.0000 -1.0000
vn 0.0000 0.0000 1.0000
vn 0.0000 0.0006 1.0000
vn -0.0004 0.0005 1.0000
vn -0.0023 0.0000 1.0000
vn -0.0019 0.0001 1.0000
vn -1.0000 0.0000 -0.0000
vn 0.0006 0.0000 1.0000
vn -0.0005 0.0000 1.0000
vn 0.0002 -0.0565 -0.9984
vn -0.0020 -1.0000 0.0012
vn 0.0072 -1.0000 -0.0012
vn 0.5143 -0.4512 -0.7293
vn 0.4847 -0.2422 -0.8405
vn 0.2414 -0.2702 -0.9320
vn 0.2485 -0.5123 -0.8220
vn 0.8820 -0.2441 -0.4032
vn 0.8573 -0.1398 -0.4955
vn 0.9995 0.0214 0.0211
vn 0.9998 0.0003 -0.0178
vn 0.8587 0.2785 0.4302
vn 0.8745 0.1406 0.4642
vn 0.5016 0.4670 0.7282
vn 0.5151 0.2436 0.8218
vn 0.0158 0.5367 0.8436
vn 0.0180 0.2813 0.9594
vn -0.2485 0.5129 0.8217
vn -0.2416 0.2718 0.9315
vn 0.2622 -0.8748 -0.4073
vn 0.5309 -0.7662 -0.3621
vn 0.8908 -0.4062 -0.2036
vn 0.9991 0.0424 0.0008
vn 0.8580 0.4727 0.2012
vn 0.5006 0.7900 0.3539
vn 0.0078 0.9086 0.4176
vn -0.2623 0.8748 0.4073
vn 0.2725 -0.9501 0.1516
vn 0.5400 -0.8320 0.1272
vn 0.8957 -0.4411 0.0559
vn 0.9986 0.0462 -0.0264
vn 0.8522 0.5134 -0.1008
vn 0.4912 0.8579 -0.1508
vn -0.0030 0.9866 -0.1629
vn -0.2731 0.9499 -0.1517
vn 0.5387 -0.6461 0.5407
vn 0.2777 -0.7337 0.6201
vn 0.8940 -0.3490 0.2808
vn 0.9986 0.0299 -0.0442
vn 0.8482 0.3950 -0.3528
vn 0.4822 0.6621 -0.5736
vn -0.0122 0.7610 -0.6486
vn -0.2781 0.7334 -0.6202
vn 0.2810 -0.3755 0.8832
vn 0.5390 -0.3316 0.7743
vn 0.8937 -0.1807 0.4106
vn 0.9986 0.0138 -0.0513
vn 0.8462 0.2018 -0.4932
vn 0.4773 0.3389 -0.8108
vn -0.0173 0.3894 -0.9209
vn -0.2811 0.3756 -0.8831
vn 0.2829 0.0438 0.9582
vn 0.5404 0.0387 0.8405
vn 0.8945 0.0209 0.4466
vn 0.9985 -0.0021 -0.0550
vn 0.8447 -0.0237 -0.5348
vn 0.4755 -0.0390 -0.8789
vn -0.0187 -0.0444 -0.9988
vn -0.2829 -0.0438 -0.9581
vn 0.2768 0.2582 0.9256
vn 0.5158 0.2315 0.8249
vn 0.8750 0.1336 0.4654
vn 0.9998 0.0000 -0.0190
vn 0.8568 -0.1335 -0.4981
vn 0.4841 -0.2312 -0.8439
vn -0.0181 -0.2669 -0.9636
vn -0.2761 -0.2578 -0.9259
# 86 vertex normals

vt 0.2028 0.8634 0.0000
vt 0.2030 0.8223 0.0000
vt 0.4502 0.8223 0.0000
vt 0.4504 0.8634 0.0000
vt 0.4505 0.7316 0.0000
vt 0.4916 0.7316 0.0000
vt 0.4907 0.8230 0.0000
vt 0.4934 0.8260 0.0000
vt 0.4929 0.7335 0.0000
vt 0.5168 0.7336 0.0000
vt 0.5178 0.8265 0.0000
vt 0.5177 0.7309 0.0000
vt 0.6020 0.8255 0.0000
vt 0.6033 0.8236 0.0000
vt 0.4900 0.8250 0.0000
vt 0.5178 0.8302 0.0000
vt 0.4930 0.8295 0.0000
vt 0.6024 0.8287 0.0000
vt 0.2028 0.7316 0.0000
vt 0.2030 0.3115 0.0000
vt 0.4507 0.3115 0.0000
vt 0.4922 0.3114 0.0000
vt 0.5176 0.3106 0.0000
vt 0.6028 0.3108 0.0000
vt 0.1625 0.8229 0.0000
vt 0.1615 0.7316 0.0000
vt 0.1362 0.7335 0.0000
vt 0.1601 0.7334 0.0000
vt 0.1597 0.8258 0.0000
vt 0.1353 0.8263 0.0000
vt 0.4504 0.8904 0.0000
vt 0.4503 0.9751 0.0000
vt 0.2029 0.9751 0.0000
vt 0.2028 0.8904 0.0000
vt 0.1353 0.7309 0.0000
vt 0.0510 0.8256 0.0000
vt 0.0493 0.8233 0.0000
vt 0.1631 0.8250 0.0000
vt 0.1600 0.8293 0.0000
vt 0.1353 0.8298 0.0000
vt 0.0507 0.8291 0.0000
vt 0.8506 0.3107 0.0000
vt 0.8506 0.8236 0.0000
vt 0.1619 0.3114 0.0000
vt 0.1370 0.3106 0.0000
vt 0.0522 0.3105 0.0000
vt 0.2028 0.8655 0.0000
vt 0.4504 0.8655 0.0000
vt 0.2031 0.2705 0.0000
vt 0.2031 0.2456 0.0000
vt 0.2031 0.1609 0.0000
vt 0.4506 0.1609 0.0000
vt 0.4506 0.2456 0.0000
vt 0.4506 0.2705 0.0000
vt 0.4971 0.0802 0.0000
vt 0.9613 0.0802 0.0000
vt 0.9613 0.0860 0.0000
vt 0.4971 0.0860 0.0000
vt 0.4971 0.0742 0.0000
vt 0.9613 0.0742 0.0000
vt 0.4971 0.0680 0.0000
vt 0.9613 0.0680 0.0000
vt 0.4971 0.0619 0.0000
vt 0.9613 0.0619 0.0000
vt 0.4971 0.0560 0.0000
vt 0.9613 0.0560 0.0000
vt 0.4971 0.0501 0.0000
vt 0.9613 0.0501 0.0000
vt 0.4971 0.0443 0.0000
vt 0.9613 0.0443 0.0000
vt 0.2566 0.0860 0.0000
vt 0.2566 0.0802 0.0000
vt 0.2566 0.0742 0.0000
vt 0.2566 0.0680 0.0000
vt 0.2566 0.0619 0.0000
vt 0.2566 0.0560 0.0000
vt 0.2566 0.0501 0.0000
vt 0.2566 0.0443 0.0000
vt 0.2398 0.0860 0.0000
vt 0.2398 0.0802 0.0000
vt 0.2398 0.0742 0.0000
vt 0.2398 0.0680 0.0000
vt 0.2398 0.0619 0.0000
vt 0.2398 0.0560 0.0000
vt 0.2398 0.0501 0.0000
vt 0.2398 0.0443 0.0000
vt 0.2257 0.0802 0.0000
vt 0.2257 0.0860 0.0000
vt 0.2257 0.0742 0.0000
vt 0.2257 0.0680 0.0000
vt 0.2257 0.0619 0.0000
vt 0.2257 0.0560 0.0000
vt 0.2257 0.0501 0.0000
vt 0.2257 0.0443 0.0000
vt 0.2111 0.0860 0.0000
vt 0.2111 0.0802 0.0000
vt 0.2111 0.0742 0.0000
vt 0.2111 0.0680 0.0000
vt 0.2111 0.0619 0.0000
vt 0.2111 0.0560 0.0000
vt 0.2111 0.0501 0.0000
vt 0.2111 0.0443 0.0000
vt 0.1946 0.0860 0.0000
vt 0.1946 0.0802 0.0000
vt 0.1946 0.0742 0.0000
vt 0.1946 0.0680 0.0000
vt 0.1946 0.0619 0.0000
vt 0.1946 0.0560 0.0000
vt 0.1946 0.0501 0.0000
vt 0.1946 0.0443 0.0000
vt 0.0319 0.0860 0.0000
vt 0.0319 0.0802 0.0000
vt 0.0319 0.0742 0.0000
vt 0.0319 0.0680 0.0000
vt 0.0319 0.0619 0.0000
vt 0.0319 0.0560 0.0000
vt 0.0319 0.0501 0.0000
vt 0.0319 0.0443 0.0000
# 118 texture coords

g Object001
s 4
f 1/1/1 2/2/1 3/3/1 4/4/1 
s 8
f 5/5/2 6/6/2 4/7/2 3/3/2 
f 7/8/3 8/9/4 9/10/5 10/11/6 
s off
f 4/7/7 6/6/7 8/9/7 7/8/7 
f 8/9/8 6/6/8 11/12/8 9/10/8 
f 10/11/5 9/10/5 12/13/5 
f 9/10/9 11/12/9 13/14/9 12/13/9 
f 4/7/7 7/8/7 14/15/7 
s 4
f 10/11/1 15/16/1 14/17/1 7/8/1 
s off
f 15/16/1 10/11/1 12/13/1 13/18/1 
f 2/2/7 16/19/7 5/5/7 3/3/7 
s 1
f 17/20/7 18/21/7 5/5/7 16/19/7 
s off
f 5/5/2 18/21/2 19/22/2 6/6/2 
f 6/6/10 19/22/10 20/23/10 11/12/10 
f 11/12/11 20/23/11 21/24/11 13/14/11 
s 8
f 1/25/12 22/26/12 16/19/12 2/2/12 
f 23/27/13 24/28/14 25/29/15 26/30/16 
s off
f 1/25/7 25/29/7 24/28/7 22/26/7 
f 15/31/1 13/32/1 27/33/1 28/34/1 
f 29/35/8 22/26/8 24/28/8 23/27/8 
f 26/30/13 30/36/13 23/27/13 
f 27/37/9 29/35/9 23/27/9 30/36/9 
f 1/25/7 31/38/7 25/29/7 
s 4
f 31/39/1 28/40/1 26/30/1 25/29/1 
s off
f 30/36/1 26/30/1 28/40/1 27/41/1 
f 21/24/17 32/42/17 27/43/17 13/14/17 
f 33/44/12 17/20/12 16/19/12 22/26/12 
f 34/45/18 33/44/18 22/26/18 29/35/18 
f 32/46/19 34/45/19 29/35/19 27/37/19 
f 31/47/1 14/48/1 15/31/1 28/34/1 
s 3
f 1/1/7 4/4/7 14/48/7 31/47/7 
s off
f 33/49/20 34/50/20 32/51/20 17/20/20 
f 32/51/21 21/52/21 20/53/21 17/20/21 
f 19/54/22 18/21/22 17/20/22 20/53/22 
s 7
f 35/55/23 36/56/24 37/57/25 38/58/26 
f 39/59/27 40/60/28 36/56/24 35/55/23 
s 1
f 41/61/29 42/62/30 40/60/28 39/59/27 
s 3
f 43/63/31 44/64/32 42/62/30 41/61/29 
s 7
f 45/65/33 46/66/34 44/64/32 43/63/31 
s 15
f 47/67/35 48/68/36 46/66/34 45/65/33 
s 31
f 49/69/37 50/70/38 48/68/36 47/67/35 
s 14
f 35/55/23 38/58/26 51/71/39 52/72/40 
s 23
f 39/59/27 35/55/23 52/72/40 53/73/41 
s 21
f 41/61/29 39/59/27 53/73/41 54/74/42 
s 35
f 43/63/31 41/61/29 54/74/42 55/75/43 
s 38
f 45/65/33 43/63/31 55/75/43 56/76/44 
s 78
f 47/67/35 45/65/33 56/76/44 57/77/45 
s 154
f 58/78/46 49/69/37 47/67/35 57/77/45 
s 114
f 51/71/39 59/79/47 60/80/48 52/72/40 
s 145
f 52/72/40 60/80/48 61/81/49 53/73/41 
s 21
f 53/73/41 61/81/49 62/82/50 54/74/42 
s 35
f 54/74/42 62/82/50 63/83/51 55/75/43 
s 98
f 55/75/43 63/83/51 64/84/52 56/76/44 
s 200
f 56/76/44 64/84/52 65/85/53 57/77/45 
s 176
f 57/77/45 65/85/53 66/86/54 58/78/46 
s 403
f 67/87/55 60/80/48 59/79/47 68/88/56 
s 129
f 69/89/57 61/81/49 60/80/48 67/87/55 
s 145
f 70/90/58 62/82/50 61/81/49 69/89/57 
s 3
f 71/91/59 63/83/51 62/82/50 70/90/58 
s 43
f 72/92/60 64/84/52 63/83/51 71/91/59 
s 24
f 64/84/52 72/92/60 73/93/61 65/85/53 
s 23
f 65/85/53 73/93/61 74/94/62 66/86/54 
s 135
f 68/88/56 75/95/63 76/96/64 67/87/55 
s 131
f 77/97/65 69/89/57 67/87/55 76/96/64 
s 129
f 78/98/66 70/90/58 69/89/57 77/97/65 
s 1
f 79/99/67 71/91/59 70/90/58 78/98/66 
s 9
f 80/100/68 72/92/60 71/91/59 79/99/67 
s 11
f 72/92/60 80/100/68 81/101/69 73/93/61 
s 3
f 73/93/61 81/101/69 82/102/70 74/94/62 
s 5
f 75/95/63 83/103/71 84/104/72 76/96/64 
s 1
f 76/96/64 84/104/72 85/105/73 77/97/65 
f 77/97/65 85/105/73 86/106/74 78/98/66 
f 78/98/66 86/106/74 87/107/75 79/99/67 
f 79/99/67 87/107/75 88/108/76 80/100/68 
s 3
f 80/100/68 88/108/76 89/109/77 81/101/69 
f 81/101/69 89/109/77 90/110/78 82/102/70 
s 1
f 91/111/79 92/112/80 84/104/72 83/103/71 
f 92/112/80 93/113/81 85/105/73 84/104/72 
f 85/105/73 93/113/81 94/114/82 86/106/74 
f 86/106/74 94/114/82 95/115/83 87/107/75 
f 95/115/83 96/116/84 88/108/76 87/107/75 
f 96/116/84 97/117/85 89/109/77 88/108/76 
f 98/118/86 90/110/78 89/109/77 97/117/85 
# 79 polygons - 4 triangles

