# 3ds Max Wavefront OBJ Exporter v0.97b - (c)2007 guruware
# File Created: 13.11.2016 16:38:20

#
# object Cylinder001
#

v  -5.1606 -0.0000 -7.6747
v  -5.1606 -0.0000 -14.5342
v  1.8394 -0.0000 -14.5342
v  1.8394 -0.0000 -7.6747
v  -4.3636 22.8920 -10.9977
v  1.0431 22.8920 -10.9977
v  1.0431 22.8920 -11.2769
v  -4.3636 22.8920 -11.2769
v  1.8394 5.6481 -7.6330
v  -5.1606 5.6798 -7.6336
v  1.8394 19.4000 -14.5342
v  1.8394 19.4000 -7.5342
v  -5.1606 19.4000 -14.5342
v  -5.1606 19.4000 -7.5342
v  1.0431 21.3700 -11.2769
v  1.0431 21.3700 -10.9977
v  1.4250 20.4519 -9.3756
v  -4.3636 21.3700 -11.2769
v  -4.7413 20.4627 -9.3946
v  -4.3636 21.3700 -10.9977
v  -4.8934 19.5091 -7.7252
v  1.5723 19.5091 -7.7252
v  1.2437 20.3431 -9.1851
v  -4.5603 20.3532 -9.2030
# 24 vertices

vn 0.0000 -1.0000 -0.0000
vn 0.0000 1.0000 -0.0000
vn -0.0001 -0.0073 1.0000
vn 0.0000 -0.0072 1.0000
vn 1.0000 0.0000 -0.0000
vn 0.0000 -0.0000 -1.0000
vn 0.0000 0.0000 -1.0000
vn -1.0000 0.0000 -0.0000
vn 0.9254 0.3791 -0.0028
vn 0.9304 0.3666 -0.0000
vn 0.0000 0.8557 -0.5175
vn -0.9279 0.3729 -0.0014
vn -0.9270 0.3750 -0.0000
vn 0.0000 0.0000 1.0000
vn 1.0000 0.0000 0.0000
vn 0.0000 0.8703 0.4926
vn -0.0000 -0.0072 1.0000
vn -0.0000 0.8683 0.4960
vn 0.0000 0.8683 0.4960
# 19 vertex normals

vt 0.3129 0.2353 0.0000
vt 0.3129 0.0386 0.0000
vt 0.5136 0.0386 0.0000
vt 0.5136 0.2353 0.0000
vt 0.3359 0.9497 0.0000
vt 0.4909 0.9497 0.0000
vt 0.4909 0.9577 0.0000
vt 0.3359 0.9577 0.0000
vt 0.5137 0.4004 0.0000
vt 0.3129 0.3982 0.0000
vt 0.7104 0.2338 0.0000
vt 0.7146 0.7901 0.0000
vt 0.5138 0.7917 0.0000
vt 0.9111 0.2323 0.0000
vt 0.9154 0.7886 0.0000
vt 0.1162 0.2339 0.0000
vt 0.3130 0.7917 0.0000
vt 0.1122 0.7902 0.0000
vt 0.6217 0.8518 0.0000
vt 0.6137 0.8519 0.0000
vt 0.5358 0.8050 0.0000
vt 0.8934 0.8979 0.0000
vt 0.7384 0.8992 0.0000
vt 0.2904 0.8054 0.0000
vt 0.2132 0.8519 0.0000
vt 0.2052 0.8519 0.0000
vt 0.3359 0.9060 0.0000
vt 0.4909 0.9060 0.0000
vt 0.6220 0.8955 0.0000
vt 0.6140 0.8955 0.0000
vt 0.8938 0.9416 0.0000
vt 0.7387 0.9428 0.0000
vt 0.2128 0.8956 0.0000
vt 0.2048 0.8955 0.0000
vt 0.3182 0.8176 0.0000
vt 0.5087 0.8170 0.0000
# 36 texture coords

g Cylinder001
s 2
f 1/1/1 2/2/1 3/3/1 4/4/1 
s 4
f 5/5/2 6/6/2 7/7/2 8/8/2 
s 8
f 4/4/3 9/9/3 10/10/3 1/1/4 
s 16
f 4/4/5 3/11/5 11/12/5 9/9/5 
f 11/12/5 12/13/5 9/9/5 
s 32
f 3/11/6 2/14/7 13/15/6 11/12/7 
s 64
f 2/16/8 1/1/8 10/10/8 14/17/8 
f 2/16/8 14/17/8 13/18/8 
s off
f 11/12/9 15/19/9 16/20/9 17/21/9 
f 12/13/10 11/12/10 17/21/10 
f 11/12/11 13/15/11 18/22/11 15/23/11 
f 13/18/12 14/17/12 19/24/12 20/25/12 
f 13/18/13 20/25/13 18/26/13 
f 20/27/14 16/28/14 6/6/14 5/5/14 
f 16/20/15 15/19/15 7/29/15 6/30/15 
f 15/23/6 18/22/6 8/31/6 7/32/6 
f 18/26/8 20/25/8 5/33/8 8/34/8 
f 16/28/16 20/27/16 19/35/16 17/36/16 
s 8
f 12/13/17 14/17/4 10/10/3 9/9/3 
s off
f 21/17/18 22/13/18 23/36/18 24/35/18 
f 14/17/19 12/13/19 22/13/19 21/17/19 
f 12/13/18 17/36/18 23/36/18 22/13/18 
f 17/36/18 19/35/18 24/35/18 23/36/18 
f 19/35/18 14/17/18 21/17/18 24/35/18 
# 20 polygons - 4 triangles

