# 3ds Max Wavefront OBJ Exporter v0.97b - (c)2007 guruware
# File Created: 27.11.2016 21:49:21

mtllib Yogurt_Txt.mtl

#
# object yogurt_000
#

v  3.0518 0.0000 -1.0002
v  3.3646 6.7240 -1.1126
v  3.3646 6.7240 1.1142
v  3.0518 0.0000 1.0016
v  2.7989 6.7240 -2.0918
v  2.5436 0.0000 -1.8804
v  0.8704 6.7240 -3.2053
v  0.8099 0.0000 -2.8814
v  -0.8704 6.7240 -3.2053
v  -0.8099 0.0000 -2.8814
v  -2.7988 6.7240 -2.0918
v  -2.5436 0.0000 -1.8804
v  -3.3646 6.7240 -1.1126
v  -3.0518 0.0000 -1.0002
v  -3.3646 6.7240 1.1142
v  -3.0518 0.0000 1.0016
v  -2.7988 6.7240 2.0933
v  -2.5436 0.0000 1.8819
v  -0.8704 6.7240 3.2067
v  -0.8099 0.0000 2.8829
v  0.8704 6.7240 3.2067
v  0.8099 0.0000 2.8829
v  2.7989 6.7240 2.0933
v  2.5436 0.0000 1.8819
v  3.8710 6.7240 -1.6091
v  3.8710 6.7240 1.6091
v  3.4097 6.7240 -2.6151
v  1.8059 6.7240 -3.6716
v  -1.8059 6.7240 -3.6716
v  -3.4097 6.7240 -2.6151
v  -3.8710 6.7240 -1.6091
v  -3.8710 6.7240 1.6091
v  -3.4097 6.7240 2.6150
v  -1.8059 6.7240 3.6716
v  1.8059 6.7240 3.6716
v  3.4097 6.7240 2.6150
v  3.3110 6.7928 -1.0982
v  3.2639 5.7886 -1.0813
v  3.2639 5.7886 1.0827
v  3.3110 6.7928 1.0998
v  2.7546 6.7908 -2.0546
v  2.7169 5.7901 -2.0229
v  0.8603 6.7908 -3.1484
v  0.8518 5.7901 -3.0998
v  -0.8603 6.7908 -3.1484
v  -0.8518 5.7901 -3.0998
v  -2.7546 6.7908 -2.0546
v  -2.7168 5.7901 -2.0229
v  -3.3110 6.7928 -1.0982
v  -3.2638 5.7886 -1.0813
v  -3.3110 6.7928 1.0998
v  -3.2639 5.7886 1.0827
v  -2.7546 6.7908 2.0561
v  -2.7168 5.7901 2.0245
v  -0.8603 6.7908 3.1498
v  -0.8518 5.7901 3.1013
v  0.8603 6.7908 3.1498
v  0.8518 5.7901 3.1013
v  2.7546 6.7908 2.0561
v  2.7169 5.7901 2.0245
v  3.8710 6.8124 -1.6091
v  3.8710 6.8124 1.6091
v  3.4097 6.8124 -2.6151
v  1.8059 6.8124 -3.6716
v  -1.8059 6.8124 -3.6716
v  -3.4097 6.8124 -2.6151
v  -3.8710 6.8124 -1.6091
v  -3.8710 6.8124 1.6091
v  -3.4097 6.8124 2.6150
v  -1.8059 6.8124 3.6716
v  1.8059 6.8124 3.6716
v  3.4097 6.8124 2.6150
v  -1.9867 10.5598 2.8509
v  -2.1647 10.5611 2.7242
v  -2.3730 10.4847 3.0163
v  -2.1950 10.4834 3.1428
v  -1.4957 9.9228 3.0343
v  -1.7040 9.8464 3.3264
v  -1.2154 5.7309 2.5979
v  -0.9980 5.7309 2.2924
v  -2.2240 5.7309 1.8786
v  -2.7135 9.8537 2.6083
v  -2.5052 9.9301 2.3162
v  -2.0066 5.7309 1.5729
v  -1.5837 10.2754 3.0638
v  -1.7920 10.1990 3.3559
v  -2.7091 10.2056 2.7035
v  -2.5008 10.2820 2.4114
v  -1.9492 10.0582 3.2070
v  -1.8896 9.8193 3.1870
v  -2.1795 10.1954 3.0785
v  -2.3201 10.1964 2.9785
v  -2.5182 10.0623 2.8022
v  -2.5211 9.8238 2.7376
v  -2.0352 5.7309 2.0132
v  -2.3098 10.1387 2.5101
v  -2.3128 9.9002 2.4455
v  -2.1118 10.2728 2.6865
v  -1.9712 10.2718 2.7864
v  -1.7409 10.1346 2.9149
v  -1.6812 9.8957 2.8949
v  -1.1868 5.7309 2.1576
v  -1.4042 5.7309 2.4633
v  -1.8178 5.7309 1.7076
# 104 vertices

vn 0.9649 -0.0492 -0.2579
vn 0.9646 -0.0492 -0.2593
vn 0.9645 -0.0492 0.2593
vn 0.9649 -0.0492 0.2578
vn 0.7067 -0.0490 -0.7058
vn 0.7057 -0.0490 -0.7068
vn 0.2579 -0.0488 -0.9649
vn 0.2591 -0.0488 -0.9646
vn -0.2579 -0.0488 -0.9649
vn -0.2591 -0.0488 -0.9646
vn -0.7067 -0.0490 -0.7058
vn -0.7057 -0.0490 -0.7068
vn -0.9645 -0.0492 -0.2593
vn -0.9649 -0.0492 -0.2579
vn -0.9645 -0.0492 0.2593
vn -0.9649 -0.0492 0.2578
vn -0.7067 -0.0490 0.7059
vn -0.7057 -0.0490 0.7068
vn -0.2579 -0.0488 0.9649
vn -0.2591 -0.0488 0.9646
vn 0.2579 -0.0488 0.9649
vn 0.2591 -0.0488 0.9646
vn 0.7067 -0.0490 0.7058
vn 0.7057 -0.0490 0.7068
vn 0.0000 -1.0000 -0.0000
vn -0.9989 0.0469 -0.0000
vn -0.7057 0.0490 0.7068
vn -0.7048 0.0491 0.7077
vn -0.8636 0.0490 0.5018
vn -0.8635 0.0487 0.5020
vn -0.2578 0.0491 0.9649
vn -0.2592 0.0490 0.9646
vn 0.2578 0.0491 0.9649
vn 0.2592 0.0490 0.9646
vn 0.7058 0.0492 0.7067
vn 0.7049 0.0490 0.7076
vn 0.8634 0.0490 0.5022
vn 0.8635 0.0488 0.5020
vn 0.9989 0.0469 -0.0000
vn 0.9989 0.0470 -0.0000
vn 0.7057 0.0490 -0.7068
vn 0.7048 0.0492 -0.7077
vn 0.8636 0.0490 -0.5018
vn 0.8635 0.0488 -0.5020
vn 0.2578 0.0490 -0.9650
vn 0.2592 0.0490 -0.9646
vn -0.2578 0.0490 -0.9650
vn -0.2592 0.0490 -0.9646
vn -0.7058 0.0491 -0.7067
vn -0.7049 0.0490 -0.7076
vn -0.8634 0.0490 -0.5022
vn -0.8635 0.0487 -0.5020
vn -0.0273 0.9996 0.0080
vn -0.0310 0.9995 0.0044
vn -0.0310 0.9995 -0.0044
vn -0.0273 0.9996 -0.0080
vn -0.0185 0.9997 0.0165
vn -0.0190 0.9997 0.0163
vn -0.0098 0.9996 0.0246
vn -0.0033 0.9994 0.0353
vn 0.0098 0.9996 0.0246
vn 0.0033 0.9994 0.0353
vn 0.0190 0.9997 0.0163
vn 0.0185 0.9997 0.0165
vn 0.0273 0.9996 0.0080
vn 0.0310 0.9995 0.0044
vn 0.0273 0.9996 -0.0080
vn 0.0310 0.9995 -0.0044
vn 0.0185 0.9997 -0.0165
vn 0.0190 0.9997 -0.0163
vn 0.0099 0.9996 -0.0247
vn 0.0033 0.9994 -0.0354
vn -0.0099 0.9996 -0.0247
vn -0.0033 0.9994 -0.0354
vn -0.0190 0.9997 -0.0163
vn -0.0185 0.9997 -0.0165
vn 0.9770 0.0000 0.2133
vn 0.9770 0.0000 -0.2133
vn 0.7589 0.0000 -0.6512
vn 0.2871 0.0000 -0.9579
vn -0.2871 0.0000 -0.9579
vn -0.7589 0.0000 -0.6512
vn -0.9770 0.0000 -0.2133
vn -0.9770 0.0000 0.2133
vn -0.7590 0.0000 0.6511
vn -0.2872 0.0000 0.9579
vn 0.2872 0.0000 0.9579
vn 0.7590 0.0000 0.6511
vn 0.1160 0.9375 0.3281
vn -0.3390 0.9408 0.0043
vn -0.3389 0.9408 0.0044
vn 0.1160 0.9375 0.3280
vn 0.8034 0.0704 0.5913
vn 0.8033 0.0704 0.5913
vn 0.8148 -0.0059 0.5797
vn -0.8148 0.0058 -0.5797
vn -0.8215 0.0821 -0.5643
vn 0.6177 0.5315 0.5796
vn 0.6176 0.5315 0.5797
vn -0.7450 0.5413 -0.3897
vn -0.7451 0.5413 -0.3897
vn -0.5679 -0.2082 0.7963
vn -0.5679 -0.2083 0.7963
vn -0.5680 -0.2083 0.7962
vn -0.5680 -0.2084 0.7962
vn -0.5678 -0.2084 0.7963
vn 0.5679 0.2083 -0.7963
vn 0.5680 0.2084 -0.7962
vn 0.5680 0.2085 -0.7962
vn 0.5681 0.2085 -0.7961
vn 0.5681 0.2084 -0.7961
vn 0.5678 0.2084 -0.7963
vn 0.0004 1.0000 0.0012
vn -0.0003 1.0000 -0.0004
vn 0.0000 1.0000 -0.0000
vn -0.0004 1.0000 -0.0012
vn 0.0003 1.0000 0.0004
vn 0.5679 0.2084 -0.7963
vn 0.5680 0.2083 -0.7962
vn -0.5680 -0.2083 0.7963
# 120 vertex normals

vt 0.4971 0.1633 0.0000
vt 0.1921 0.1633 0.0000
vt 0.1921 0.0898 0.0000
vt 0.4971 0.0898 0.0000
vt 0.1921 0.2342 0.0000
vt 0.4971 0.2342 0.0000
vt 0.1921 0.3076 0.0000
vt 0.4971 0.3076 0.0000
vt 0.1921 0.3924 0.0000
vt 0.4971 0.3924 0.0000
vt 0.1921 0.4795 0.0000
vt 0.4971 0.4795 0.0000
vt 0.1921 0.5504 0.0000
vt 0.4971 0.5504 0.0000
vt 0.1921 0.6239 0.0000
vt 0.4971 0.6239 0.0000
vt 0.1921 0.6948 0.0000
vt 0.4971 0.6948 0.0000
vt 0.1921 0.7683 0.0000
vt 0.4971 0.7683 0.0000
vt 0.1921 0.8530 0.0000
vt 0.4971 0.8530 0.0000
vt 0.1921 0.9413 0.0000
vt 0.4971 0.9413 0.0000
vt 0.1921 0.0386 0.0000
vt 0.4971 0.0386 0.0000
vt 0.1301 0.0427 0.0000
vt 0.1548 0.0570 0.0000
vt 0.1829 0.1056 0.0000
vt 0.0740 0.0427 0.0000
vt 0.1829 0.1511 0.0000
vt 0.1548 0.1997 0.0000
vt 0.1301 0.2140 0.0000
vt 0.0740 0.2140 0.0000
vt 0.0493 0.1997 0.0000
vt 0.0212 0.1511 0.0000
vt 0.0212 0.1056 0.0000
vt 0.0493 0.0570 0.0000
vt 0.5717 0.9852 0.0000
vt 0.6262 0.9852 0.0000
vt 0.6384 0.9976 0.0000
vt 0.5595 0.9976 0.0000
vt 0.6502 0.9713 0.0000
vt 0.6630 0.9863 0.0000
vt 0.6775 0.9241 0.0000
vt 0.6889 0.9470 0.0000
vt 0.6775 0.8815 0.0000
vt 0.6889 0.8586 0.0000
vt 0.6502 0.8342 0.0000
vt 0.6630 0.8193 0.0000
vt 0.6262 0.8204 0.0000
vt 0.6384 0.8080 0.0000
vt 0.5717 0.8204 0.0000
vt 0.5595 0.8080 0.0000
vt 0.5477 0.8342 0.0000
vt 0.5349 0.8193 0.0000
vt 0.5204 0.8815 0.0000
vt 0.5090 0.8586 0.0000
vt 0.5204 0.9241 0.0000
vt 0.5090 0.9470 0.0000
vt 0.5477 0.9713 0.0000
vt 0.5349 0.9863 0.0000
vt 0.8741 0.5314 0.0000
vt 0.8624 0.5728 0.0000
vt 0.7803 0.5728 0.0000
vt 0.7686 0.5314 0.0000
vt 0.9213 0.5598 0.0000
vt 0.8900 0.5894 0.0000
vt 0.9688 0.6535 0.0000
vt 0.9265 0.6637 0.0000
vt 0.9688 0.7369 0.0000
vt 0.9265 0.7268 0.0000
vt 0.9213 0.8307 0.0000
vt 0.8901 0.8011 0.0000
vt 0.8742 0.8590 0.0000
vt 0.8624 0.8177 0.0000
vt 0.7686 0.8590 0.0000
vt 0.7803 0.8177 0.0000
vt 0.7214 0.8307 0.0000
vt 0.7527 0.8011 0.0000
vt 0.6739 0.7369 0.0000
vt 0.7162 0.7268 0.0000
vt 0.6739 0.6535 0.0000
vt 0.7162 0.6637 0.0000
vt 0.7214 0.5598 0.0000
vt 0.7527 0.5894 0.0000
vt 0.8972 0.5083 0.0000
vt 0.7456 0.5083 0.0000
vt 0.9460 0.5318 0.0000
vt 0.9918 0.6107 0.0000
vt 0.9918 0.7797 0.0000
vt 0.9460 0.8586 0.0000
vt 0.8972 0.8822 0.0000
vt 0.7456 0.8822 0.0000
vt 0.6968 0.8586 0.0000
vt 0.6510 0.7797 0.0000
vt 0.6510 0.6107 0.0000
vt 0.6968 0.5318 0.0000
vt 0.7448 0.5052 0.0000
vt 0.8980 0.5052 0.0000
vt 0.9478 0.5296 0.0000
vt 0.9948 0.6098 0.0000
vt 0.9948 0.7807 0.0000
vt 0.9478 0.8609 0.0000
vt 0.8980 0.8853 0.0000
vt 0.7448 0.8853 0.0000
vt 0.6950 0.8609 0.0000
vt 0.6480 0.7807 0.0000
vt 0.6480 0.6098 0.0000
vt 0.6950 0.5296 0.0000
vt 0.1090 0.6681 0.0000
vt 0.0980 0.6682 0.0000
vt 0.0933 0.6476 0.0000
vt 0.1134 0.6475 0.0000
vt 0.1420 0.7033 0.0000
vt 0.1638 0.6976 0.0000
vt 0.1679 0.9651 0.0000
vt 0.1447 0.9717 0.0000
vt 0.0416 0.9661 0.0000
vt 0.0434 0.6981 0.0000
vt 0.0652 0.7036 0.0000
vt 0.0649 0.9725 0.0000
vt 0.1355 0.6838 0.0000
vt 0.1508 0.6698 0.0000
vt 0.0562 0.6702 0.0000
vt 0.0716 0.6840 0.0000
vt 0.1536 0.5946 0.0000
vt 0.1491 0.6239 0.0000
vt 0.1317 0.6122 0.0000
vt 0.1347 0.5923 0.0000
vt 0.1103 0.6236 0.0000
vt 0.0963 0.6236 0.0000
vt 0.0575 0.6243 0.0000
vt 0.0748 0.6124 0.0000
vt 0.0527 0.5950 0.0000
vt 0.0716 0.5925 0.0000
vt 0.0513 0.2518 0.0000
vt 0.0702 0.2518 0.0000
vt 0.0826 0.6934 0.0000
vt 0.0794 0.7074 0.0000
vt 0.0986 0.6855 0.0000
vt 0.1085 0.6854 0.0000
vt 0.1246 0.6933 0.0000
vt 0.1279 0.7072 0.0000
vt 0.1295 0.9737 0.0000
vt 0.1522 0.2519 0.0000
vt 0.1333 0.2519 0.0000
vt 0.0801 0.9742 0.0000
vt 0.9830 0.3100 0.0000
vt 0.9081 0.4443 0.0000
vt 0.8444 0.4801 0.0000
vt 0.9830 0.1897 0.0000
vt 0.6893 0.4801 0.0000
vt 0.6256 0.4443 0.0000
vt 0.5507 0.3101 0.0000
vt 0.6892 0.0197 0.0000
vt 0.5507 0.1897 0.0000
vt 0.6256 0.0555 0.0000
vt 0.8444 0.0197 0.0000
vt 0.9080 0.0555 0.0000
# 160 texture coords

g yogurt_000
usemtl 09___Default
s 1
f 1/1/1 2/2/2 3/3/3 4/4/4 
f 5/5/5 2/2/2 1/1/1 6/6/6 
f 7/7/7 5/5/5 6/6/6 8/8/8 
f 9/9/9 7/7/7 8/8/8 10/10/10 
f 11/11/11 9/9/9 10/10/10 12/12/12 
f 13/13/13 11/11/11 12/12/12 14/14/14 
f 15/15/15 13/13/13 14/14/14 16/16/16 
f 17/17/17 15/15/15 16/16/16 18/18/18 
f 19/19/19 17/17/17 18/18/18 20/20/20 
f 21/21/21 19/19/19 20/20/20 22/22/22 
f 23/23/23 21/21/21 22/22/22 24/24/24 
f 3/3/3 23/25/23 24/26/24 4/4/4 
s 2
f 14/27/25 12/28/25 10/29/25 16/30/25 
f 8/31/25 6/32/25 1/33/25 10/29/25 
f 4/34/25 24/35/25 22/36/25 1/33/25 
f 10/29/25 1/33/25 22/36/25 16/30/25 
f 16/30/25 22/36/25 20/37/25 18/38/25 
f 3/39/25 2/40/25 25/41/25 26/42/25 
f 25/41/25 2/40/25 5/43/25 27/44/25 
f 5/43/25 7/45/25 28/46/25 27/44/25 
f 7/45/25 9/47/25 29/48/25 28/46/25 
f 11/49/25 30/50/25 29/48/25 9/47/25 
f 11/49/25 13/51/25 31/52/25 30/50/25 
f 13/51/25 15/53/25 32/54/25 31/52/25 
f 32/54/25 15/53/25 17/55/25 33/56/25 
f 17/55/25 19/57/25 34/58/25 33/56/25 
f 19/57/25 21/59/25 35/60/25 34/58/25 
f 23/61/25 36/62/25 35/60/25 21/59/25 
f 23/61/25 3/39/25 26/42/25 36/62/25 
s 1
f 37/63/26 38/64/26 39/65/26 40/66/26 
s 2
f 41/67/27 42/68/28 38/64/29 37/63/30 
f 43/69/31 44/70/32 42/68/28 41/67/27 
f 45/71/33 46/72/34 44/70/32 43/69/31 
f 47/73/35 48/74/36 46/72/34 45/71/33 
f 49/75/37 50/76/38 48/74/36 47/73/35 
s 1
f 51/77/39 52/78/39 50/76/40 49/75/39 
s 2
f 53/79/41 54/80/42 52/78/43 51/77/44 
f 55/81/45 56/82/46 54/80/42 53/79/41 
f 57/83/47 58/84/48 56/82/46 55/81/45 
f 59/85/49 60/86/50 58/84/48 57/83/47 
f 40/66/51 39/65/52 60/86/50 59/85/49 
s 4
f 61/87/53 37/63/54 40/66/55 62/88/56 
f 41/67/57 37/63/54 61/87/53 63/89/58 
f 64/90/59 43/69/60 41/67/57 63/89/58 
f 65/91/61 45/71/62 43/69/60 64/90/59 
f 65/91/61 66/92/63 47/73/64 45/71/62 
f 47/73/64 66/92/63 67/93/65 49/75/66 
f 68/94/67 51/77/68 49/75/66 67/93/65 
f 53/79/69 51/77/68 68/94/67 69/95/70 
f 70/96/71 55/81/72 53/79/69 69/95/70 
f 71/97/73 57/83/74 55/81/72 70/96/71 
f 71/97/73 72/98/75 59/85/76 57/83/74 
f 59/85/76 72/98/75 62/88/56 40/66/55 
s 1
f 26/99/77 25/100/78 61/87/78 62/88/77 
f 25/100/78 27/101/79 63/89/79 61/87/78 
f 64/90/80 63/89/79 27/101/79 28/102/80 
f 28/102/80 29/103/81 65/91/81 64/90/80 
f 66/92/82 65/91/81 29/103/81 30/104/82 
f 30/104/82 31/105/83 67/93/83 66/92/82 
f 31/105/83 32/106/84 68/94/84 67/93/83 
f 32/106/84 33/107/85 69/95/85 68/94/84 
f 70/96/86 69/95/85 33/107/85 34/108/86 
f 34/108/86 35/109/87 71/97/87 70/96/86 
f 72/98/88 71/97/87 35/109/87 36/110/88 
f 36/110/88 26/99/77 62/88/77 72/98/88 
s 4
f 73/111/89 74/112/90 75/113/91 76/114/92 
f 77/115/93 78/116/94 79/117/95 80/118/95 
f 81/119/96 82/120/97 83/121/97 84/122/96 
f 85/123/98 73/111/89 76/114/92 86/124/99 
f 87/125/100 75/113/91 74/112/90 88/126/101 
f 86/124/99 78/116/94 77/115/93 85/123/98 
f 88/126/101 83/121/97 82/120/97 87/125/100 
s off
f 78/127/102 86/128/102 89/129/102 90/130/102 
f 86/128/103 76/114/103 91/131/103 89/129/103 
f 92/132/103 91/131/103 76/114/103 75/113/103 
f 92/132/104 75/113/104 87/133/104 93/134/104 
f 82/135/105 94/136/105 93/134/105 87/133/105 
f 81/137/106 95/138/106 94/136/106 82/135/106 
f 83/121/107 88/126/107 96/139/107 97/140/107 
f 88/126/108 74/112/108 98/141/108 96/139/108 
f 99/142/109 98/141/109 74/112/109 73/111/109 
f 99/142/109 73/111/109 85/123/109 100/143/109 
f 77/115/110 101/144/110 100/143/110 85/123/110 
f 80/118/111 102/145/111 101/144/111 77/115/111 
f 79/146/105 78/127/105 90/130/105 103/147/105 
f 84/122/112 83/121/112 97/140/112 104/148/112 
f 46/149/113 48/150/113 50/151/113 44/152/113 
f 52/153/114 54/154/114 56/155/114 50/151/114 
f 44/152/115 50/151/115 56/155/115 39/156/115 
f 58/157/116 60/158/116 39/156/116 56/155/116 
f 44/152/117 39/156/117 38/159/117 42/160/117 
s 1
f 101/144/118 102/145/108 104/148/108 97/140/118 
s off
f 96/139/119 98/141/119 99/142/119 97/140/119 
f 101/144/108 97/140/108 99/142/108 100/143/108 
s 1
f 94/136/105 95/138/105 103/147/105 90/130/105 
s off
f 94/136/105 90/130/105 92/132/105 93/134/105 
f 92/132/120 90/130/120 89/129/120 91/131/120 
# 97 polygons

