# 3ds Max Wavefront OBJ Exporter v0.97b - (c)2007 guruware
# File Created: 26.10.2016 13:58:11

mtllib Cooling_Unit.mtl

#
# object Box044
#

v  251.4240 13.1902 -1216.3810
v  -252.4559 13.1901 -1216.3810
v  -252.4559 13.1901 -1228.6370
v  251.4240 13.1902 -1228.6370
v  251.4240 171.3307 -1173.1134
v  251.4240 182.1884 -1173.1134
v  -252.4559 182.1884 -1173.1134
v  -252.4559 171.3307 -1173.1134
v  251.4240 182.1884 -1216.3810
v  -252.4559 182.1884 -1216.3810
v  251.4240 182.1884 -1228.6370
v  251.4240 171.3307 -1228.6370
v  -252.4559 171.3307 -1228.6370
v  -252.4559 182.1884 -1228.6370
v  -252.4559 171.3307 -1216.3810
v  251.4240 171.3307 -1216.3810
v  251.4240 22.1101 -1228.6370
v  -252.4559 22.1100 -1228.6370
v  -252.4559 22.1100 -1216.3810
v  251.4240 22.1101 -1216.3810
v  -252.4560 13.1901 -1136.5737
v  251.4240 13.1901 -1136.5736
v  251.4240 22.1101 -1136.5736
v  -252.4560 22.1100 -1136.5737
v  251.4240 13.1901 -1144.4442
v  -252.4560 13.1901 -1144.4442
v  -252.4560 22.1100 -1144.4442
v  251.4240 22.1101 -1144.4442
v  -252.4559 47.4499 -1136.5737
v  251.4240 47.4499 -1136.5736
v  251.4240 47.4499 -1144.4442
v  -252.4559 47.4499 -1144.4442
v  -263.7310 186.3969 -1173.1133
v  -263.7309 0.0000 -1228.6368
v  -263.7310 182.1470 -1163.0957
v  -263.7310 185.3344 -1167.2988
v  -252.4559 0.0000 -1228.6368
v  -263.7309 186.3969 -1228.6368
v  -252.4559 186.3969 -1228.6368
v  -252.4560 0.0000 -1120.4188
v  -263.7310 0.0000 -1120.4188
v  -252.4559 186.3969 -1173.1133
v  -252.4559 176.8347 -1160.5040
v  -263.7310 176.8347 -1160.5040
v  -252.4559 185.3344 -1167.2988
v  -252.4559 182.1470 -1163.0957
v  262.6990 186.3969 -1173.1133
v  262.6990 185.3344 -1167.2988
v  262.6990 182.1470 -1163.0958
v  262.6990 0.0000 -1228.6368
v  251.4240 0.0000 -1228.6368
v  251.4240 186.3969 -1228.6368
v  262.6990 186.3969 -1228.6368
v  262.6990 -0.0000 -1120.4188
v  251.4240 -0.0000 -1120.4188
v  251.4240 186.3969 -1173.1133
v  262.6990 176.8347 -1160.5042
v  251.4240 176.8347 -1160.5042
v  251.4240 185.3344 -1167.2988
v  251.4240 182.1470 -1163.0957
v  -252.4559 88.4823 -1148.1421
v  -252.4559 88.4823 -1216.3811
v  251.4240 88.4822 -1216.3811
v  251.4239 88.4822 -1148.1421
v  -252.4559 92.8654 -1216.3811
v  -252.4559 92.8654 -1153.5820
v  251.4239 92.8653 -1153.5820
v  251.4240 92.8653 -1216.3811
v  -252.4559 131.8582 -1148.1421
v  -252.4559 131.8582 -1216.3811
v  251.4239 131.8581 -1216.3811
v  251.4239 131.8581 -1148.1421
v  -252.4559 136.2413 -1216.3811
v  -252.4559 136.2413 -1153.5820
v  251.4239 136.2412 -1153.5820
v  251.4239 136.2412 -1216.3811
# 76 vertices

vn 0.0000 -1.0000 0.0000
vn -0.0000 0.0000 1.0000
vn -0.0000 1.0000 0.0000
vn -0.0000 1.0000 -0.0000
vn 0.0000 -0.0000 -1.0000
vn 0.0000 -1.0000 -0.0000
vn 0.0000 0.0000 -1.0000
vn -0.0000 -0.0000 1.0000
vn -1.0000 -0.0000 -0.0000
vn -0.0000 0.0000 -1.0000
vn 0.0000 0.9959 0.0902
vn 0.0000 1.0000 0.0000
vn 0.0000 0.2211 0.9753
vn 0.0000 0.3320 0.9433
vn 0.0000 0.9152 0.4030
vn 0.0000 0.6349 0.7726
vn 1.0000 -0.0000 0.0000
vn -1.0000 0.0000 0.0000
vn -1.0000 0.0000 -0.0000
vn 1.0000 0.0000 0.0000
vn -0.0000 0.9959 0.0902
vn -0.0000 0.9152 0.4030
vn -0.0000 -1.0000 -0.0000
vn 0.0000 0.7787 0.6274
# 24 vertex normals

vt 0.5915 -0.6428 0.0000
vt 1.6055 -0.6428 0.0000
vt 1.6055 -0.6228 0.0000
vt 0.5915 -0.6228 0.0000
vt 0.5915 -0.1402 0.0000
vt 0.5915 -0.1579 0.0000
vt 1.6055 -0.1579 0.0000
vt 1.6055 -0.1402 0.0000
vt 0.5915 -0.2810 0.0000
vt 1.6055 -0.2810 0.0000
vt 0.5915 -0.3010 0.0000
vt 0.5915 -0.3187 0.0000
vt 1.6055 -0.3187 0.0000
vt 1.6055 -0.3010 0.0000
vt 1.6055 -0.0171 0.0000
vt 0.5915 -0.0171 0.0000
vt 0.5915 -0.6083 0.0000
vt 1.6055 -0.6083 0.0000
vt 1.6055 0.2725 0.0000
vt 0.5915 0.2725 0.0000
vt 1.6055 -0.8255 0.0000
vt 0.5915 -0.8255 0.0000
vt 0.5915 -0.8400 0.0000
vt 1.6055 -0.8400 0.0000
vt 0.5915 -0.8126 0.0000
vt 1.6055 -0.8126 0.0000
vt 1.6055 0.4423 0.0000
vt 0.5915 0.4423 0.0000
vt 1.6055 0.4964 0.0000
vt 0.5915 0.4964 0.0000
vt 0.5915 0.4836 0.0000
vt 1.6055 0.4836 0.0000
vt 0.5915 -0.8813 0.0000
vt 1.6055 -0.8813 0.0000
vt -0.6309 -0.3223 0.0000
vt -0.3557 -0.9959 0.0000
vt -0.6623 -0.3357 0.0000
vt -0.6491 -0.3257 0.0000
vt -0.3203 -0.9959 0.0000
vt -0.3557 -0.3223 0.0000
vt -0.3203 -0.3223 0.0000
vt -0.3203 -1.0312 0.0000
vt 0.1739 -0.9929 0.0000
vt 0.1747 -1.0312 0.0000
vt -0.0451 -0.2870 0.0000
vt -0.0451 -0.3223 0.0000
vt -0.3203 -0.2870 0.0000
vt 0.2077 -0.9802 0.0000
vt -0.0047 -0.3553 0.0000
vt 0.0308 -0.3486 0.0000
vt -0.0269 -0.2870 0.0000
vt -0.0269 -0.3223 0.0000
vt -0.0137 -0.2870 0.0000
vt -0.0137 -0.3223 0.0000
vt -0.0085 -0.3419 0.0000
vt 0.0262 -0.3322 0.0000
vt -0.8507 -0.9926 0.0000
vt -0.6704 -0.3490 0.0000
vt -0.0269 -0.3257 0.0000
vt -0.0137 -0.3357 0.0000
vt -0.0476 0.7677 0.0000
vt -0.0476 0.6100 0.0000
vt 1.1088 0.6100 0.0000
vt 1.1088 0.7677 0.0000
vt -0.0476 0.9255 0.0000
vt -0.0476 0.7778 0.0000
vt 1.1088 0.7778 0.0000
vt 1.1088 0.9255 0.0000
# 68 texture coords

g Box044
usemtl 03___Default
s 8
f 1/1/1 2/2/1 3/3/1 4/4/1 
s 16
f 5/5/2 6/6/2 7/7/2 8/8/2 
s 32
f 9/9/3 10/10/4 7/7/3 6/6/3 
s 64
f 11/11/5 12/12/5 13/13/5 14/14/5 
s 8
f 5/5/6 8/8/1 15/15/6 16/16/6 
s 32
f 11/11/3 14/14/4 10/10/4 9/9/3 
usemtl 11___Default
s off
f 12/12/7 17/17/7 18/18/7 13/13/7 
f 15/15/2 19/19/2 20/20/2 16/16/2 
f 4/4/5 3/3/5 18/18/5 17/17/5 
usemtl 03___Default
f 21/21/2 22/22/2 23/23/2 24/24/2 
f 1/1/6 25/25/6 26/26/6 2/2/6 
usemtl 11___Default
f 19/19/3 27/27/3 28/28/3 20/20/3 
usemtl 03___Default
f 22/22/1 21/21/1 26/26/1 25/25/1 
usemtl 09___Default
f 29/29/4 30/30/4 31/31/4 32/32/4 
f 24/24/8 23/23/8 30/33/8 29/34/8 
f 28/28/7 27/27/7 32/32/7 31/31/7 
s 1
f 33/35/9 34/36/9 35/37/9 36/38/9 
s 2
f 37/39/10 34/36/10 38/40/10 39/41/10 
s 4
f 34/42/1 37/39/1 40/43/1 41/44/1 
s 8
f 33/45/11 42/46/11 39/41/12 38/47/12 
f 41/48/13 40/43/13 43/49/14 44/50/14 
f 36/51/15 45/52/15 42/46/11 33/45/11 
f 35/53/16 46/54/16 45/52/15 36/51/15 
f 44/50/14 43/49/14 46/55/16 35/56/16 
s off
f 40/43/17 37/39/17 43/49/17 
s 1
f 35/37/9 34/36/9 41/57/9 44/58/18 
f 34/36/9 33/35/9 38/40/19 
s off
f 42/46/17 37/39/17 39/41/17 
f 42/46/20 45/59/20 46/60/20 43/49/20 
f 37/39/20 42/46/20 43/49/20 
s 1
f 47/35/20 48/38/20 49/37/20 50/36/20 
s 2
f 51/39/10 52/41/10 53/40/10 50/36/10 
s 4
f 50/42/6 54/44/6 55/43/6 51/39/6 
s 8
f 47/45/21 53/47/3 52/41/3 56/46/21 
f 54/48/13 57/50/14 58/49/14 55/43/13 
f 48/51/22 47/45/21 56/46/21 59/52/22 
f 49/53/16 48/51/22 59/52/22 60/54/16 
f 57/50/14 49/56/16 60/55/16 58/49/14 
s off
f 55/43/9 58/49/9 51/39/9 
s 1
f 49/37/20 57/58/20 54/57/20 50/36/20 
f 50/36/20 53/40/17 47/35/20 
s off
f 56/46/19 52/41/19 51/39/19 
f 60/60/9 59/59/9 56/46/9 58/49/9 
f 51/39/9 58/49/9 56/46/9 
usemtl 06___Default
s 8
f 61/61/23 62/62/23 63/63/23 64/64/23 
s 32
f 65/65/12 66/66/12 67/67/12 68/68/12 
s 64
f 66/66/24 61/61/24 64/64/24 67/67/24 
s 8
f 69/61/23 70/62/23 71/63/23 72/64/23 
s 32
f 73/65/12 74/66/12 75/67/12 76/68/12 
s 64
f 74/66/24 69/61/24 72/64/24 75/67/24 
# 42 polygons - 8 triangles

