# 3ds Max Wavefront OBJ Exporter v0.97b - (c)2007 guruware
# File Created: 27.02.2017 03:12:49

mtllib HorizontalRafters.mtl

#
# object CeilingBearings030
#

v  -264.3127 441.9874 239.7098
v  -264.3127 428.5577 239.7098
v  269.8569 428.5577 239.7097
v  269.8569 441.9874 239.7097
v  -264.3127 428.5577 248.2164
v  269.8569 428.5577 248.2163
v  -264.3127 441.9874 248.2164
v  269.8569 441.9874 248.2163
v  -264.3127 441.9874 69.3582
v  -264.3127 428.5577 69.3582
v  269.8569 428.5577 69.3581
v  269.8569 441.9874 69.3581
v  -264.3127 428.5577 77.8648
v  269.8569 428.5577 77.8647
v  -264.3127 441.9874 77.8648
v  269.8569 441.9874 77.8647
v  -264.3127 441.9874 -100.9934
v  -264.3127 428.5577 -100.9934
v  269.8569 428.5577 -100.9935
v  269.8569 441.9874 -100.9935
v  -264.3127 428.5577 -92.4868
v  269.8569 428.5577 -92.4869
v  -264.3127 441.9874 -92.4868
v  269.8569 441.9874 -92.4869
v  -264.3126 441.9874 -271.3450
v  -264.3126 428.5577 -271.3450
v  269.8569 428.5577 -271.3451
v  269.8569 441.9874 -271.3451
v  -264.3126 428.5577 -262.8384
v  269.8569 428.5577 -262.8385
v  -264.3126 441.9874 -262.8384
v  269.8569 441.9874 -262.8385
v  -264.3126 441.9874 -441.6967
v  -264.3126 428.5577 -441.6967
v  269.8569 428.5577 -441.6968
v  269.8569 441.9874 -441.6968
v  -264.3126 428.5577 -433.1901
v  269.8569 428.5577 -433.1902
v  -264.3126 441.9874 -433.1901
v  269.8569 441.9874 -433.1902
v  -264.3127 441.9874 -612.0483
v  -264.3127 428.5577 -612.0483
v  269.8569 428.5577 -612.0485
v  269.8569 441.9874 -612.0485
v  -264.3127 428.5577 -603.5417
v  269.8569 428.5577 -603.5419
v  -264.3127 441.9874 -603.5417
v  269.8569 441.9874 -603.5419
v  -264.3127 441.9874 -782.3999
v  -264.3127 428.5577 -782.3999
v  269.8569 428.5577 -782.4000
v  269.8569 441.9874 -782.4000
v  -264.3127 428.5577 -773.8933
v  269.8569 428.5577 -773.8934
v  -264.3127 441.9874 -773.8933
v  269.8569 441.9874 -773.8934
v  -264.3127 441.9874 -952.7515
v  -264.3127 428.5577 -952.7515
v  269.8569 428.5577 -952.7516
v  269.8569 441.9874 -952.7516
v  -264.3127 428.5577 -944.2449
v  269.8569 428.5577 -944.2450
v  -264.3127 441.9874 -944.2449
v  269.8569 441.9874 -944.2450
v  291.3681 441.9874 239.7098
v  291.3681 428.5577 239.7098
v  436.8715 428.5577 239.7097
v  436.8715 441.9873 239.7097
v  291.3681 428.5577 248.2164
v  436.8715 428.5577 248.2163
v  291.3681 441.9874 248.2164
v  436.8715 441.9874 248.2163
v  291.3681 441.9874 69.3582
v  291.3681 428.5577 69.3582
v  436.8715 428.5577 69.3581
v  436.8715 441.9873 69.3581
v  291.3681 428.5577 77.8647
v  436.8715 428.5577 77.8647
v  291.3681 441.9874 77.8647
v  436.8715 441.9874 77.8647
v  291.3681 441.9874 -100.9935
v  291.3681 428.5577 -100.9935
v  436.8715 428.5577 -100.9936
v  436.8715 441.9873 -100.9936
v  291.3681 428.5577 -92.4869
v  436.8715 428.5577 -92.4870
v  291.3681 441.9874 -92.4869
v  436.8715 441.9874 -92.4870
v  291.3681 441.9874 -271.3451
v  291.3681 428.5577 -271.3451
v  436.8715 428.5577 -271.3452
v  436.8715 441.9873 -271.3452
v  291.3681 428.5577 -262.8385
v  436.8715 428.5577 -262.8386
v  291.3681 441.9874 -262.8385
v  436.8715 441.9874 -262.8386
v  291.3681 441.9874 -441.6967
v  291.3681 428.5577 -441.6967
v  436.8715 428.5577 -441.6968
v  436.8715 441.9873 -441.6968
v  291.3681 428.5577 -433.1901
v  436.8715 428.5577 -433.1902
v  291.3681 441.9874 -433.1901
v  436.8715 441.9874 -433.1902
v  291.3681 441.9874 -612.0483
v  291.3681 428.5577 -612.0483
v  436.8715 428.5577 -612.0486
v  436.8715 441.9873 -612.0486
v  291.3681 428.5577 -603.5417
v  436.8715 428.5577 -603.5420
v  291.3681 441.9874 -603.5417
v  436.8715 441.9874 -603.5420
v  291.3681 441.9874 -782.3999
v  291.3681 428.5577 -782.3999
v  436.8715 428.5577 -782.4001
v  436.8715 441.9873 -782.4001
v  291.3681 428.5577 -773.8933
v  436.8715 428.5577 -773.8936
v  291.3681 441.9874 -773.8933
v  436.8715 441.9874 -773.8936
v  291.3681 441.9874 -952.7515
v  291.3681 428.5577 -952.7515
v  436.8715 428.5577 -952.7517
v  436.8715 441.9873 -952.7517
v  291.3681 428.5577 -944.2449
v  436.8715 428.5577 -944.2451
v  291.3681 441.9874 -944.2449
v  436.8715 441.9874 -944.2451
v  -447.9970 441.9874 239.7097
v  -447.9970 428.5577 239.7097
v  -285.8239 428.5577 239.7097
v  -285.8239 441.9874 239.7097
v  -447.9970 428.5577 248.2164
v  -285.8239 428.5577 248.2163
v  -447.9970 441.9874 248.2164
v  -285.8239 441.9874 248.2163
v  -447.9970 441.9874 69.3581
v  -447.9970 428.5577 69.3581
v  -285.8239 428.5577 69.3581
v  -285.8239 441.9874 69.3581
v  -447.9970 428.5577 77.8647
v  -285.8239 428.5577 77.8647
v  -447.9970 441.9874 77.8647
v  -285.8239 441.9874 77.8647
v  -447.9970 441.9874 -100.9935
v  -447.9970 428.5577 -100.9935
v  -285.8239 428.5577 -100.9935
v  -285.8239 441.9874 -100.9935
v  -447.9970 428.5577 -92.4869
v  -285.8239 428.5577 -92.4869
v  -447.9970 441.9874 -92.4869
v  -285.8239 441.9874 -92.4869
v  -447.9969 441.9874 -271.3451
v  -447.9969 428.5577 -271.3451
v  -285.8238 428.5577 -271.3451
v  -285.8238 441.9874 -271.3451
v  -447.9969 428.5577 -262.8385
v  -285.8238 428.5577 -262.8385
v  -447.9969 441.9874 -262.8385
v  -285.8238 441.9874 -262.8385
v  -447.9969 441.9874 -441.6967
v  -447.9969 428.5577 -441.6967
v  -285.8238 428.5577 -441.6968
v  -285.8238 441.9874 -441.6968
v  -447.9969 428.5577 -433.1901
v  -285.8238 428.5577 -433.1902
v  -447.9969 441.9874 -433.1901
v  -285.8238 441.9874 -433.1902
v  -447.9969 441.9874 -612.0483
v  -447.9969 428.5577 -612.0483
v  -285.8238 428.5577 -612.0485
v  -285.8238 441.9874 -612.0485
v  -447.9969 428.5577 -603.5417
v  -285.8238 428.5577 -603.5419
v  -447.9969 441.9874 -603.5417
v  -285.8238 441.9874 -603.5419
v  -447.9969 441.9874 -782.3999
v  -447.9969 428.5577 -782.3999
v  -285.8238 428.5577 -782.4000
v  -285.8238 441.9874 -782.4000
v  -447.9969 428.5577 -773.8933
v  -285.8238 428.5577 -773.8934
v  -447.9969 441.9874 -773.8933
v  -285.8238 441.9874 -773.8934
v  -447.9969 441.9874 -952.7515
v  -447.9969 428.5577 -952.7515
v  -285.8238 428.5577 -952.7516
v  -285.8238 441.9874 -952.7516
v  -447.9969 428.5577 -944.2449
v  -285.8238 428.5577 -944.2450
v  -447.9969 441.9874 -944.2449
v  -285.8238 441.9874 -944.2450
# 192 vertices

vn -0.0000 0.0000 -1.0000
vn -0.0000 -1.0000 -0.0000
vn 0.0000 -0.0000 1.0000
# 3 vertex normals

vt -1.8738 -0.0038 0.0000
vt -1.8738 -0.1513 0.0000
vt 2.9009 -0.1513 0.0000
vt 2.9009 -0.0038 0.0000
vt -1.8738 -0.2274 0.0000
vt 2.9009 -0.2274 0.0000
vt -1.8738 -0.3750 0.0000
vt 2.9009 -0.3750 0.0000
vt -1.8095 1.2894 0.0000
vt -1.8095 0.8416 0.0000
vt 2.5878 0.8416 0.0000
vt 2.5878 1.2894 0.0000
vt -1.8095 0.6110 0.0000
vt 2.5878 0.6110 0.0000
vt -1.8095 0.1633 0.0000
vt 2.5878 0.1633 0.0000
vt -1.8095 0.8417 0.0000
vt 2.5878 0.8417 0.0000
vt -1.8095 1.2893 0.0000
vt 2.5878 1.2893 0.0000
vt -1.8095 1.2882 0.0000
vt -1.8095 0.8405 0.0000
vt 2.5878 0.8405 0.0000
vt 2.5878 1.2882 0.0000
vt -1.8095 0.6098 0.0000
vt 2.5878 0.6098 0.0000
vt -1.8095 0.1621 0.0000
vt 2.5878 0.1621 0.0000
vt -1.8095 0.1632 0.0000
vt 2.5878 0.1632 0.0000
# 30 texture coords

g CeilingBearings030
usemtl 13___Default
s 16
f 4/4/1 3/3/1 2/2/1 1/1/1 
s 32
f 3/3/2 6/6/2 5/5/2 2/2/2 
s 64
f 6/6/3 8/8/3 7/7/3 5/5/3 
s 16
f 12/4/1 11/3/1 10/2/1 9/1/1 
s 32
f 11/3/2 14/6/2 13/5/2 10/2/2 
s 64
f 14/6/3 16/8/3 15/7/3 13/5/3 
s 16
f 20/4/1 19/3/1 18/2/1 17/1/1 
s 32
f 19/3/2 22/6/2 21/5/2 18/2/2 
s 64
f 22/6/3 24/8/3 23/7/3 21/5/3 
s 16
f 28/4/1 27/3/1 26/2/1 25/1/1 
s 32
f 27/3/2 30/6/2 29/5/2 26/2/2 
s 64
f 30/6/3 32/8/3 31/7/3 29/5/3 
s 16
f 36/4/1 35/3/1 34/2/1 33/1/1 
s 32
f 35/3/2 38/6/2 37/5/2 34/2/2 
s 64
f 38/6/3 40/8/3 39/7/3 37/5/3 
s 16
f 44/4/1 43/3/1 42/2/1 41/1/1 
s 32
f 43/3/2 46/6/2 45/5/2 42/2/2 
s 64
f 46/6/3 48/8/3 47/7/3 45/5/3 
s 16
f 52/4/1 51/3/1 50/2/1 49/1/1 
s 32
f 51/3/2 54/6/2 53/5/2 50/2/2 
s 64
f 54/6/3 56/8/3 55/7/3 53/5/3 
s 16
f 60/4/1 59/3/1 58/2/1 57/1/1 
s 32
f 59/3/2 62/6/2 61/5/2 58/2/2 
s 64
f 62/6/3 64/8/3 63/7/3 61/5/3 
s 16
f 68/4/1 67/3/1 66/2/1 65/1/1 
s 32
f 67/3/2 70/6/2 69/5/2 66/2/2 
s 64
f 70/6/3 72/8/3 71/7/3 69/5/3 
s 16
f 76/4/1 75/3/1 74/2/1 73/1/1 
s 32
f 75/3/2 78/6/2 77/5/2 74/2/2 
s 64
f 78/6/3 80/8/3 79/7/3 77/5/3 
s 16
f 84/4/1 83/3/1 82/2/1 81/1/1 
s 32
f 83/3/2 86/6/2 85/5/2 82/2/2 
s 64
f 86/6/3 88/8/3 87/7/3 85/5/3 
s 16
f 92/4/1 91/3/1 90/2/1 89/1/1 
s 32
f 91/3/2 94/6/2 93/5/2 90/2/2 
s 64
f 94/6/3 96/8/3 95/7/3 93/5/3 
s 16
f 100/4/1 99/3/1 98/2/1 97/1/1 
s 32
f 99/3/2 102/6/2 101/5/2 98/2/2 
s 64
f 102/6/3 104/8/3 103/7/3 101/5/3 
s 16
f 108/4/1 107/3/1 106/2/1 105/1/1 
s 32
f 107/3/2 110/6/2 109/5/2 106/2/2 
s 64
f 110/6/3 112/8/3 111/7/3 109/5/3 
s 16
f 116/4/1 115/3/1 114/2/1 113/1/1 
s 32
f 115/3/2 118/6/2 117/5/2 114/2/2 
s 64
f 118/6/3 120/8/3 119/7/3 117/5/3 
s 16
f 124/4/1 123/3/1 122/2/1 121/1/1 
s 32
f 123/3/2 126/6/2 125/5/2 122/2/2 
s 64
f 126/6/3 128/8/3 127/7/3 125/5/3 
s 16
f 132/12/1 131/11/1 130/10/1 129/9/1 
s 32
f 131/11/2 134/14/2 133/13/2 130/10/2 
s 64
f 134/14/3 136/16/3 135/15/3 133/13/3 
s 16
f 140/12/1 139/18/1 138/17/1 137/9/1 
s 32
f 139/18/2 142/14/2 141/13/2 138/17/2 
s 64
f 142/14/3 144/16/3 143/15/3 141/13/3 
s 16
f 148/12/1 147/11/1 146/10/1 145/9/1 
s 32
f 147/11/2 150/14/2 149/13/2 146/10/2 
s 64
f 150/14/3 152/16/3 151/15/3 149/13/3 
s 16
f 156/20/1 155/11/1 154/10/1 153/19/1 
s 32
f 155/11/2 158/14/2 157/13/2 154/10/2 
s 64
f 158/14/3 160/16/3 159/15/3 157/13/3 
s 16
f 164/12/1 163/11/1 162/10/1 161/9/1 
s 32
f 163/11/2 166/14/2 165/13/2 162/10/2 
s 64
f 166/14/3 168/16/3 167/15/3 165/13/3 
s 16
f 172/24/1 171/23/1 170/22/1 169/21/1 
s 32
f 171/23/2 174/26/2 173/25/2 170/22/2 
s 64
f 174/26/3 176/28/3 175/27/3 173/25/3 
s 16
f 180/24/1 179/23/1 178/22/1 177/21/1 
s 32
f 179/23/2 182/26/2 181/25/2 178/22/2 
s 64
f 182/26/3 184/28/3 183/27/3 181/25/3 
s 16
f 188/20/1 187/11/1 186/10/1 185/19/1 
s 32
f 187/11/2 190/14/2 189/13/2 186/10/2 
s 64
f 190/14/3 192/30/3 191/29/3 189/13/3 
# 72 polygons

