# 3ds Max Wavefront OBJ Exporter v0.97b - (c)2007 guruware
# File Created: 27.02.2017 03:12:05

mtllib Pillars.mtl

#
# object Box042
#

v  141.7036 214.7739 -26.7558
v  189.4871 214.7739 -26.7558
v  189.4871 441.9873 -26.7558
v  141.7036 441.9873 -26.7558
v  189.4871 214.7739 23.6999
v  189.4871 441.9873 23.6999
v  141.7036 214.7739 23.6999
v  141.7036 441.9873 23.6999
v  141.7036 214.7739 -646.8207
v  141.7036 441.9874 -646.8207
v  189.4871 441.9874 -646.8207
v  189.4871 214.7739 -646.8207
v  189.4871 441.9874 -697.2764
v  189.4871 214.7739 -697.2764
v  141.7036 441.9874 -697.2764
v  141.7036 214.7739 -697.2764
# 16 vertices

vn 0.0000 0.0000 -1.0000
vn 1.0000 0.0000 -0.0000
vn 0.0000 0.0000 1.0000
vn -1.0000 0.0000 -0.0000
# 4 vertex normals

vt -1.0383 -0.4301 0.0000
vt -0.1300 -0.4301 0.0000
vt -0.1300 3.8889 0.0000
vt -1.0383 3.8889 0.0000
vt 1.0492 -0.4301 0.0000
vt 1.0492 3.8889 0.0000
vt 1.9576 -0.4301 0.0000
vt 1.9576 3.8889 0.0000
vt 3.1368 -0.4301 0.0000
vt 3.1368 3.8889 0.0000
vt 1.0680 -0.4475 0.0000
vt 1.0680 3.8716 0.0000
vt 0.1597 3.8716 0.0000
vt 0.1597 -0.4475 0.0000
vt -1.0195 3.8716 0.0000
vt -1.0195 -0.4475 0.0000
vt 3.1555 -0.4475 0.0000
vt 3.1555 3.8716 0.0000
vt 2.2472 3.8716 0.0000
vt 2.2472 -0.4475 0.0000
# 20 texture coords

g Box042
usemtl 02___Default
s 8
f 4/4/1 3/3/1 2/2/1 1/1/1 
s 16
f 3/3/2 6/6/2 5/5/2 2/2/2 
s 32
f 6/6/3 8/8/3 7/7/3 5/5/3 
s 64
f 8/8/4 4/10/4 1/9/4 7/7/4 
s 8
f 12/14/3 11/13/3 10/12/3 9/11/3 
s 16
f 14/16/2 13/15/2 11/13/2 12/14/2 
s 32
f 16/20/1 15/19/1 13/18/1 14/17/1 
s 64
f 9/11/4 10/12/4 15/19/4 16/20/4 
# 8 polygons

