# 3ds Max Wavefront OBJ Exporter v0.97b - (c)2007 guruware
# File Created: 27.02.2017 03:12:29

mtllib VerticalRafters.mtl

#
# object CeilingBearings
#

v  291.3681 441.9873 -1027.4471
v  291.3681 395.4245 -1027.4471
v  291.3680 395.4245 393.9721
v  291.3680 441.9874 393.9721
v  269.8569 395.4245 -1027.4471
v  269.8568 395.4245 393.9721
v  269.8569 441.9873 -1027.4471
v  269.8568 441.9874 393.9721
v  -264.3127 441.9873 -1027.4471
v  -264.3127 395.4245 -1027.4471
v  -264.3127 395.4245 393.9721
v  -264.3127 441.9874 393.9721
v  -285.8239 395.4245 -1027.4471
v  -285.8239 395.4245 393.9721
v  -285.8239 441.9873 -1027.4471
v  -285.8239 441.9874 393.9721
# 16 vertices

vn 1.0000 0.0000 0.0000
vn 0.0000 -1.0000 0.0000
vn -0.0000 -1.0000 0.0000
vn -1.0000 -0.0000 -0.0000
# 4 vertex normals

vt -2.2554 0.7034 0.0000
vt -2.2554 0.5484 0.0000
vt 3.1044 0.5484 0.0000
vt 3.1044 0.7034 0.0000
vt -2.2554 0.4901 0.0000
vt 3.1044 0.4901 0.0000
vt -2.2554 0.3351 0.0000
vt 3.1044 0.3351 0.0000
# 8 texture coords

g CeilingBearings
usemtl 13___Default
s 16
f 4/4/1 3/3/1 2/2/1 1/1/1 
s 32
f 3/3/3 6/6/2 5/5/2 2/2/2 
s 64
f 6/6/4 8/8/4 7/7/4 5/5/4 
s 16
f 12/4/1 11/3/1 10/2/1 9/1/1 
s 32
f 11/3/3 14/6/2 13/5/2 10/2/2 
s 64
f 14/6/4 16/8/4 15/7/4 13/5/4 
# 6 polygons

